<svg width="386" height="349" viewBox="0 0 386 349" fill="none" xmlns="http://www.w3.org/2000/svg">
<path d="M313.888 140.411C293.339 125.071 261.154 110.564 225.586 100.61C193.201 91.546 161.614 87.17 136.637 88.2875L136.507 85.3871C161.782 84.2568 193.697 88.6696 226.371 97.8143C262.271 107.862 294.804 122.54 315.629 138.086L313.888 140.411Z" fill="#3F3D56"/>
<path d="M311.755 152.226C311.774 165.817 308.92 179.258 303.382 191.673C302.919 192.712 302.438 193.742 301.936 194.762C292.303 214.464 276.268 230.325 256.448 239.758C236.627 249.192 214.19 251.641 192.796 246.706C171.403 241.772 152.315 229.744 138.646 212.586C124.977 195.428 117.534 174.151 117.531 152.226C117.531 149.982 117.608 147.755 117.761 145.546C117.834 144.422 117.928 143.305 118.043 142.195C120.618 117.48 132.597 94.6948 151.507 78.5418C170.417 62.3887 194.816 54.1004 219.668 55.3873C244.52 56.6742 267.929 67.438 285.064 85.4576C302.2 103.477 311.754 127.377 311.755 152.226H311.755Z" fill="#F2F2F2"/>
<path opacity="0.1" d="M303.381 191.673C302.919 192.712 302.437 193.742 301.936 194.762C299.099 195.069 296.112 195.293 292.975 195.432C290.379 195.548 287.707 195.606 284.977 195.606C261.129 195.606 232.429 191.211 203.109 183.006C170.434 173.861 140.873 161.069 119.869 146.986C119.153 146.507 118.451 146.027 117.761 145.546C117.833 144.422 117.927 143.305 118.043 142.195C119.156 142.988 120.305 143.781 121.488 144.576C142.245 158.491 171.51 171.147 203.894 180.211C232.958 188.345 261.388 192.703 284.962 192.703C287.657 192.703 290.285 192.646 292.844 192.532C296.572 192.364 300.084 192.077 303.381 191.673Z" fill="black"/>
<path d="M284.977 193.284C261.13 193.285 232.428 188.889 203.109 180.684C170.435 171.539 140.872 158.747 119.868 144.663C98.4254 130.286 88.3705 116.119 91.5554 104.773C94.7402 93.4263 110.704 86.5416 136.507 85.387L136.637 88.2874C124.587 88.8265 114.768 90.6148 107.45 93.6026C100.151 96.5829 95.7449 100.605 94.355 105.557C92.9651 110.508 94.6358 116.231 99.3206 122.565C104.017 128.915 111.475 135.539 121.489 142.253C142.243 156.169 171.509 168.825 203.894 177.888C232.959 186.022 261.386 190.381 284.963 190.382C287.656 190.382 290.283 190.325 292.843 190.21C304.893 189.671 314.713 187.883 322.03 184.895C329.33 181.915 333.735 177.893 335.125 172.941C337.621 164.05 330.079 152.497 313.888 140.411L315.629 138.086C323.961 144.305 330.128 150.436 333.96 156.307C338.068 162.601 339.402 168.462 337.925 173.725C334.74 185.071 318.776 191.956 292.974 193.111C290.377 193.227 287.707 193.284 284.977 193.284Z" fill="#3F3D56"/>
<path d="M217.212 37.7688C217.827 37.7688 218.325 37.2713 218.325 36.6576C218.325 36.0439 217.827 35.5464 217.212 35.5464C216.598 35.5464 216.1 36.0439 216.1 36.6576C216.1 37.2713 216.598 37.7688 217.212 37.7688Z" fill="#F2F2F2"/>
<path d="M69.5795 85.986C70.6368 85.986 71.4939 85.1302 71.4939 84.0744C71.4939 83.0187 70.6368 82.1628 69.5795 82.1628C68.5222 82.1628 67.665 83.0187 67.665 84.0744C67.665 85.1302 68.5222 85.986 69.5795 85.986Z" fill="#CCCCCC"/>
<path d="M65.4987 162.669C67.5874 162.669 69.2806 160.979 69.2806 158.893C69.2806 156.807 67.5874 155.117 65.4987 155.117C63.41 155.117 61.7168 156.807 61.7168 158.893C61.7168 160.979 63.41 162.669 65.4987 162.669Z" fill="#CCCCCC"/>
<path d="M292.512 45.8415C293.904 45.8415 295.032 44.7147 295.032 43.3247C295.032 41.9347 293.904 40.8079 292.512 40.8079C291.12 40.8079 289.991 41.9347 289.991 43.3247C289.991 44.7147 291.12 45.8415 292.512 45.8415Z" fill="#CCCCCC"/>
<path d="M381.908 151.868C384.168 151.868 386 150.038 386 147.781C386 145.525 384.168 143.695 381.908 143.695C379.648 143.695 377.815 145.525 377.815 147.781C377.815 150.038 379.648 151.868 381.908 151.868Z" fill="#CCCCCC"/>
<path d="M349.907 84.2691C350.877 84.2691 351.663 83.4842 351.663 82.5159C351.663 81.5476 350.877 80.7627 349.907 80.7627C348.937 80.7627 348.151 81.5476 348.151 82.5159C348.151 83.4842 348.937 84.2691 349.907 84.2691Z" fill="#CCCCCC"/>
<path d="M136.719 62.7273C138.231 62.7273 139.458 61.5027 139.458 59.9922C139.458 58.4816 138.231 57.2571 136.719 57.2571C135.206 57.2571 133.979 58.4816 133.979 59.9922C133.979 61.5027 135.206 62.7273 136.719 62.7273Z" fill="#CCCCCC"/>
<path d="M343.762 141.249C344.731 141.249 345.517 140.464 345.517 139.496C345.517 138.527 344.731 137.742 343.762 137.742C342.792 137.742 342.006 138.527 342.006 139.496C342.006 140.464 342.792 141.249 343.762 141.249Z" fill="#CCCCCC"/>
<path d="M2.18534 148.128C3.39227 148.128 4.37068 147.151 4.37068 145.946C4.37068 144.741 3.39227 143.764 2.18534 143.764C0.978409 143.764 0 144.741 0 145.946C0 147.151 0.978409 148.128 2.18534 148.128Z" fill="#CCCCCC"/>
<path d="M35.3851 112.399C36.6922 112.399 37.7517 111.341 37.7517 110.035C37.7517 108.73 36.6922 107.672 35.3851 107.672C34.0781 107.672 33.0186 108.73 33.0186 110.035C33.0186 111.341 34.0781 112.399 35.3851 112.399Z" fill="#CCCCCC"/>
<path d="M187.341 4.6631H182.671V0H180.165V4.6631H175.493V7.16728H180.165V11.8304H182.671V7.16728H187.341V4.6631Z" fill="#CCCCCC"/>
<path d="M295.675 256.994H292.741V254.067H291.169V256.994H288.236V258.565H291.169V261.493H292.741V258.565H295.675V256.994Z" fill="#CCCCCC"/>
<path d="M363.359 242.006H361.167V239.818H359.99V242.006H357.798V243.182H359.99V245.371H361.167V243.182H363.359V242.006Z" fill="#CCCCCC"/>
<path opacity="0.1" d="M153.411 144.077C157.918 144.077 161.571 140.429 161.571 135.929C161.571 131.429 157.918 127.78 153.411 127.78C148.904 127.78 145.25 131.429 145.25 135.929C145.25 140.429 148.904 144.077 153.411 144.077Z" fill="black"/>
<path opacity="0.1" d="M243.548 225.934C248.055 225.934 251.709 222.285 251.709 217.785C251.709 213.285 248.055 209.636 243.548 209.636C239.041 209.636 235.388 213.285 235.388 217.785C235.388 222.285 239.041 225.934 243.548 225.934Z" fill="black"/>
<path opacity="0.1" d="M216.099 156.671C220.606 156.671 224.26 153.022 224.26 148.522C224.26 144.022 220.606 140.374 216.099 140.374C211.592 140.374 207.938 144.022 207.938 148.522C207.938 153.022 211.592 156.671 216.099 156.671Z" fill="black"/>
<path opacity="0.1" d="M157.492 201.488C161.999 201.488 165.652 197.84 165.652 193.339C165.652 188.839 161.999 185.191 157.492 185.191C152.985 185.191 149.331 188.839 149.331 193.339C149.331 197.84 152.985 201.488 157.492 201.488Z" fill="black"/>
<path opacity="0.1" d="M259.87 112.965C264.377 112.965 268.03 109.317 268.03 104.816C268.03 100.316 264.377 96.6677 259.87 96.6677C255.363 96.6677 251.709 100.316 251.709 104.816C251.709 109.317 255.363 112.965 259.87 112.965Z" fill="black"/>
<path opacity="0.1" d="M286.948 168.153C291.455 168.153 295.108 164.505 295.108 160.004C295.108 155.504 291.455 151.856 286.948 151.856C282.441 151.856 278.787 155.504 278.787 160.004C278.787 164.505 282.441 168.153 286.948 168.153Z" fill="black"/>
<path d="M259.869 81.4816C265.81 81.4816 270.627 76.6726 270.627 70.7403C270.627 64.8081 265.81 59.999 259.869 59.999C253.928 59.999 249.112 64.8081 249.112 70.7403C249.112 76.6726 253.928 81.4816 259.869 81.4816Z" fill="white"/>
<path d="M259.87 55.1841C255.836 55.1841 251.968 56.784 249.116 59.632C246.263 62.4799 244.661 66.3425 244.661 70.37C244.661 78.757 259.87 106.298 259.87 106.298C259.87 106.298 275.078 78.757 275.078 70.37C275.078 66.3425 273.476 62.4799 270.623 59.632C267.771 56.784 263.903 55.1841 259.87 55.1841ZM259.87 77.7778C258.476 77.7778 257.113 77.3651 255.954 76.5918C254.795 75.8185 253.892 74.7194 253.358 73.4335C252.825 72.1476 252.685 70.7326 252.957 69.3675C253.229 68.0023 253.9 66.7484 254.886 65.7642C255.872 64.78 257.127 64.1097 258.495 63.8382C259.862 63.5667 261.279 63.706 262.567 64.2387C263.854 64.7713 264.955 65.6733 265.73 66.8306C266.504 67.9879 266.917 69.3485 266.917 70.7404C266.917 71.6646 266.735 72.5797 266.381 73.4335C266.027 74.2873 265.508 75.0631 264.853 75.7166C264.199 76.3701 263.422 76.8885 262.567 77.2421C261.711 77.5958 260.795 77.7778 259.87 77.7778Z" fill="#6C63FF"/>
<path d="M153.368 110.617C159.309 110.617 164.126 105.808 164.126 99.8758C164.126 93.9436 159.309 89.1345 153.368 89.1345C147.427 89.1345 142.611 93.9436 142.611 99.8758C142.611 105.808 147.427 110.617 153.368 110.617Z" fill="white"/>
<path d="M153.369 84.3193C149.335 84.3193 145.467 85.9193 142.615 88.7672C139.762 91.6151 138.16 95.4777 138.16 99.5053C138.16 107.892 153.369 135.433 153.369 135.433C153.369 135.433 168.577 107.892 168.577 99.5053C168.577 95.4777 166.975 91.6151 164.122 88.7672C161.27 85.9193 157.402 84.3193 153.369 84.3193ZM153.369 106.913C151.975 106.913 150.612 106.5 149.453 105.727C148.294 104.954 147.391 103.855 146.857 102.569C146.324 101.283 146.184 99.8678 146.456 98.5027C146.728 97.1376 147.399 95.8836 148.385 94.8994C149.371 93.9152 150.626 93.245 151.994 92.9735C153.361 92.7019 154.778 92.8413 156.066 93.3739C157.353 93.9066 158.454 94.8086 159.229 95.9659C160.003 97.1232 160.416 98.4838 160.416 99.8757C160.416 100.8 160.234 101.715 159.88 102.569C159.526 103.423 159.007 104.198 158.352 104.852C157.698 105.505 156.921 106.024 156.066 106.377C155.21 106.731 154.294 106.913 153.369 106.913Z" fill="#3F3D56"/>
<path d="M288.319 135.382C294.26 135.382 299.076 130.573 299.076 124.641C299.076 118.708 294.26 113.899 288.319 113.899C282.378 113.899 277.562 118.708 277.562 124.641C277.562 130.573 282.378 135.382 288.319 135.382Z" fill="white"/>
<path d="M288.319 109.084C284.285 109.084 280.417 110.684 277.565 113.532C274.713 116.38 273.11 120.243 273.11 124.27C273.11 132.657 288.319 160.198 288.319 160.198C288.319 160.198 303.527 132.657 303.527 124.27C303.527 120.243 301.925 116.38 299.073 113.532C296.22 110.684 292.352 109.084 288.319 109.084ZM288.319 131.678C286.925 131.678 285.562 131.265 284.403 130.492C283.244 129.719 282.341 128.62 281.807 127.334C281.274 126.048 281.134 124.633 281.406 123.268C281.678 121.903 282.35 120.649 283.335 119.665C284.321 118.68 285.577 118.01 286.944 117.739C288.311 117.467 289.728 117.606 291.016 118.139C292.304 118.672 293.404 119.574 294.179 120.731C294.953 121.888 295.367 123.249 295.367 124.641C295.367 125.565 295.184 126.48 294.83 127.334C294.476 128.188 293.957 128.964 293.302 129.617C292.648 130.271 291.871 130.789 291.016 131.143C290.161 131.496 289.244 131.678 288.319 131.678Z" fill="#CCCCCC"/>
<path d="M105.954 189.282C111.895 189.282 116.712 184.473 116.712 178.541C116.712 172.609 111.895 167.8 105.954 167.8C100.013 167.8 95.1973 172.609 95.1973 178.541C95.1973 184.473 100.013 189.282 105.954 189.282Z" fill="white"/>
<path d="M105.954 162.985C101.921 162.985 98.0526 164.585 95.2005 167.432C92.3484 170.28 90.7461 174.143 90.7461 178.171C90.7461 186.558 105.954 214.098 105.954 214.098C105.954 214.098 121.163 186.558 121.163 178.171C121.163 174.143 119.56 170.28 116.708 167.432C113.856 164.585 109.988 162.985 105.954 162.985ZM105.954 185.578C104.56 185.578 103.198 185.166 102.039 184.392C100.88 183.619 99.9765 182.52 99.4431 181.234C98.9097 179.948 98.7701 178.533 99.042 177.168C99.314 175.803 99.9852 174.549 100.971 173.565C101.957 172.581 103.212 171.91 104.579 171.639C105.947 171.367 107.364 171.507 108.652 172.039C109.939 172.572 111.04 173.474 111.814 174.631C112.589 175.788 113.002 177.149 113.002 178.541C113.002 179.465 112.82 180.38 112.466 181.234C112.112 182.088 111.592 182.864 110.938 183.517C110.284 184.171 109.507 184.689 108.652 185.043C107.796 185.396 106.88 185.578 105.954 185.578Z" fill="#6C63FF"/>
<path d="M353.561 264.789C355.649 263.043 352.827 256.244 347.258 249.602C341.689 242.96 335.481 238.991 333.393 240.737C331.305 242.482 334.127 249.282 339.696 255.924C345.265 262.566 351.473 266.535 353.561 264.789Z" fill="#2F2E41"/>
<path d="M310.062 278.685C327.413 278.685 341.478 264.641 341.478 247.316C341.478 229.991 327.413 215.947 310.062 215.947C292.712 215.947 278.646 229.991 278.646 247.316C278.646 264.641 292.712 278.685 310.062 278.685Z" fill="#2F2E41"/>
<path d="M323.359 271.935H313.815V289.01H323.359V271.935Z" fill="#2F2E41"/>
<path d="M304.272 271.935H294.728V289.01H304.272V271.935Z" fill="#2F2E41"/>
<path d="M315.406 292.186C319.799 292.186 323.36 290.853 323.36 289.208C323.36 287.563 319.799 286.23 315.406 286.23C311.014 286.23 307.453 287.563 307.453 289.208C307.453 290.853 311.014 292.186 315.406 292.186Z" fill="#2F2E41"/>
<path d="M296.319 291.789C300.711 291.789 304.272 290.456 304.272 288.811C304.272 287.166 300.711 285.833 296.319 285.833C291.926 285.833 288.365 287.166 288.365 288.811C288.365 290.456 291.926 291.789 296.319 291.789Z" fill="#2F2E41"/>
<path d="M300.198 207.884C303.003 196.603 315.386 189.965 327.855 193.057C340.325 196.148 348.159 207.799 345.354 219.08C342.549 230.36 333.242 230.397 320.773 227.305C308.303 224.213 297.393 219.164 300.198 207.884Z" fill="#6C63FF"/>
<path d="M288.87 239.482C290.037 237.025 284.629 232.023 276.791 228.311C268.953 224.599 261.652 223.582 260.485 226.039C259.318 228.496 264.726 233.497 272.565 237.209C280.403 240.921 287.703 241.939 288.87 239.482Z" fill="#2F2E41"/>
<path d="M305.366 251.155C311.15 251.155 315.84 246.473 315.84 240.697C315.84 234.921 311.15 230.238 305.366 230.238C299.581 230.238 294.892 234.921 294.892 240.697C294.892 246.473 299.581 251.155 305.366 251.155Z" fill="white"/>
<path d="M301.061 240.434C302.989 240.434 304.552 238.873 304.552 236.948C304.552 235.022 302.989 233.462 301.061 233.462C299.132 233.462 297.569 235.022 297.569 236.948C297.569 238.873 299.132 240.434 301.061 240.434Z" fill="#3F3D56"/>
<path d="M311.936 262.487C312.1 263.388 312.085 264.312 311.892 265.207C311.698 266.102 311.33 266.95 310.808 267.703C310.286 268.456 309.621 269.099 308.851 269.595C308.08 270.091 307.219 270.431 306.317 270.595C305.415 270.759 304.489 270.744 303.593 270.551C302.696 270.358 301.847 269.99 301.093 269.469C300.339 268.948 299.695 268.284 299.198 267.514C298.701 266.745 298.361 265.885 298.196 264.984L298.194 264.971C297.507 261.182 300.441 259.841 304.236 259.155C308.03 258.469 311.249 258.698 311.936 262.487Z" fill="white"/>
<path d="M245.363 180.674C242.132 177.952 238.178 176.226 233.983 175.706C229.787 175.187 225.53 175.896 221.731 177.748C217.932 179.6 214.753 182.515 212.583 186.137C210.412 189.76 209.343 193.935 209.505 198.153C209.668 202.372 211.054 206.452 213.496 209.898C215.939 213.344 219.332 216.007 223.262 217.562C227.192 219.118 231.491 219.499 235.634 218.66C239.777 217.821 243.587 215.797 246.6 212.836L273.352 235.375C273.759 235.718 274.286 235.886 274.816 235.841C275.347 235.797 275.839 235.544 276.183 235.137C276.527 234.731 276.695 234.205 276.651 233.675C276.606 233.145 276.353 232.654 275.947 232.31L275.944 232.308L249.192 209.768C252.3 205.314 253.63 199.862 252.922 194.481C252.213 189.099 249.518 184.175 245.363 180.674ZM243.639 207.598C241.555 210.064 238.785 211.858 235.68 212.752C232.575 213.647 229.274 213.602 226.194 212.623C223.115 211.644 220.395 209.775 218.38 207.253C216.364 204.731 215.142 201.669 214.869 198.453C214.597 195.238 215.285 192.014 216.847 189.189C218.409 186.364 220.775 184.065 223.646 182.583C226.516 181.101 229.763 180.502 232.974 180.862C236.186 181.222 239.218 182.525 241.688 184.606C245 187.397 247.066 191.387 247.432 195.699C247.798 200.01 246.433 204.291 243.639 207.598Z" fill="#3F3D56"/>
<path opacity="0.3" d="M220.613 209.546C217.479 206.904 215.454 203.182 214.94 199.119C214.426 195.056 215.462 190.948 217.841 187.612C217.528 187.926 217.226 188.255 216.935 188.599C215.551 190.237 214.504 192.13 213.853 194.172C213.202 196.214 212.96 198.363 213.141 200.498C213.322 202.633 213.923 204.712 214.909 206.615C215.894 208.518 217.245 210.209 218.885 211.591C220.525 212.972 222.422 214.018 224.466 214.668C226.511 215.318 228.664 215.559 230.802 215.378C232.94 215.197 235.022 214.598 236.928 213.614C238.834 212.63 240.527 211.28 241.911 209.643C242.202 209.298 242.476 208.946 242.733 208.585C239.839 211.488 235.959 213.198 231.861 213.376C227.763 213.554 223.748 212.187 220.613 209.546Z" fill="black"/>
<path d="M107.948 225.385C111.045 217.294 111.493 209.947 108.949 208.976C106.406 208.006 101.832 213.778 98.7351 221.869C95.6378 229.961 95.1892 237.308 97.7331 238.278C100.277 239.249 104.85 233.477 107.948 225.385Z" fill="#2F2E41"/>
<path d="M74.3035 278.686C91.654 278.686 105.719 264.641 105.719 247.316C105.719 229.991 91.654 215.947 74.3035 215.947C56.953 215.947 42.8877 229.991 42.8877 247.316C42.8877 264.641 56.953 278.686 74.3035 278.686Z" fill="#2F2E41"/>
<path d="M69.5323 271.935H59.9883V289.01H69.5323V271.935Z" fill="#2F2E41"/>
<path d="M88.6202 271.935H79.0762V289.01H88.6202V271.935Z" fill="#2F2E41"/>
<path d="M67.9417 292.186C72.3342 292.186 75.895 290.853 75.895 289.208C75.895 287.563 72.3342 286.23 67.9417 286.23C63.5491 286.23 59.9883 287.563 59.9883 289.208C59.9883 290.853 63.5491 292.186 67.9417 292.186Z" fill="#2F2E41"/>
<path d="M87.0296 291.789C91.4221 291.789 94.9829 290.456 94.9829 288.811C94.9829 287.166 91.4221 285.833 87.0296 285.833C82.637 285.833 79.0762 287.166 79.0762 288.811C79.0762 290.456 82.637 291.789 87.0296 291.789Z" fill="#2F2E41"/>
<path d="M75.0993 250.096C81.0292 250.096 85.8364 245.295 85.8364 239.374C85.8364 233.453 81.0292 228.653 75.0993 228.653C69.1694 228.653 64.3623 233.453 64.3623 239.374C64.3623 245.295 69.1694 250.096 75.0993 250.096Z" fill="white"/>
<path d="M75.0995 242.948C77.0762 242.948 78.6786 241.348 78.6786 239.374C78.6786 237.401 77.0762 235.801 75.0995 235.801C73.1229 235.801 71.5205 237.401 71.5205 239.374C71.5205 241.348 73.1229 242.948 75.0995 242.948Z" fill="#3F3D56"/>
<path d="M43.8297 218.143C41.293 206.8 49.4018 195.337 61.9411 192.541C74.4804 189.746 86.702 196.675 89.2386 208.019C91.7753 219.362 83.465 223.546 70.9257 226.342C58.3864 229.138 46.3664 229.487 43.8297 218.143Z" fill="#6C63FF"/>
<path d="M53.1115 239.482C54.2786 237.025 48.8705 232.023 41.0321 228.311C33.1938 224.599 25.8935 223.582 24.7264 226.039C23.5594 228.496 28.9675 233.497 36.8058 237.209C44.6441 240.921 51.9444 241.939 53.1115 239.482Z" fill="#2F2E41"/>
<path d="M58.873 258.633C58.873 261.703 66.7901 267.766 75.5751 267.766C84.3602 267.766 92.5971 259.122 92.5971 256.052C92.5971 252.982 84.3601 256.647 75.5751 256.647C66.7901 256.647 58.873 255.563 58.873 258.633Z" fill="white"/>
<path d="M176.223 335.499C193.574 335.499 207.639 321.455 207.639 304.13C207.639 286.805 193.574 272.76 176.223 272.76C158.873 272.76 144.808 286.805 144.808 304.13C144.808 321.455 158.873 335.499 176.223 335.499Z" fill="#2F2E41"/>
<path d="M171.451 328.749H161.907V345.823H171.451V328.749Z" fill="#2F2E41"/>
<path d="M190.539 328.749H180.995V345.823H190.539V328.749Z" fill="#2F2E41"/>
<path d="M169.861 349C174.253 349 177.814 347.667 177.814 346.022C177.814 344.377 174.253 343.044 169.861 343.044C165.468 343.044 161.907 344.377 161.907 346.022C161.907 347.667 165.468 349 169.861 349Z" fill="#2F2E41"/>
<path d="M188.948 348.603C193.341 348.603 196.902 347.27 196.902 345.625C196.902 343.98 193.341 342.647 188.948 342.647C184.556 342.647 180.995 343.98 180.995 345.625C180.995 347.27 184.556 348.603 188.948 348.603Z" fill="#2F2E41"/>
<path d="M145.749 274.957C143.212 263.613 151.321 252.151 163.86 249.355C176.399 246.56 188.621 253.489 191.158 264.833C193.694 276.176 185.384 280.36 172.845 283.156C160.305 285.952 148.285 286.301 145.749 274.957Z" fill="#3F3D56"/>
<path d="M176.349 298.694C176.349 298.694 178.628 288.682 174.298 289.137C169.968 289.592 164.043 289.82 162.448 289.82C160.853 289.82 151.737 288.682 150.37 294.598C149.002 300.515 147.179 307.796 151.053 312.347C151.053 312.347 152.421 332.372 157.662 333.738C162.904 335.103 176.805 336.696 181.819 330.097C183.286 328.134 184.311 325.877 184.823 323.48C185.334 321.084 185.32 318.606 184.781 316.216H182.502L176.349 298.694Z" fill="#6C63FF"/>
<path opacity="0.1" d="M153.332 313.94C153.332 313.94 157.206 315.761 165.182 314.623V318.036L153.332 317.126V313.94Z" fill="black"/>
<path d="M182.285 325.35L179.705 323.988L191.179 302.308C191.61 301.494 191.826 300.584 191.806 299.663C191.787 298.743 191.532 297.842 191.067 297.048C190.602 296.253 189.941 295.59 189.148 295.121C188.354 294.652 187.454 294.393 186.533 294.368L174.491 294.044L174.57 291.132L186.611 291.455C188.029 291.493 189.413 291.892 190.634 292.613C191.855 293.335 192.871 294.355 193.586 295.578C194.302 296.8 194.693 298.185 194.723 299.601C194.754 301.017 194.422 302.417 193.759 303.669L182.285 325.35Z" fill="#6C63FF"/>
<path d="M154.553 325.35L143.078 303.669C142.416 302.417 142.084 301.017 142.114 299.601C142.144 298.185 142.536 296.8 143.251 295.578C143.967 294.355 144.983 293.335 146.204 292.613C147.424 291.892 148.809 291.493 150.226 291.455L162.268 291.132L162.346 294.044L150.305 294.368C149.383 294.393 148.483 294.652 147.69 295.121C146.896 295.59 146.236 296.253 145.771 297.048C145.305 297.843 145.051 298.743 145.031 299.663C145.012 300.584 145.227 301.494 145.658 302.308L157.132 323.988L154.553 325.35Z" fill="#6C63FF"/>
<path d="M216.506 312.179C217.919 309.512 212.167 303.706 203.658 299.212C195.15 294.718 187.107 293.237 185.694 295.904C184.281 298.571 190.033 304.376 198.542 308.871C207.05 313.365 215.093 314.846 216.506 312.179Z" fill="#2F2E41"/>
</svg>
