<svg width="408" height="519" viewBox="0 0 408 519" fill="none" xmlns="http://www.w3.org/2000/svg">
<path d="M519 259.5C519 315.76 500.716 370.496 466.904 415.461C433.092 460.426 385.582 493.185 331.534 508.802C277.485 524.419 219.825 522.048 167.241 502.046C114.657 482.044 69.9973 445.495 39.991 397.905C9.98468 350.316 -3.74304 294.264 0.876148 238.194C5.49533 182.124 28.2112 129.074 65.6012 87.0369C102.991 44.9996 153.03 16.2521 208.179 5.12556C263.327 -6.00095 320.598 1.0963 371.362 25.348L357.631 54.0902C313.098 32.8154 262.857 26.5893 214.478 36.35C166.099 46.1108 122.203 71.3296 89.4023 108.207C56.6019 145.084 36.6744 191.622 32.6223 240.809C28.5701 289.996 40.6127 339.168 66.9357 380.916C93.2588 422.664 132.436 454.727 178.566 472.273C224.695 489.82 275.277 491.9 322.691 478.2C370.106 464.5 411.783 435.762 441.445 396.317C471.107 356.871 487.146 308.854 487.146 259.5H519Z" fill="#96CBEB"/>
</svg>
