
<svg width="481" height="319" viewBox="0 0 481 319" fill="none" xmlns="http://www.w3.org/2000/svg">
<g clip-path="url(#clip0_305_22)">
<path d="M172.535 183.587C189.019 154.65 220.463 132.431 253.748 134.571C229.196 161.216 214.879 195.669 213.33 231.833C212.784 245.783 213.631 261.355 204.35 271.8C198.575 278.299 189.748 281.447 181.07 282.107C172.39 282.767 163.713 281.202 155.15 279.644L153.073 280.281C152.282 247.004 156.051 212.525 172.535 183.587Z" fill="#F0F0F0"/>
<path d="M253.798 135.268C229.183 147.093 208.195 166.842 195.311 190.927C192.526 196.134 190.154 201.658 189.12 207.499C188.085 213.343 188.808 218.905 190.808 224.455C192.636 229.529 195.095 234.508 195.656 239.937C196.247 245.659 194.137 251.01 190.339 255.256C185.692 260.452 179.452 263.672 173.239 266.609C166.342 269.87 159.125 273.148 154.24 279.234C153.648 279.971 152.536 279.011 153.127 278.275C161.627 267.686 176.177 265.696 186.266 257.166C190.974 253.186 194.508 247.766 194.285 241.416C194.09 235.862 191.559 230.726 189.663 225.604C187.672 220.227 186.68 214.82 187.394 209.087C188.124 203.222 190.284 197.593 192.924 192.338C198.877 180.486 207.025 169.604 216.359 160.198C227.085 149.386 239.587 140.485 253.321 133.88C254.172 133.471 254.642 134.862 253.798 135.268V135.268Z" fill="white"/>
<path d="M199.085 182.878C195.312 180.124 192.642 176.122 191.552 171.585C190.463 167.049 191.025 162.274 193.138 158.113C193.568 157.272 194.897 157.9 194.466 158.742C192.492 162.613 191.969 167.061 192.992 171.283C194.015 175.506 196.517 179.224 200.046 181.767C200.812 182.321 199.847 183.428 199.085 182.878V182.878Z" fill="white"/>
<path d="M189.541 222.005C198.996 220.626 207.583 215.741 213.59 208.325C214.185 207.589 215.297 208.549 214.703 209.283C208.438 216.989 199.491 222.054 189.648 223.468C188.71 223.602 188.608 222.138 189.541 222.005V222.005Z" fill="white"/>
<path d="M227.811 151.191C229.049 152.56 230.608 153.601 232.348 154.22C234.088 154.839 235.955 155.018 237.782 154.739C238.718 154.593 238.819 156.057 237.889 156.202C235.87 156.501 233.808 156.301 231.884 155.622C229.96 154.942 228.232 153.802 226.851 152.302C226.709 152.171 226.622 151.992 226.608 151.8C226.593 151.608 226.653 151.417 226.774 151.267C226.902 151.121 227.083 151.031 227.277 151.017C227.471 151.002 227.663 151.065 227.811 151.191Z" fill="white"/>
<path d="M319.976 225.858C319.395 225.966 318.813 226.074 318.225 226.192C310.41 227.68 302.728 229.799 295.256 232.529C294.675 232.731 294.089 232.944 293.515 233.162C275.584 239.929 259.068 249.96 244.806 262.744C239.135 267.836 233.861 273.351 229.029 279.242C222.356 287.378 215.77 296.729 207.05 302.034C206.147 302.597 205.209 303.104 204.243 303.552L154.012 282.76C153.922 282.656 153.826 282.562 153.735 282.458L151.691 281.719C151.919 281.398 152.163 281.07 152.391 280.749C152.522 280.562 152.665 280.379 152.796 280.193C152.887 280.069 152.979 279.947 153.054 279.83C153.085 279.789 153.115 279.748 153.141 279.719C153.216 279.602 153.298 279.502 153.369 279.397C154.724 277.559 156.094 275.727 157.48 273.901C157.485 273.889 157.485 273.89 157.501 273.883C168.094 259.998 179.943 246.873 193.411 235.96C193.816 235.632 194.226 235.292 194.654 234.974C200.752 230.088 207.24 225.708 214.053 221.878C217.791 219.793 221.631 217.897 225.561 216.199C235.722 211.832 246.509 209.086 257.526 208.064C279.487 206.029 301.856 211.025 318.7 224.794C319.131 225.146 319.551 225.494 319.976 225.858Z" fill="#F0F0F0"/>
<path d="M319.598 226.448C292.811 221.1 264.138 224.258 239.32 235.748C233.954 238.232 228.728 241.218 224.378 245.26C220.027 249.304 217.248 254.179 215.496 259.812C213.895 264.962 212.855 270.415 210.027 275.086C207.046 280.011 202.134 283.015 196.539 284.124C189.694 285.48 182.769 284.302 176.037 282.914C168.563 281.373 160.823 279.655 153.251 281.579C152.333 281.812 152.024 280.378 152.94 280.145C166.115 276.797 178.933 283.95 192.135 283.202C198.295 282.852 204.387 280.648 208.041 275.444C211.235 270.892 212.313 265.27 213.889 260.042C215.544 254.553 218.014 249.639 222.043 245.49C226.164 241.246 231.284 238.05 236.563 235.44C248.467 229.554 261.537 225.761 274.664 223.859C289.752 221.671 305.104 222.075 320.055 225.053C320.981 225.238 320.517 226.631 319.598 226.448V226.448Z" fill="white"/>
<path d="M247.19 231.589C245.838 227.123 246.121 222.323 247.988 218.047C249.855 213.77 253.185 210.295 257.382 208.242C258.233 207.829 258.915 209.129 258.063 209.542C254.151 211.447 251.05 214.684 249.319 218.67C247.589 222.656 247.343 227.128 248.627 231.279C248.904 232.182 247.466 232.486 247.19 231.589Z" fill="white"/>
<path d="M215.965 257.095C224.346 261.675 234.15 262.934 243.42 260.622C244.339 260.392 244.648 261.826 243.731 262.056C234.079 264.444 223.88 263.113 215.168 258.327C214.338 257.871 215.14 256.64 215.965 257.095V257.095Z" fill="white"/>
<path d="M289.244 223.548C289.406 225.385 290.023 227.153 291.039 228.693C292.055 230.233 293.438 231.497 295.065 232.371C295.9 232.817 295.098 234.047 294.268 233.604C292.476 232.63 290.95 231.232 289.823 229.533C288.697 227.834 288.005 225.886 287.807 223.858C287.773 223.669 287.812 223.473 287.916 223.311C288.021 223.149 288.183 223.033 288.371 222.986C288.561 222.946 288.76 222.983 288.923 223.088C289.087 223.193 289.202 223.359 289.244 223.548V223.548Z" fill="white"/>
<path d="M224.289 260.161C217.255 226.217 208.461 214.9 208.461 214.9L205.102 212.3L201.062 209.169L201.082 208.766L200.123 208.441L199.898 208.267L199.529 207.984L199.47 208.048L199.345 208.177L181.064 201.976L157.872 194.114L147.132 180.184C145.383 177.915 143.132 176.082 140.554 174.827C137.975 173.572 135.141 172.93 132.273 172.951L97.9745 173.204C93.3369 173.238 88.88 175.003 85.4798 178.15L62.936 199.018L27.8085 215.76L27.7492 215.701L27.3803 215.964L21.9528 218.554L22.1767 219.717L18.8174 222.136C18.8174 222.136 10.024 232.667 2.98929 264.251C1.19973 272.288 0.318846 289.527 0.000893514 310.771C-0.0150772 311.846 0.183192 312.913 0.584168 313.91C0.985144 314.908 1.58083 315.816 2.33659 316.581C3.09235 317.347 3.9931 317.955 4.98647 318.37C5.97984 318.786 7.04602 319 8.123 319H195.746V319H219.164C220.24 318.999 221.306 318.786 222.298 318.371C223.291 317.956 224.191 317.349 224.947 316.584C225.703 315.819 226.299 314.912 226.7 313.916C227.102 312.919 227.301 311.853 227.286 310.779C226.976 287.663 226.095 268.877 224.289 260.161Z" fill="#3F3D56"/>
<path d="M248.361 29.6021C241.062 29.6021 234.061 32.4959 228.899 37.6469C223.738 42.7979 220.838 49.7841 220.838 57.0687C220.838 64.3534 223.738 71.3396 228.899 76.4906C234.061 81.6416 241.062 84.5354 248.361 84.5354H453.476C460.775 84.5354 467.776 81.6416 472.938 76.4906C478.099 71.3396 480.999 64.3534 480.999 57.0687C480.999 49.7841 478.099 42.7979 472.938 37.6469C467.776 32.4959 460.775 29.6021 453.476 29.6021H248.361Z" fill="#E5E5E5"/>
<path d="M248.361 35.1606C242.539 35.1606 236.955 37.4688 232.838 41.5773C228.721 45.6859 226.408 51.2583 226.408 57.0686C226.408 62.879 228.721 68.4513 232.838 72.5599C236.955 76.6684 242.539 78.9766 248.361 78.9766H453.476C459.298 78.9766 464.882 76.6684 468.999 72.5599C473.116 68.4513 475.429 62.879 475.429 57.0686C475.429 51.2583 473.116 45.6859 468.999 41.5773C464.882 37.4688 459.298 35.1606 453.476 35.1606H248.361Z" fill="#3F3D56"/>
<path d="M120.51 160.092C145.327 160.092 165.445 140.016 165.445 115.251C165.445 90.4853 145.327 70.4089 120.51 70.4089C95.6939 70.4089 75.5762 90.4853 75.5762 115.251C75.5762 140.016 95.6939 160.092 120.51 160.092Z" fill="#9E616A"/>
<path d="M109.016 157.897C108.824 157.475 108.632 157.052 108.441 156.627C108.515 156.629 108.588 156.64 108.661 156.642L109.016 157.897Z" fill="#2F2E41"/>
<path d="M74.3271 72.4481C76.5997 70.6389 79.2559 68.9742 82.1616 69.0678C85.0672 69.1612 88.0137 71.7801 87.4117 74.6184C92.7488 65.1881 101.244 57.9352 111.406 54.1326C121.567 50.33 132.747 50.2209 142.981 53.8243C150.203 56.3669 157.285 61.4537 158.944 68.9144C159.37 70.8296 159.461 72.9296 160.659 74.4848C162.17 76.4456 165.061 76.8892 167.441 76.1994C167.465 76.1925 167.489 76.1855 167.512 76.1784C167.915 76.0414 168.349 76.0279 168.758 76.1398C169.168 76.2516 169.535 76.4836 169.811 76.8057C170.088 77.1278 170.261 77.5253 170.308 77.9467C170.356 78.368 170.275 78.794 170.078 79.1693L168.034 82.9723C170.61 83.5453 173.287 83.4885 175.836 82.8067C176.259 82.6959 176.707 82.7185 177.117 82.8715C177.527 83.0245 177.879 83.3003 178.126 83.6612C178.373 84.022 178.502 84.4502 178.495 84.8871C178.488 85.3239 178.346 85.7479 178.088 86.101C171.35 95.3325 160.094 101.294 148.607 101.224C140.442 101.174 132.194 98.366 124.248 100.24C121.174 100.964 118.302 102.367 115.842 104.344C113.382 106.321 111.397 108.823 110.032 111.665C108.667 114.508 107.958 117.619 107.955 120.771C107.953 123.923 108.657 127.036 110.017 129.881C107.576 127.217 102.858 127.847 100.361 130.46C97.8638 133.072 97.2173 136.971 97.469 140.573C97.8536 146.081 100.016 151.271 102.296 156.323C83.1816 155.722 65.1024 142.342 59.0169 124.243C52.9059 106.07 59.3105 84.4026 74.3271 72.4481Z" fill="#2F2E41"/>
<path opacity="0.2" d="M44.2266 249.913L56.8296 318.343L64.3917 319L44.2266 249.913Z" fill="black"/>
<path opacity="0.2" d="M183.052 244.752L170.449 318.293L162.887 319L183.052 244.752Z" fill="black"/>
<path d="M85.0751 49.4182C82.6587 50.4252 80.1372 49.3216 79.0797 46.7944C78.0061 44.2286 79.0089 41.6239 81.464 40.6008C83.9195 39.5776 86.396 40.6838 87.4869 43.2911C88.5615 45.8592 87.5697 48.3787 85.0751 49.4182ZM80.4462 35.5503L78.5249 36.351C78.0449 36.5486 77.508 36.5593 77.0206 36.3809C76.5331 36.2024 76.1305 35.8479 75.8923 35.3874L75.7973 35.2019C73.73 31.4812 73.4932 26.9592 75.0975 21.7685C76.5836 17.1123 77.2009 13.8376 75.9595 10.8708C74.5243 7.44074 71.4595 6.36626 67.5512 7.92276C66.0354 8.55441 65.5531 8.54434 64.3602 9.72525C64.1007 9.98525 63.7914 10.1904 63.4508 10.3286C63.1101 10.4667 62.7451 10.535 62.3774 10.5293C62.022 10.5252 61.6711 10.4496 61.3455 10.3072C61.02 10.1647 60.7265 9.9583 60.4827 9.70024C60.0128 9.20293 59.7496 8.54622 59.7461 7.86273C59.7427 7.17924 59.9992 6.51991 60.464 6.01788C62.4691 3.92334 64.8874 2.26629 67.5664 1.15129C75.9636 -2.34787 80.1908 2.81814 82.1252 7.44124C84.0173 11.9632 82.953 16.1587 81.2428 21.5924C79.8097 26.1075 79.8932 29.4531 81.5211 32.7797C81.6386 33.0312 81.704 33.3038 81.7134 33.5811C81.7227 33.8585 81.6757 34.1348 81.5753 34.3936C81.4749 34.6524 81.3232 34.8882 81.1291 35.087C80.9351 35.2858 80.7028 35.4434 80.4462 35.5503L80.4462 35.5503Z" fill="#6C63FF"/>
<path d="M293.669 70.1685H252.859C252.729 70.1693 252.601 70.1446 252.481 70.0957C252.361 70.0468 252.251 69.9747 252.159 69.8835C252.067 69.7923 251.994 69.6839 251.945 69.5645C251.895 69.445 251.869 69.3169 251.869 69.1875C251.869 69.0581 251.895 68.93 251.945 68.8106C251.994 68.6911 252.067 68.5827 252.159 68.4915C252.251 68.4003 252.361 68.3282 252.481 68.2793C252.601 68.2304 252.729 68.2057 252.859 68.2066H293.669C293.929 68.2083 294.177 68.3124 294.36 68.4962C294.543 68.68 294.645 68.9285 294.645 69.1875C294.645 69.4465 294.543 69.695 294.36 69.8788C294.177 70.0626 293.929 70.1667 293.669 70.1685Z" fill="#6C63FF"/>
<path d="M345.439 70.4954H304.628C304.499 70.4963 304.37 70.4715 304.25 70.4226C304.13 70.3737 304.021 70.3016 303.929 70.2104C303.837 70.1193 303.764 70.0108 303.714 69.8914C303.664 69.7719 303.639 69.6438 303.639 69.5144C303.639 69.385 303.664 69.2569 303.714 69.1375C303.764 69.018 303.837 68.9096 303.929 68.8184C304.021 68.7272 304.13 68.6551 304.25 68.6062C304.37 68.5573 304.499 68.5326 304.628 68.5335H345.439C345.568 68.5326 345.697 68.5573 345.817 68.6062C345.937 68.6551 346.046 68.7272 346.138 68.8184C346.23 68.9096 346.303 69.018 346.353 69.1375C346.403 69.2569 346.428 69.385 346.428 69.5144C346.428 69.6438 346.403 69.7719 346.353 69.8914C346.303 70.0108 346.23 70.1193 346.138 70.2104C346.046 70.3016 345.937 70.3737 345.817 70.4226C345.697 70.4715 345.568 70.4963 345.439 70.4954V70.4954Z" fill="#6C63FF"/>
<path d="M397.21 70.8223H356.4C356.141 70.8205 355.892 70.7164 355.709 70.5326C355.526 70.3488 355.424 70.1003 355.424 69.8413C355.424 69.5823 355.526 69.3338 355.709 69.15C355.892 68.9663 356.141 68.8621 356.4 68.8604H397.21C397.34 68.8595 397.468 68.8842 397.589 68.9331C397.709 68.982 397.818 69.0541 397.91 69.1453C398.002 69.2365 398.075 69.3449 398.125 69.4644C398.174 69.5838 398.2 69.7119 398.2 69.8413C398.2 69.9707 398.174 70.0988 398.125 70.2183C398.075 70.3377 398.002 70.4462 397.91 70.5373C397.818 70.6285 397.709 70.7006 397.589 70.7495C397.468 70.7984 397.34 70.8232 397.21 70.8223H397.21Z" fill="#6C63FF"/>
<path d="M448.98 71.1494H408.17C407.91 71.1476 407.662 71.0435 407.479 70.8597C407.296 70.676 407.193 70.4275 407.193 70.1684C407.193 69.9094 407.296 69.6609 407.479 69.4772C407.662 69.2934 407.91 69.1893 408.17 69.1875H448.98C449.239 69.1893 449.488 69.2934 449.671 69.4772C449.854 69.6609 449.956 69.9094 449.956 70.1684C449.956 70.4275 449.854 70.676 449.671 70.8597C449.488 71.0435 449.239 71.1476 448.98 71.1494Z" fill="#6C63FF"/>
<path d="M273.175 61.1405C277.364 61.1405 280.76 57.7516 280.76 53.5712C280.76 49.3908 277.364 46.002 273.175 46.002C268.986 46.002 265.59 49.3908 265.59 53.5712C265.59 57.7516 268.986 61.1405 273.175 61.1405Z" fill="#6C63FF"/>
<path d="M325.257 61.1405C329.446 61.1405 332.842 57.7516 332.842 53.5712C332.842 49.3908 329.446 46.002 325.257 46.002C321.068 46.002 317.672 49.3908 317.672 53.5712C317.672 57.7516 321.068 61.1405 325.257 61.1405Z" fill="#6C63FF"/>
<path d="M377.341 61.1405C381.53 61.1405 384.926 57.7516 384.926 53.5712C384.926 49.3908 381.53 46.002 377.341 46.002C373.152 46.002 369.756 49.3908 369.756 53.5712C369.756 57.7516 373.152 61.1405 377.341 61.1405Z" fill="#6C63FF"/>
<path d="M429.423 61.1405C433.612 61.1405 437.008 57.7516 437.008 53.5712C437.008 49.3908 433.612 46.002 429.423 46.002C425.234 46.002 421.838 49.3908 421.838 53.5712C421.838 57.7516 425.234 61.1405 429.423 61.1405Z" fill="#6C63FF"/>
</g>
<defs>
<clipPath id="clip0_305_22">
<rect width="481" height="319" fill="white"/>
</clipPath>
</defs>
</svg>
