<svg width="88" height="74" viewBox="0 0 88 74" fill="none" xmlns="http://www.w3.org/2000/svg">
<path d="M47.0077 52.8H8.8V38.5172L17.4604 28.5341C17.8981 28.0365 18.4386 27.6398 19.0446 27.3715C19.6506 27.1032 20.3076 26.9697 20.9703 26.9802C21.6329 26.9907 22.2854 27.1449 22.8826 27.4322C23.4798 27.7196 24.0075 28.1332 24.4292 28.6444L31.8853 37.8286L46.0085 20.7281C46.439 20.2181 46.9756 19.8081 47.5808 19.5267C48.186 19.2454 48.8454 19.0994 49.5128 19.099C50.1802 19.0986 50.8397 19.2438 51.4453 19.5244C52.0509 19.805 52.588 20.2144 53.0191 20.7239L63.2017 33.0505C58.784 34.2498 54.8501 36.7967 51.9476 40.3365C49.0451 43.8763 47.3183 48.2329 47.0077 52.8ZM32.5453 11.0258C30.9894 11.0258 29.4972 11.6439 28.397 12.7441C27.2968 13.8443 26.6787 15.3365 26.6787 16.8925C26.6787 18.4484 27.2968 19.9406 28.397 21.0408C29.4972 22.1411 30.9894 22.7591 32.5453 22.7591C34.1013 22.7591 35.5935 22.1411 36.6937 21.0408C37.7939 19.9406 38.412 18.4484 38.412 16.8925C38.412 15.3365 37.7939 13.8443 36.6937 12.7441C35.5935 11.6439 34.1013 11.0258 32.5453 11.0258ZM47.0077 55.7333H7.33333C6.94435 55.7333 6.5713 55.5788 6.29624 55.3038C6.02119 55.0287 5.86667 54.6557 5.86667 54.2667V7.33333C5.86667 6.94435 6.02119 6.5713 6.29624 6.29624C6.5713 6.02119 6.94435 5.86667 7.33333 5.86667H68.9333C69.3223 5.86667 69.6954 6.02119 69.9704 6.29624C70.2455 6.5713 70.4 6.94435 70.4 7.33333V32.341C72.4018 32.4724 74.376 32.8793 76.2667 33.5501V4.4C76.2654 3.23344 75.8014 2.11503 74.9765 1.29015C74.1516 0.465263 73.0332 0.0012811 71.8667 0H4.4C3.23344 0.0012811 2.11503 0.465263 1.29015 1.29015C0.465263 2.11503 0.0012811 3.23344 0 4.4V57.2C0.0012811 58.3666 0.465263 59.485 1.29015 60.3099C2.11503 61.1347 3.23344 61.5987 4.4 61.6H48.2168C47.5459 59.7093 47.1391 57.7352 47.0077 55.7333ZM68.9333 35.2C65.1623 35.2 61.476 36.3182 58.3405 38.4133C55.205 40.5084 52.7611 43.4862 51.318 46.9702C49.8749 50.4541 49.4973 54.2878 50.233 57.9864C50.9687 61.685 52.7846 65.0823 55.4512 67.7488C58.1177 70.4154 61.515 72.2313 65.2136 72.967C68.9122 73.7027 72.7459 73.3251 76.2298 71.882C79.7138 70.4389 82.6916 67.995 84.7867 64.8595C86.8818 61.724 88 58.0377 88 54.2667C87.9943 49.2116 85.9837 44.3653 82.4092 40.7908C78.8347 37.2163 73.9884 35.2057 68.9333 35.2ZM76.2667 54.2667H73.3333V66C73.3333 66.389 73.1788 66.762 72.9038 67.0371C72.6287 67.3121 72.2557 67.4667 71.8667 67.4667H66C65.611 67.4667 65.238 67.3121 64.9629 67.0371C64.6879 66.762 64.5333 66.389 64.5333 66V54.2309L61.6179 54.2667C61.3473 54.2689 61.0814 54.1964 60.8494 54.0572C60.6174 53.918 60.4284 53.7174 60.3031 53.4777C60.1778 53.2379 60.1211 52.9681 60.1393 52.6982C60.1575 52.4282 60.2498 52.1685 60.4061 51.9477L67.7395 41.6811C67.882 41.5009 68.0634 41.3553 68.2702 41.2553C68.4769 41.1552 68.7036 41.1032 68.9333 41.1032C69.163 41.1032 69.3898 41.1552 69.5965 41.2553C69.8033 41.3553 69.9847 41.5009 70.1272 41.6811L77.4605 51.9477C77.6134 52.1679 77.7034 52.4255 77.721 52.693C77.7386 52.9604 77.683 53.2276 77.5603 53.4659C77.4377 53.7042 77.2524 53.9046 77.0246 54.0457C76.7967 54.1868 76.5347 54.2631 76.2667 54.2667Z" fill="white"/>
</svg>
