<svg width="30" height="36" viewBox="0 0 30 36" fill="none" xmlns="http://www.w3.org/2000/svg">
<path d="M24.8984 18.9922C24.8828 16.125 26.1797 13.9609 28.8047 12.3672C27.3359 10.2656 25.1172 9.10938 22.1875 8.88281C19.4141 8.66406 16.3828 10.5 15.2734 10.5C14.1016 10.5 11.4141 8.96094 9.30469 8.96094C4.94531 9.03125 0.3125 12.4375 0.3125 19.3672C0.3125 21.4141 0.6875 23.5286 1.4375 25.7109C2.4375 28.5781 6.04688 35.6094 9.8125 35.4922C11.7813 35.4453 13.1719 34.0938 15.7344 34.0938C18.2188 34.0938 19.5078 35.4922 21.7031 35.4922C25.5 35.4375 28.7656 29.0469 29.7188 26.1719C24.625 23.7734 24.8984 19.1406 24.8984 18.9922ZM20.4766 6.16406C22.6094 3.63281 22.4141 1.32813 22.3516 0.5C20.4688 0.609375 18.2891 1.78125 17.0469 3.22656C15.6797 4.77344 14.875 6.6875 15.0469 8.84375C17.0859 9 18.9453 7.95313 20.4766 6.16406Z" fill="#4E4848"/>
</svg>
