<svg width="50" height="40" viewBox="0 0 50 40" fill="none" xmlns="http://www.w3.org/2000/svg">
<path d="M49.9071 5.23167C49.6899 3.77978 48.9597 2.45376 47.8489 1.49397C46.7381 0.534189 45.3201 0.00417074 43.8521 0H6.14875C4.68072 0.00417074 3.26277 0.534189 2.15194 1.49397C1.0411 2.45376 0.310921 3.77978 0.09375 5.23167L25.0004 21.3483L49.9071 5.23167Z" fill="black"/>
<path d="M25.905 24.7333C25.6354 24.9076 25.3211 25.0004 25 25.0004C24.6789 25.0004 24.3646 24.9076 24.095 24.7333L0 9.14327V33.8516C0.00176465 35.4817 0.6501 37.0445 1.80275 38.1972C2.95541 39.3498 4.51824 39.9982 6.14833 39.9999H43.8517C45.4818 39.9982 47.0446 39.3498 48.1972 38.1972C49.3499 37.0445 49.9982 35.4817 50 33.8516V9.1416L25.905 24.7333Z" fill="black"/>
</svg>
