<svg width="88" height="125" viewBox="0 0 88 125" fill="none" xmlns="http://www.w3.org/2000/svg">
<path d="M69.8761 109.214L88.0002 78.812V50.1115C88.0002 48.0947 86.3586 46.4531 84.3418 46.4531C82.3243 46.4531 80.6827 48.0947 80.6827 50.1115V72.7688L60.9896 93.1367L57.2829 89.5528L67.8102 78.6656C69.1262 77.1234 69.0416 74.7863 67.5786 73.3469C66.0512 71.8443 63.5792 71.8571 62.0685 73.3777L46.5776 88.9653V115.591H69.8754V109.214H69.8761Z" fill="#47B0D3"/>
<path d="M41.4225 115.591V88.9653L25.9316 73.3777C24.421 71.8577 21.949 71.8436 20.4216 73.3469C18.9586 74.7863 18.874 77.1234 20.1899 78.6656L30.7166 89.5528L27.0106 93.1367L7.31744 72.7688V50.1115C7.31744 48.0947 5.6759 46.4531 3.65839 46.4531C1.64154 46.4531 0 48.0947 0 50.1115V78.812L18.1241 109.214V115.591H41.4225Z" fill="#47B0D3"/>
<path d="M41 55.4028L33.0061 54.8569L29.9956 47L26.9851 54.8569L19 55.4028L25.1245 60.8051L23.1148 69L29.9956 64.4818L36.8765 69L34.8668 60.8051L41 55.4028Z" fill="#47B0D3"/>
<path d="M70 55.4028L62.0061 54.8569L58.9956 47L55.9851 54.8569L48 55.4028L54.1245 60.8051L52.1148 69L58.9956 64.4818L65.8765 69L63.8668 60.8051L70 55.4028Z" fill="#47B0D3"/>
<path d="M30 29.4028L22.0061 28.8569L18.9956 21L15.9851 28.8569L8 29.4028L14.1245 34.8051L12.1148 43L18.9956 38.4818L25.8765 43L23.8668 34.8051L30 29.4028Z" fill="#47B0D3"/>
<path d="M81 29.4028L73.0061 28.8569L69.9956 21L66.9851 28.8569L59 29.4028L65.1245 34.8051L63.1148 43L69.9956 38.4818L76.8765 43L74.8668 34.8051L81 29.4028Z" fill="#47B0D3"/>
<path d="M55 8.40283L47.0061 7.85687L43.9956 0L40.9851 7.85687L33 8.40283L39.1245 13.8051L37.1148 22L43.9956 17.4818L50.8765 22L48.8668 13.8051L55 8.40283Z" fill="#47B0D3"/>
</svg>
