<svg width="50" height="50" viewBox="0 0 50 50" fill="none" xmlns="http://www.w3.org/2000/svg">
<path d="M20.706 29.294C15.9339 24.5219 14.8564 19.7498 14.6133 17.8378C14.5454 17.3092 14.7273 16.779 15.1055 16.4034L18.9673 12.5433C19.5354 11.9756 19.6362 11.0908 19.2104 10.4098L13.0616 0.862082C12.5906 0.10803 11.6233 -0.164115 10.8282 0.233671L0.957181 4.88254C0.314166 5.19916 -0.0640466 5.88235 0.00896068 6.59537C0.526172 11.5089 2.66829 23.5875 14.5383 35.4583C26.4083 47.3292 38.4852 49.4704 43.4012 49.9877C44.1143 50.0607 44.7975 49.6824 45.1141 49.0394L49.7629 39.1685C50.1592 38.375 49.8889 37.4104 49.138 36.9384L39.5903 30.7914C38.9097 30.3651 38.0249 30.4652 37.4568 31.0327L33.5967 34.8946C33.2211 35.2728 32.6909 35.4547 32.1623 35.3868C30.2503 35.1437 25.4782 34.0662 20.706 29.294Z" fill="black"/>
<path d="M39.6557 26.7225C38.7035 26.7225 37.9317 25.9506 37.9317 24.9985C37.9236 17.8606 32.1392 12.0763 25.0014 12.0682C24.0492 12.0682 23.2773 11.2963 23.2773 10.3442C23.2773 9.39199 24.0492 8.62012 25.0014 8.62012C34.0428 8.63009 41.3698 15.9571 41.3797 24.9985C41.3797 25.9506 40.6079 26.7225 39.6557 26.7225Z" fill="black"/>
<path d="M48.2759 26.7226C47.3237 26.7226 46.5518 25.9507 46.5518 24.9985C46.5385 13.1021 36.8979 3.46138 25.0014 3.44807C24.0492 3.44807 23.2773 2.6762 23.2773 1.72404C23.2773 0.771878 24.0492 0 25.0014 0C38.8014 0.0152024 49.9847 11.1985 49.9999 24.9985C49.9999 25.4558 49.8183 25.8943 49.495 26.2176C49.1716 26.5409 48.7331 26.7226 48.2759 26.7226Z" fill="black"/>
</svg>
