<svg width="88" height="88" viewBox="0 0 88 88" fill="none" xmlns="http://www.w3.org/2000/svg">
<path d="M86.488 61.4469L76.6056 51.5644C87.9409 27.7785 70.5181 0 44.0001 0C17.5282 0 0.0366443 27.7308 11.3946 51.5644L1.51219 61.4469C-1.23815 64.1972 -0.068714 68.8909 3.66062 70.0267L14.6379 73.3609L17.9721 84.3382C19.1032 88.0527 23.7873 89.2462 26.5519 86.4866L40.9787 72.0598C42.962 72.2243 44.9705 72.2298 47.0217 72.0598L61.4485 86.4866C64.2031 89.2412 68.8948 88.0603 70.0283 84.3382L73.3625 73.3609L84.3398 70.0267C88.0749 68.8892 89.2337 64.1926 86.488 61.4469ZM22.9066 82.8396L19.5707 71.8623C19.0706 70.2123 17.7866 68.9284 16.1368 68.4267L5.15954 65.0925L14.0453 56.2068C18.8713 63.3703 26.1965 68.7172 34.7608 70.9859L22.9066 82.8396ZM17.771 52.4805C4.81751 31.8525 19.8882 5.15607 44.0001 5.15607C68.3068 5.15607 83.0663 32.0376 70.2292 52.4804C58.0747 71.8645 29.9237 71.862 17.771 52.4805ZM71.8637 68.4265C70.2137 68.9284 68.9298 70.2123 68.4281 71.8621L65.0939 82.8394L53.2401 70.9856C61.8044 68.7168 69.1294 63.37 73.9556 56.2064L82.8414 65.0922L71.8637 68.4265Z" fill="#47B0D3"/>
<path d="M44.0003 10.311C26.7475 10.311 14.2746 27.0578 19.3404 43.6178C23.6565 57.7606 38.9669 65.2752 52.6626 60.375C62.6377 56.805 69.7808 47.2618 69.7808 36.0915C69.7808 21.8761 58.2157 10.311 44.0003 10.311ZM30.0961 51.3088C16.1746 38.6021 25.333 15.4671 44.0003 15.4671C56.7047 15.4671 66.3756 26.8987 64.3686 39.326C61.8436 55.4345 42.2368 62.4186 30.0961 51.3088Z" fill="#47B0D3"/>
<path d="M51.8216 29.1194L40.458 37.5543L36.5214 33.3599C35.5468 32.3214 33.9156 32.2697 32.8773 33.2442C31.8392 34.2186 31.7872 35.8502 32.7618 36.8883L38.2702 42.7576C39.1667 43.7131 40.6362 43.8432 41.6865 43.0636L54.8948 33.2597C56.0381 32.4111 56.2768 30.7962 55.4283 29.6529C54.5797 28.5097 52.965 28.2708 51.8216 29.1194Z" fill="#47B0D3"/>
</svg>
