<svg width="88" height="88" viewBox="0 0 88 88" fill="none" xmlns="http://www.w3.org/2000/svg">
<path d="M73.9706 49.3417L75.9545 47.1147L86.8666 34.8619C87.6836 33.9441 88.0878 32.7309 87.9837 31.5069C87.8804 30.283 87.2775 29.1551 86.3174 28.3884C84.3569 26.9321 81.6029 27.2423 80.0157 29.0987L70.2638 40.0477C70.0013 40.3431 69.6314 40.5223 69.2366 40.5452C68.8412 40.568 68.4538 40.433 68.1584 40.1698L59.2477 32.2334L53.6786 27.2745C53.3832 27.0113 52.9951 26.8764 52.6003 26.8992C52.2049 26.922 51.8356 27.1013 51.5724 27.3967L46.6129 32.9645L5.11717 79.5567C3.45616 81.348 3.46623 84.1195 5.13933 85.8987C6.01079 86.7648 7.20048 87.2354 8.42845 87.1985C9.65642 87.1615 10.8159 86.6217 11.6337 85.7046L52.3029 40.0315C52.5661 39.7355 52.936 39.5569 53.3308 39.534C53.7256 39.5112 54.1136 39.6455 54.409 39.9087L63.3197 47.8451L65.548 49.8291C68.0087 52.0198 71.7792 51.8016 73.9706 49.3417Z" fill="#47B0D3"/>
<path d="M12.8602 30.8583C14.8213 32.3145 17.5747 32.0043 19.1618 30.148L28.9137 19.199C29.1769 18.9036 29.5462 18.7243 29.9416 18.7015C30.3364 18.6787 30.7245 18.8136 31.0199 19.0768L41.0443 28.0049C41.3398 28.2681 41.7278 28.403 42.1226 28.3802C42.5174 28.3574 42.8873 28.1781 43.1505 27.8827L47.1177 23.4274C47.3809 23.132 47.5158 22.7439 47.493 22.3491C47.4702 21.9544 47.2909 21.5844 46.9955 21.3212L35.8586 11.4028L33.6295 9.41755C31.1696 7.22682 27.3984 7.44502 25.207 9.90498L23.2237 12.1333L12.3117 24.3848C11.4939 25.3026 11.0898 26.5158 11.1938 27.7397C11.2979 28.9636 11.9001 30.0916 12.8602 30.8583Z" fill="#47B0D3"/>
<path d="M47.1484 79.5653C45.4874 81.3565 45.4975 84.128 47.1706 85.9072C48.0427 86.772 49.2324 87.2406 50.4604 87.2023C51.6883 87.1634 52.8465 86.6222 53.6629 85.7044L64.583 73.4543L66.5663 71.228C67.619 70.0464 68.1588 68.4948 68.0675 66.915C67.9762 65.3346 67.2605 63.8562 66.0788 62.8035L63.8519 60.8202L52.7129 50.8998C52.4175 50.6366 52.0294 50.5016 51.6346 50.5245C51.2399 50.548 50.8699 50.7265 50.6074 51.022L46.6395 55.4773C46.3763 55.7727 46.2414 56.1608 46.2642 56.5555C46.2877 56.9503 46.4663 57.3202 46.7617 57.5834L56.7862 66.5102C57.0816 66.7734 57.2602 67.1433 57.283 67.5381C57.3058 67.9328 57.1709 68.3209 56.907 68.6163L47.1484 79.5653Z" fill="#47B0D3"/>
<path d="M57.6909 21.5301C62.6115 25.9136 70.1538 25.4771 74.5373 20.5559C78.9201 15.6353 78.4844 8.09293 73.5631 3.70945C68.6425 -0.673362 61.0995 -0.237633 56.7167 4.68363C54.6119 7.04691 53.5316 10.1494 53.7142 13.3089C53.8968 16.4678 55.3276 19.4253 57.6909 21.5301Z" fill="#47B0D3"/>
<path d="M1.49182 40.9586H13.4237C14.2475 40.9586 14.9155 40.2912 14.9155 39.4674C14.9155 38.6436 14.2475 37.9756 13.4237 37.9756H1.49182C0.66803 37.9756 0 38.6436 0 39.4674C0 40.2912 0.66803 40.9586 1.49182 40.9586Z" fill="#47B0D3"/>
<path d="M5.96582 45.4335C5.96582 46.2573 6.63385 46.9253 7.45764 46.9253H19.3895C20.2133 46.9253 20.8813 46.2573 20.8813 45.4335C20.8813 44.6097 20.2133 43.9417 19.3895 43.9417H7.45764C6.63385 43.9417 5.96582 44.6097 5.96582 45.4335Z" fill="#47B0D3"/>
</svg>
