<svg width="1440" height="232" viewBox="0 0 1440 232" fill="none" xmlns="http://www.w3.org/2000/svg">
<path d="M0 0.700195L34.3 13.5502C68.6 26.4002 137 52.1002 206 69.2068C274.3 86.6346 343 94.6658 411 82.0568C480 68.9658 549 35.2346 617 43.5068C685.7 52.1002 754 103.5 823 107.757C891.4 112.335 960 68.9658 1029 69.2068C1097.1 68.9658 1166 112.335 1234 137.794C1302.9 163.735 1371 171.766 1406 176.344L1440 180.6V232H1405.7C1371.4 232 1303 232 1234 232C1165.7 232 1097 232 1029 232C960 232 891 232 823 232C754.3 232 686 232 617 232C548.6 232 480 232 411 232C342.9 232 274 232 206 232C137.1 232 69 232 34 232H0V0.700195Z" fill="#00A4DE"/>
</svg>
