<svg width="1440" height="131" viewBox="0 0 1440 131" fill="none" xmlns="http://www.w3.org/2000/svg">
<path d="M1440 0L1405.7 7.24758C1371.4 14.4952 1303 28.9903 1234 38.6387C1165.7 48.4682 1097 52.9979 1029 45.8862C960 38.5028 891 19.4779 823 24.1435C754.3 28.9903 686 57.9806 617 60.3814C548.6 62.9633 480 38.5028 411 38.6387C342.9 38.5028 274 62.9633 206 77.3226C137.1 91.9537 69 96.4834 34 99.0653L0 101.466V130.456H34.3C68.6001 130.456 137 130.456 206 130.456C274.3 130.456 343 130.456 411 130.456C480 130.456 549 130.456 617 130.456C685.7 130.456 754 130.456 823 130.456C891.4 130.456 960 130.456 1029 130.456C1097.1 130.456 1166 130.456 1234 130.456C1302.9 130.456 1371 130.456 1406 130.456H1440V0Z" fill="#00A4DE"/>
</svg>
