<svg width="1440" height="131" viewBox="0 0 1440 131" fill="none" xmlns="http://www.w3.org/2000/svg">
<path d="M1440 130.457L1405.7 123.209C1371.4 115.961 1303 101.466 1234 91.8179C1165.7 81.9884 1097 77.4586 1029 84.5703C960 91.9538 891 110.979 823 106.313C754.3 101.466 686 72.4759 617 70.0751C548.6 67.4932 480 91.9538 411 91.8179C342.9 91.9538 274 67.4932 206 53.1339C137.1 38.5029 69 33.9731 34 31.3912L0 28.9904V0.00012207H34.3C68.6001 0.00012207 137 0.00012207 206 0.00012207C274.3 0.00012207 343 0.00012207 411 0.00012207C480 0.00012207 549 0.00012207 617 0.00012207C685.7 0.00012207 754 0.00012207 823 0.00012207C891.4 0.00012207 960 0.00012207 1029 0.00012207C1097.1 0.00012207 1166 0.00012207 1234 0.00012207C1302.9 0.00012207 1371 0.00012207 1406 0.00012207H1440V130.457Z" fill="#00A4DE"/>
</svg>
