<svg width="50" height="50" viewBox="0 0 50 50" fill="none" xmlns="http://www.w3.org/2000/svg">
<path d="M23.5353 49.5463V38.917C20.8734 39.0185 18.2371 39.3938 15.7285 40.016C16.1325 40.9922 16.5746 41.9272 17.0534 42.8099C18.9641 46.3309 21.3388 48.7646 23.5353 49.5463Z" fill="black"/>
<path d="M32.9468 42.8099C33.4255 41.9276 33.8676 40.9922 34.2716 40.016C31.7631 39.3938 29.1267 39.0185 26.4648 38.917V49.5463C28.6613 48.7646 31.036 46.3309 32.9468 42.8099Z" fill="black"/>
<path d="M23.5352 35.9855V26.2378H12.8525C12.9861 30.0433 13.6353 33.8268 14.7225 37.252C17.5526 36.526 20.5327 36.0923 23.5352 35.9855Z" fill="black"/>
<path d="M23.5352 23.3087V13.561C20.5327 13.4542 17.5526 13.0205 14.7225 12.2949C13.6353 15.7201 12.9861 19.5032 12.8525 23.3087H23.5352Z" fill="black"/>
<path d="M37.1049 8.70381C38.8867 8.103 40.5759 7.37172 42.1292 6.52142C39.4017 3.95985 36.1024 1.99986 32.4448 0.858887C33.5404 2.09676 34.5769 3.59822 35.5214 5.33887C36.1016 6.40736 36.6295 7.5327 37.1049 8.70381Z" fill="black"/>
<path d="M17.0534 6.73637C16.5746 7.61909 16.1325 8.55408 15.7285 9.53026C18.2371 10.1524 20.8734 10.5278 23.5353 10.6293V0C21.3388 0.781631 18.9641 3.21541 17.0534 6.73637Z" fill="black"/>
<path d="M26.4648 26.2378V35.9855C29.4678 36.0927 32.4474 36.526 35.2776 37.252C36.3647 33.8268 37.014 30.0433 37.1479 26.2378H26.4648Z" fill="black"/>
<path d="M26.4648 13.561V23.3087H37.1475C37.014 19.5032 36.3647 15.7201 35.2776 12.2949C32.4474 13.0205 29.4678 13.4542 26.4648 13.561Z" fill="black"/>
<path d="M11.9022 38.0897C10.7311 34.4024 10.0506 30.3668 9.91974 26.2378H0C0.320816 31.7729 2.44713 36.8308 5.79758 40.8309C7.66373 39.7479 9.72099 38.8286 11.9022 38.0897Z" fill="black"/>
<path d="M37.1049 40.8423C36.6292 42.0134 36.1012 43.1387 35.5214 44.2076C34.5769 45.9483 33.5404 47.4493 32.4448 48.6872C36.1024 47.5462 39.4017 45.5862 42.1296 43.0247C40.5759 42.1744 38.8867 41.4431 37.1049 40.8423Z" fill="black"/>
<path d="M12.8949 40.8423C11.1131 41.4431 9.42395 42.1744 7.87061 43.0247C10.5981 45.5866 13.8974 47.5462 17.555 48.6876C16.4598 47.4493 15.4233 45.9483 14.4784 44.2076C13.8982 43.1387 13.3703 42.0134 12.8949 40.8423Z" fill="black"/>
<path d="M38.0977 11.4567C39.2688 15.144 39.9493 19.1795 40.0802 23.3086H49.9999C49.6791 17.7734 47.5528 12.7159 44.2023 8.71582C42.3362 9.79881 40.2789 10.7178 38.0977 11.4567Z" fill="black"/>
<path d="M38.0977 38.0897C40.2789 38.8286 42.3362 39.7475 44.2023 40.8305C47.5528 36.8304 49.6791 31.7725 49.9999 26.2378H40.0802C39.9493 30.3668 39.2688 34.4024 38.0977 38.0897Z" fill="black"/>
<path d="M26.4648 0V10.6293C29.1267 10.5278 31.7631 10.1524 34.2716 9.53064C33.8676 8.55408 33.4259 7.61909 32.9468 6.73637C31.036 3.21541 28.6613 0.781631 26.4648 0Z" fill="black"/>
<path d="M11.9022 11.4567C9.72099 10.7178 7.66373 9.79881 5.79758 8.71582C2.44675 12.7159 0.320816 17.7738 0 23.3086H9.91974C10.0506 19.1795 10.7311 15.144 11.9022 11.4567Z" fill="black"/>
<path d="M12.8953 8.70381C13.371 7.5327 13.899 6.40736 14.4788 5.33887C15.4233 3.59784 16.4598 2.09676 17.5554 0.858887C13.8978 1.99986 10.5985 3.95985 7.87061 6.52142C9.42433 7.37172 11.1135 8.103 12.8953 8.70381Z" fill="black"/>
</svg>
