<svg width="38" height="51" viewBox="0 0 38 51" fill="none" xmlns="http://www.w3.org/2000/svg">
<path d="M19.0003 0C9.00422 0 0.666992 8.05222 0.666992 18.3333C0.666992 22.2447 1.84233 25.7324 4.09799 29.0007L17.5973 50.0651C18.2522 51.0891 19.7498 51.0871 20.4033 50.0651L33.9612 28.929C36.1683 25.8089 37.3337 22.1452 37.3337 18.3333C37.3337 8.22433 29.1093 0 19.0003 0ZM19.0003 26.6667C14.4056 26.6667 10.667 22.9281 10.667 18.3333C10.667 13.7386 14.4056 10 19.0003 10C23.5951 10 27.3337 13.7386 27.3337 18.3333C27.3337 22.9281 23.5951 26.6667 19.0003 26.6667Z" fill="#84C8FF"/>
</svg>
