<svg width="50" height="50" viewBox="0 0 50 50" fill="none" xmlns="http://www.w3.org/2000/svg">
<path d="M7.32812 17.1197H42.8773V42.9818H7.32812V17.1197Z" fill="#95A5A5"/>
<path d="M39.6553 18.6284H45.6897V41.1862H39.6553V18.6284Z" fill="#D1D4D1"/>
<path d="M10.345 40.7845H4.31055V19.418H10.345V40.7845Z" fill="#D1D4D1"/>
<path d="M37.9307 16.6887H47.4132V18.844C47.4132 19.7962 46.6415 20.5679 45.6894 20.5679H39.6549C38.7024 20.5679 37.9307 19.7962 37.9307 18.844V16.6887Z" fill="#BDC3C7"/>
<path d="M39.6549 39.5334H45.6894C46.6415 39.5334 47.4132 40.3055 47.4132 41.2576V43.4129H37.9307V41.2576C37.9307 40.3055 38.7024 39.5334 39.6549 39.5334Z" fill="#BDC3C7"/>
<path d="M10.3443 20.5678H4.3098C3.35765 20.5678 2.58594 19.7961 2.58594 18.844V16.6887H12.0685V18.844C12.0685 19.7961 11.2968 20.5678 10.3443 20.5678Z" fill="#BDC3C7"/>
<path d="M12.0685 43.4129H2.58594V41.2576C2.58594 40.3055 3.35765 39.5334 4.3098 39.5334H10.3443C11.2968 39.5334 12.0685 40.3055 12.0685 41.2576V43.4129Z" fill="#BDC3C7"/>
<path d="M1.72461 12.5508H49.1382V16.2576C49.1382 16.7337 48.7522 17.1197 48.2761 17.1197H2.58673C2.11066 17.1197 1.72461 16.7337 1.72461 16.2576V12.5508Z" fill="#285680"/>
<path d="M2.58673 42.9818H48.2761C48.7522 42.9818 49.1382 43.3679 49.1382 43.8439V48.1542H1.72461V43.8439C1.72461 43.3679 2.11066 42.9818 2.58673 42.9818Z" fill="#285680"/>
<path d="M49.1379 13.6716H0.862122C0.386048 13.6716 4.45704e-07 13.2855 4.45704e-07 12.8095V8.27227C-0.000381024 7.89537 0.244141 7.56197 0.603486 7.44905L24.2336 0.116444C24.733 -0.0388145 25.267 -0.0388145 25.7664 0.116444L49.3965 7.44905C49.7559 7.56197 50.0004 7.89537 50 8.27227V12.8095C50 13.2855 49.614 13.6716 49.1379 13.6716Z" fill="#4482C3"/>
<path d="M3.44824 10.2231V10.1773L24.7415 3.56798C24.9078 3.51648 25.0856 3.51648 25.2519 3.56798L46.552 10.1773V10.2231H3.44824Z" fill="#285680"/>
<path d="M34.4827 30.0508C34.4827 35.288 30.2374 39.5333 25.0002 39.5333C19.763 39.5333 15.5176 35.288 15.5176 30.0508C15.5176 24.8136 19.763 20.5678 25.0002 20.5678C30.2374 20.5678 34.4827 24.8136 34.4827 30.0508Z" fill="#7ED09E"/>
<path d="M24.9999 30.9129C23.0956 30.9129 21.5518 29.3691 21.5518 27.4644C21.5518 25.5601 23.0956 24.0163 24.9999 24.0163C26.9042 24.0163 28.448 25.5601 28.448 27.4644C28.448 27.9405 28.0623 28.3265 27.5862 28.3265C27.1102 28.3265 26.7241 27.9405 26.7241 27.4644C26.7241 26.5123 25.952 25.7405 24.9999 25.7405C24.0477 25.7405 23.2756 26.5123 23.2756 27.4644C23.2756 28.4169 24.0477 29.1886 24.9999 29.1886C25.4759 29.1886 25.862 29.5747 25.862 30.0508C25.862 30.5268 25.4759 30.9129 24.9999 30.9129Z" fill="#24AE5F"/>
<path d="M24.9999 36.0853C23.0956 36.0853 21.5518 34.5414 21.5518 32.6371C21.5518 32.1607 21.9374 31.775 22.4135 31.775C22.89 31.775 23.2756 32.1607 23.2756 32.6371C23.2756 33.5893 24.0477 34.361 24.9999 34.361C25.952 34.361 26.7241 33.5893 26.7241 32.6371C26.7241 31.6846 25.952 30.9129 24.9999 30.9129C24.5238 30.9129 24.1377 30.5269 24.1377 30.0508C24.1377 29.5747 24.5238 29.1887 24.9999 29.1887C26.9042 29.1887 28.448 30.7325 28.448 32.6371C28.448 34.5414 26.9042 36.0853 24.9999 36.0853Z" fill="#24AE5F"/>
<path d="M24.9998 36.9474C24.5237 36.9474 24.1377 36.5613 24.1377 36.0852V24.0163C24.1377 23.5402 24.5237 23.1542 24.9998 23.1542C25.4759 23.1542 25.8619 23.5402 25.8619 24.0163V36.0852C25.8619 36.5613 25.4759 36.9474 24.9998 36.9474Z" fill="#24AE5F"/>
<path d="M0.862122 46.4299H49.1379C49.614 46.4299 50 46.816 50 47.2921V49.0163C50 49.4924 49.614 49.8784 49.1379 49.8784H0.862122C0.386047 49.8784 0 49.4924 0 49.0163V47.2921C0 46.816 0.386047 46.4299 0.862122 46.4299Z" fill="#4482C3"/>
</svg>
