<svg width="50" height="48" viewBox="0 0 50 48" fill="none" xmlns="http://www.w3.org/2000/svg">
<path d="M3.12533 8.33333V2.08333H9.37533C9.65159 2.08333 9.91654 1.97359 10.1119 1.77824C10.3072 1.58289 10.417 1.31793 10.417 1.04167C10.417 0.765399 10.3072 0.500447 10.1119 0.305097C9.91654 0.109747 9.65159 0 9.37533 0H2.08366C1.80739 0 1.54244 0.109747 1.34709 0.305097C1.15174 0.500447 1.04199 0.765399 1.04199 1.04167V8.33333C1.04199 8.6096 1.15174 8.87455 1.34709 9.0699C1.54244 9.26525 1.80739 9.375 2.08366 9.375C2.35993 9.375 2.62488 9.26525 2.82023 9.0699C3.01558 8.87455 3.12533 8.6096 3.12533 8.33333Z" fill="#93CEFF"/>
<path d="M40.6247 2.08333H46.8747V8.33333C46.8747 8.6096 46.9844 8.87455 47.1798 9.0699C47.3751 9.26525 47.6401 9.375 47.9163 9.375C48.1926 9.375 48.4576 9.26525 48.6529 9.0699C48.8483 8.87455 48.958 8.6096 48.958 8.33333V1.04167C48.958 0.765399 48.8483 0.500447 48.6529 0.305097C48.4576 0.109747 48.1926 0 47.9163 0H40.6247C40.3484 0 40.0835 0.109747 39.8881 0.305097C39.6928 0.500447 39.583 0.765399 39.583 1.04167C39.583 1.31793 39.6928 1.58289 39.8881 1.77824C40.0835 1.97359 40.3484 2.08333 40.6247 2.08333Z" fill="#93CEFF"/>
<path d="M9.37533 45.8332H3.12533V39.5832C3.12533 39.3069 3.01558 39.042 2.82023 38.8466C2.62488 38.6512 2.35993 38.5415 2.08366 38.5415C1.80739 38.5415 1.54244 38.6512 1.34709 38.8466C1.15174 39.042 1.04199 39.3069 1.04199 39.5832V46.8748C1.04199 47.1511 1.15174 47.4161 1.34709 47.6114C1.54244 47.8068 1.80739 47.9165 2.08366 47.9165H9.37533C9.65159 47.9165 9.91654 47.8068 10.1119 47.6114C10.3072 47.4161 10.417 47.1511 10.417 46.8748C10.417 46.5986 10.3072 46.3336 10.1119 46.1383C9.91654 45.9429 9.65159 45.8332 9.37533 45.8332Z" fill="#93CEFF"/>
<path d="M46.8747 39.5832V45.8332H40.6247C40.3484 45.8332 40.0835 45.9429 39.8881 46.1383C39.6928 46.3336 39.583 46.5986 39.583 46.8748C39.583 47.1511 39.6928 47.4161 39.8881 47.6114C40.0835 47.8068 40.3484 47.9165 40.6247 47.9165H47.9163C48.1926 47.9165 48.4576 47.8068 48.6529 47.6114C48.8483 47.4161 48.958 47.1511 48.958 46.8748V39.5832C48.958 39.3069 48.8483 39.042 48.6529 38.8466C48.4576 38.6512 48.1926 38.5415 47.9163 38.5415C47.6401 38.5415 47.3751 38.6512 47.1798 38.8466C46.9844 39.042 46.8747 39.3069 46.8747 39.5832Z" fill="#93CEFF"/>
<path d="M48.9583 26.0415H35.875L36.25 23.9582C37.3014 24.0215 38.3378 23.6843 39.1506 23.0144C39.9634 22.3445 40.4924 21.3915 40.631 20.3474C40.7696 19.3032 40.5076 18.2453 39.8977 17.3865C39.2878 16.5277 38.3753 15.9318 37.3437 15.7186C36.6146 4.72904 22.7604 -0.0105467 15.4688 8.59362C13.7881 10.6072 12.7889 13.1016 12.6146 15.7186C11.5913 15.9346 10.6867 16.5275 10.0803 17.3795C9.47387 18.2316 9.21007 19.2805 9.34124 20.3181C9.47241 21.3556 9.98896 22.3059 10.7883 22.9803C11.5877 23.6546 12.6114 24.0037 13.6562 23.9582L14.0312 26.0415H1.04167C0.765399 26.0415 0.500448 26.1513 0.305097 26.3466C0.109747 26.542 0 26.8069 0 27.0832C0 27.3595 0.109747 27.6244 0.305097 27.8198C0.500448 28.0151 0.765399 28.1249 1.04167 28.1249H14.6562C15.3905 30.2134 16.7418 32.0297 18.5312 33.3332C17.9688 35.677 16.1146 40.6249 10.4167 40.6249C10.1404 40.6249 9.87545 40.7346 9.6801 40.93C9.48475 41.1253 9.375 41.3903 9.375 41.6665C9.375 41.9428 9.48475 42.2078 9.6801 42.4031C9.87545 42.5985 10.1404 42.7082 10.4167 42.7082C16.0938 42.7082 19.2083 38.6353 20.3958 34.3749C21.8399 35.0389 23.4106 35.3827 25 35.3827C26.5894 35.3827 28.1601 35.0389 29.6042 34.3749C30.7917 38.604 33.9062 42.7082 39.5833 42.7082C39.8596 42.7082 40.1245 42.5985 40.3199 42.4031C40.5153 42.2078 40.625 41.9428 40.625 41.6665C40.625 41.3903 40.5153 41.1253 40.3199 40.93C40.1245 40.7346 39.8596 40.6249 39.5833 40.6249C33.8854 40.6249 32.0312 35.6561 31.4687 33.3332C33.2584 32.0275 34.6125 30.2123 35.3542 28.1249H48.9583C49.2346 28.1249 49.4995 28.0151 49.6949 27.8198C49.8903 27.6244 50 27.3595 50 27.0832C50 26.8069 49.8903 26.542 49.6949 26.3466C49.4995 26.1513 49.2346 26.0415 48.9583 26.0415ZM36.625 21.8749C37.3333 17.8957 37.1979 18.7499 37.2917 17.9061C37.7087 18.0966 38.0513 18.4194 38.2662 18.8244C38.4811 19.2294 38.5565 19.694 38.4805 20.1462C38.4045 20.5984 38.1815 21.0128 37.8461 21.3254C37.5106 21.6379 37.0814 21.8311 36.625 21.8749ZM12.6667 17.9061C12.8347 19.2403 13.0711 20.5649 13.375 21.8749C12.9108 21.8392 12.472 21.649 12.1285 21.3347C11.785 21.0205 11.5567 20.6002 11.48 20.141C11.4032 19.6819 11.4825 19.2102 11.7052 18.8013C11.9278 18.3925 12.281 18.07 12.7083 17.8853L12.6667 17.9061ZM16.2292 26.0415L14.8646 18.4061C14.5977 16.9248 14.66 15.4029 15.047 13.9484C15.434 12.4938 16.1364 11.1422 17.1042 9.98945C23.8854 1.8957 36.9688 8.13529 35.1354 18.4061L33.7708 26.0415C33.75 26.104 16.2396 26.0415 16.2292 26.0415ZM16.8958 28.1249H33.1042C32.3892 29.6725 31.2462 30.983 29.81 31.9016C28.3739 32.8201 26.7048 33.3083 25 33.3083C23.2952 33.3083 21.6261 32.8201 20.19 31.9016C18.7538 30.983 17.6107 29.6725 16.8958 28.1249Z" fill="#93CEFF"/>
</svg>
