<svg width="35" height="50" viewBox="0 0 35 50" fill="none" xmlns="http://www.w3.org/2000/svg">
<path d="M28.2253 2.15168C25.0893 0.724757 21.4819 0 17.5017 0C13.4928 0 9.88326 0.724757 6.77614 2.15381C6.2614 2.39057 6.03488 3.00211 6.27164 3.51896C6.51052 4.0337 7.11791 4.26023 7.63679 4.02347C10.4741 2.72008 13.7934 2.05912 17.5017 2.05912C21.1854 2.05912 24.5046 2.72008 27.3709 4.02549C27.5088 4.08929 27.655 4.11815 27.7971 4.11815C28.1883 4.11815 28.563 3.89375 28.736 3.51481C28.9707 2.99796 28.7422 2.38642 28.2253 2.15168Z" fill="#84C7FF"/>
<path d="M32.6505 10.6022C28.4767 6.36048 23.2365 4.11816 17.4979 4.11816C11.7819 4.11816 6.54573 6.36048 2.3576 10.6001C1.95811 11.0057 1.96226 11.6584 2.3658 12.0579C2.77147 12.4574 3.4221 12.4512 3.82159 12.0497C7.6165 8.20755 12.3441 6.17729 17.4979 6.17729C22.6723 6.17729 27.4061 8.20755 31.1823 12.0476C31.3842 12.2515 31.6498 12.3545 31.9154 12.3545C32.1748 12.3545 32.4363 12.2556 32.6381 12.058C33.0438 11.6585 33.05 11.0078 32.6505 10.6022Z" fill="#84C7FF"/>
<path d="M17.4974 8.23633C16.0293 8.23633 14.5715 8.41749 13.1631 8.77577C12.6113 8.91582 12.2777 9.47582 12.4176 10.0277C12.5577 10.5795 13.1218 10.909 13.6696 10.771C14.9112 10.456 16.2002 10.2954 17.4974 10.2954C26.0137 10.2954 32.9404 17.222 32.9404 25.7383C32.9404 26.3066 33.4016 26.7679 33.9699 26.7679C34.5382 26.7679 34.9995 26.3066 34.9995 25.7383C34.9995 16.0875 27.1483 8.23633 17.4974 8.23633Z" fill="#84C7FF"/>
<path d="M10.1183 10.9706C9.83418 10.4826 9.20613 10.3158 8.70993 10.602C7.39622 11.37 6.17526 12.3192 5.08595 13.4229C1.88 16.6639 0.0742358 21.0312 0.000109705 25.7237C-0.00809436 26.292 0.444866 26.7595 1.01519 26.7677C1.01934 26.7677 1.02552 26.7677 1.0317 26.7677C1.59179 26.7677 2.05093 26.3188 2.05914 25.7546C2.12506 21.5953 3.71877 17.7304 6.54995 14.8684C7.51359 13.8924 8.59044 13.0564 9.74972 12.379C10.2397 12.0928 10.4045 11.4627 10.1183 10.9706Z" fill="#84C7FF"/>
<path d="M27.5876 16.9523C25.0385 14.0305 21.361 12.3545 17.4982 12.3545C13.9072 12.3545 10.5406 13.7629 8.0162 16.3182C5.50006 18.8591 4.11637 22.2957 4.11637 26.0452C4.12255 28.2608 3.43071 30.917 2.19112 33.4682L1.61249 34.4977C1.33452 34.9939 1.50951 35.62 2.0058 35.9C2.16641 35.9906 2.33937 36.0338 2.51031 36.0338C2.87061 36.0338 3.22068 35.8444 3.40802 35.5088L4.01541 34.4257C5.43819 31.4978 6.1836 28.5986 6.1754 25.9919C6.1754 22.8395 7.34704 19.9197 9.47816 17.7659C11.6155 15.6039 14.4611 14.4137 17.4982 14.4137C20.7659 14.4137 23.8792 15.8324 26.035 18.3074C26.4077 18.7356 27.0604 18.7789 27.4887 18.4062C27.917 18.0313 27.9603 17.3807 27.5876 16.9523Z" fill="#84C7FF"/>
<path d="M32.7969 37.6065L31.6356 33.8075C30.9828 30.8281 30.9272 27.9845 30.8923 26.2837L30.882 25.7381C30.882 24.2123 30.6245 22.7133 30.118 21.2823C29.9285 20.7469 29.3459 20.4669 28.8043 20.6564C28.2689 20.8459 27.9889 21.4327 28.1784 21.9701C28.6066 23.1788 28.8228 24.4472 28.8228 25.7649L28.8352 26.325C28.8723 28.0999 28.9299 31.0711 29.6464 34.3265L30.8242 38.2058C30.9581 38.6505 31.3678 38.9347 31.8106 38.9347C31.9094 38.9347 32.0103 38.9203 32.1112 38.8914C32.6548 38.7246 32.9616 38.1521 32.7969 37.6065Z" fill="#84C7FF"/>
<path d="M29.7929 42.3632L28.8355 39.2973C27.1367 33.9932 26.8197 28.0302 26.7641 25.7384C26.7641 20.6299 22.6068 16.4727 17.4983 16.4727C12.3898 16.4727 8.23457 20.6937 8.23457 25.9176C8.23872 27.0006 8.03892 32.7228 3.69019 38.9946C3.36483 39.4621 3.48219 40.1045 3.94761 40.4277C4.41292 40.751 5.05747 40.6357 5.38071 40.1703C9.96418 33.5628 10.2998 27.5854 10.2936 25.8846C10.2936 21.8303 13.5263 18.5337 17.4982 18.5337C21.4722 18.5337 24.705 21.7664 24.705 25.7652C24.7791 28.7549 25.16 34.5697 26.8731 39.9212L27.8244 42.9748C27.9624 43.4154 28.368 43.6975 28.8086 43.6975C28.9095 43.6975 29.0125 43.6831 29.1155 43.6522C29.6591 43.4813 29.9617 42.9048 29.7929 42.3632Z" fill="#84C7FF"/>
<path d="M22.6457 25.7384C22.6457 22.9011 20.3354 20.5908 17.4981 20.5908C14.6607 20.5908 12.3504 22.9011 12.3504 25.7776C12.3628 26.1174 12.5913 34.2053 6.05174 42.7154C5.70582 43.1664 5.79027 43.813 6.24121 44.1589C6.69417 44.5068 7.33872 44.4183 7.68464 43.9694C14.671 34.8766 14.4198 26.07 14.4074 25.7385C14.4074 24.0357 15.7932 22.6499 17.496 22.6499C19.1989 22.6499 20.5846 24.0357 20.5866 25.7612C20.6155 26.9143 20.6217 37.3167 12.583 47.7602C12.2371 48.2111 12.3195 48.8577 12.7704 49.2036C12.9599 49.3477 13.1801 49.4178 13.3984 49.4178C13.7073 49.4178 14.012 49.2799 14.2138 49.0163C22.6991 37.996 22.6744 26.9388 22.6457 25.7384Z" fill="#84C7FF"/>
<path d="M18.523 25.6931C18.4963 25.1268 18.0515 24.6759 17.4502 24.7109C16.8839 24.7356 16.4433 25.2154 16.466 25.7837C16.466 25.7981 16.5236 27.3053 16.1406 29.6877C16.0521 30.2498 16.4351 30.779 16.9951 30.8695C17.0507 30.8777 17.1063 30.8819 17.1599 30.8819C17.6561 30.8819 18.0947 30.5216 18.175 30.0171C18.5951 27.4041 18.5272 25.761 18.523 25.6931Z" fill="#84C7FF"/>
<path d="M16.5036 33.0171C15.9558 32.8545 15.3855 33.1674 15.2229 33.711C13.936 38.0577 11.7945 42.1223 8.8624 45.7956C8.50827 46.2404 8.58028 46.8869 9.02503 47.2431C9.2145 47.3955 9.44093 47.4675 9.66746 47.4675C9.97014 47.4675 10.2687 47.3358 10.4725 47.0804C13.5714 43.2011 15.8343 38.8998 17.1995 34.2978C17.3602 33.7522 17.0493 33.1778 16.5036 33.0171Z" fill="#84C7FF"/>
<path d="M26.4821 45.3526L25.2405 41.4096C24.7464 39.9312 24.2851 38.3684 24.2831 38.3622C24.1595 37.9442 23.7889 37.6498 23.3545 37.6251C22.9097 37.5942 22.5164 37.8495 22.3476 38.251C22.3249 38.3046 20.0311 43.6972 17.4017 47.836C17.097 48.3157 17.2391 48.952 17.7188 49.2567C17.8897 49.3659 18.0812 49.4173 18.2706 49.4173C18.6123 49.4173 18.9439 49.2485 19.1395 48.9396C20.7312 46.4337 22.1767 43.5531 23.1196 41.5497C23.1732 41.7145 23.2288 41.8813 23.2844 42.0459L24.5178 45.9704C24.6887 46.512 25.2611 46.8167 25.8088 46.6438C26.3503 46.4727 26.653 45.8962 26.4821 45.3526Z" fill="#84C7FF"/>
</svg>
