<svg width="116" height="201" viewBox="0 0 116 201" fill="none" xmlns="http://www.w3.org/2000/svg">
<path d="M0.194 133.734V66.8399M24.254 147.626L24.28 158.912L34.066 153.292L24.254 147.626ZM12.234 140.686L46.09 160.232L12.23 179.786L12.234 140.686ZM0.194 133.734L58.128 167.184L0.26 200.524L0.194 133.734ZM34.134 180.966L34.104 192.252L24.318 186.632L34.134 180.966ZM46.154 174.022L12.296 193.572L46.156 213.124L46.154 174.022ZM0.256 200.522L58.126 233.86L0.256 200.522ZM91.874 186.52L91.848 175.232L82.06 180.852L91.874 186.52ZM103.894 193.46L70.04 173.912L103.902 154.362L103.894 193.46ZM58 166.964L115.872 133.626L115.936 200.412L58 166.964ZM58.128 206.08L67.89 200.412L58.13 194.748L58.128 206.08ZM58.128 219.96V180.866L91.992 200.412L58.128 219.96ZM58.128 233.864V166.964L115.936 200.412L58.128 233.864ZM116 27.8299L106.236 33.4959L116 39.1639V27.8299ZM116 13.9499V53.0459L82.136 33.4979L116 13.9499ZM116 0.0479012V66.9439L58.192 33.4959L116 0.0479012ZM58.192 5.7159L67.952 0.0499001L58.192 -5.6161V5.7159ZM58.192 19.5959V-19.4981L92.052 0.0499001L58.192 19.5959ZM58.192 33.4959V-33.4021L116 0.0479012L58.192 33.4959ZM33.88 47.3919L24.092 41.7719L24.064 53.0579L33.88 47.3919ZM45.9 40.4519L12.04 59.9959V20.8959L45.9 40.4519ZM0 66.9439L0.066 0.159901L57.94 33.4999L0 66.9439ZM45.96 -26.3401L12.106 -6.7861L45.966 12.7659L45.96 -26.3401ZM57.94 33.4999L58 -33.2881L0.066 0.159901L57.94 33.4999ZM81.998 47.3899L82.024 58.6759L91.81 53.0559L81.998 47.3899ZM69.978 40.4499L103.834 59.9979L69.974 79.5479L69.978 40.4499ZM115.872 66.9459L58 100.286L57.938 33.4979L115.872 66.9459ZM33.94 86.3939L33.914 75.1079L24.126 80.7279L33.94 86.3939ZM45.96 93.3339L12.106 73.7879L45.966 54.2359L45.96 93.3339ZM58 100.286L0.064 66.8379L57.936 33.4979L58 100.286ZM91.81 147.514L82.024 141.894L81.996 153.182L91.81 147.514ZM103.83 140.574L69.976 160.12V121.02L103.83 140.574ZM58 128.07L48.24 133.734L58 139.4V128.07ZM58 114.186V153.284L24.14 133.734L58 114.186ZM0.194 133.734L58 100.286V167.184L0.194 133.734ZM91.876 80.7279L91.85 92.0159L82.062 86.3939L91.876 80.7279ZM103.896 73.7879L70.04 93.3339L103.902 112.888L103.896 73.7879ZM58 100.286L115.872 133.626L115.936 66.8379L58 100.286ZM0.194 105.95L9.954 100.286L0.194 94.6199V105.95ZM0.194 119.834V80.7359L34.056 100.286L0.194 119.834Z" stroke="#47B0D3" stroke-opacity="0.2" stroke-width="2" stroke-linecap="square"/>
</svg>
