<svg width="40" height="40" viewBox="0 0 40 40" fill="none" xmlns="http://www.w3.org/2000/svg">
<path d="M20 40C31.0457 40 40 31.0457 40 20C40 8.9543 31.0457 0 20 0C8.9543 0 0 8.9543 0 20C0 31.0457 8.9543 40 20 40Z" fill="#99E6FC"/>
<path d="M39.9998 19.9998C39.9998 19.5207 39.9829 19.0455 39.9498 18.5749L31.7909 10.416L4.94531 19.4529L11.0215 25.5291L9.05805 34.0438L14.1427 39.1284C15.9952 39.6949 17.9619 39.9998 19.9998 39.9998C31.0455 39.9998 39.9998 31.0455 39.9998 19.9998Z" fill="#60B7FF"/>
<path d="M9.05859 4.8623V34.044H20.2523L27.467 16.0911L20.2523 4.8623H9.05859Z" fill="white"/>
<path d="M31.7911 10.4163L28.3491 8.8552L26.2371 4.8623H20.252V34.044H31.7911V10.4163Z" fill="#E8E8E8"/>
<path d="M4.94531 9.71289H21.7022V19.4532H4.94531V9.71289Z" fill="#E23D71"/>
<path d="M20.252 9.71289H23.3985V19.4532H20.252V9.71289Z" fill="#AA1D57"/>
<path d="M19.0314 13.0078V11.8359H16.1338V17.2656H17.3057V15.0964H18.8943V13.9245H17.3057V13.0078H19.0314Z" fill="white"/>
<path d="M13.4243 11.9316H11.6584V11.9391H11.6562L11.6595 12.5288C11.6597 12.6659 11.6624 14.1417 11.6624 14.5941C11.6624 15.1727 11.6678 16.682 11.6678 16.682L11.6699 17.268L12.256 17.2658C12.2916 17.2656 13.1327 17.2624 13.4689 17.2565C14.7565 17.234 15.691 16.1163 15.691 14.5986C15.6912 13.0035 14.7802 11.9316 13.4243 11.9316ZM13.4486 16.0848C13.3096 16.0873 13.0755 16.0893 12.8509 16.0908L12.8346 13.1034H13.4243C14.4402 13.1034 14.5192 14.2479 14.5192 14.5987C14.5193 15.6125 13.9815 16.0756 13.4486 16.0848Z" fill="white"/>
<path d="M9.39555 11.8682H7.61523V17.3293H8.78711V15.463C9.01344 15.4619 9.25297 15.4609 9.39547 15.4609C10.3991 15.4609 11.2155 14.6551 11.2155 13.6646C11.2155 12.674 10.3991 11.8682 9.39555 11.8682ZM9.39555 14.289C9.25398 14.289 9.01734 14.29 8.79227 14.2911C8.79109 14.0577 8.79016 13.8103 8.79016 13.6646C8.79016 13.5406 8.78953 13.2848 8.78891 13.0401H9.39555C9.74695 13.0401 10.0437 13.3261 10.0437 13.6646C10.0437 14.003 9.74687 14.289 9.39555 14.289Z" fill="white"/>
<path d="M31.7903 10.4163L26.2363 4.8623V10.4163H31.7903Z" fill="#999999"/>
<path d="M28.0899 35.4815C31.5498 35.4815 34.3546 32.6767 34.3546 29.2168C34.3546 25.7569 31.5498 22.9521 28.0899 22.9521C24.63 22.9521 21.8252 25.7569 21.8252 29.2168C21.8252 32.6767 24.63 35.4815 28.0899 35.4815Z" fill="#F27944"/>
<path d="M28.0898 22.9521V35.4815C31.5498 35.4815 34.3545 32.6768 34.3545 29.2168C34.3545 25.7569 31.5497 22.9521 28.0898 22.9521Z" fill="#D35429"/>
<path d="M29.5677 28.9084V25.7695H26.612V28.9084H25.1211L28.0899 33.06L31.0587 28.9084H29.5677Z" fill="white"/>
<path d="M31.0586 28.9084H29.5677V25.7695H28.0898V33.06L31.0586 28.9084Z" fill="#E2E2E2"/>
</svg>
