<svg width="40" height="40" viewBox="0 0 40 40" fill="none" xmlns="http://www.w3.org/2000/svg">
<path d="M10.625 6.25V13.125C10.625 13.4703 10.3453 13.75 10 13.75H6.25C5.90469 13.75 5.625 13.4703 5.625 13.125V6.25C5.625 5.56094 6.18594 5 6.875 5H9.375C10.0641 5 10.625 5.56094 10.625 6.25Z" fill="#595965"/>
<path d="M9.375 5H8.125V13.75H10C10.3453 13.75 10.625 13.4703 10.625 13.125V6.25C10.625 5.56094 10.0641 5 9.375 5Z" fill="#44454E"/>
<path d="M34.375 6.25V13.125C34.375 13.4703 34.0953 13.75 33.75 13.75H30C29.6547 13.75 29.375 13.4703 29.375 13.125V6.25C29.375 5.56094 29.9359 5 30.625 5H33.125C33.8141 5 34.375 5.56094 34.375 6.25Z" fill="#595965"/>
<path d="M30.625 5C29.9359 5 29.375 5.56094 29.375 6.25V13.125C29.375 13.4703 29.6547 13.75 30 13.75H31.875V5H30.625Z" fill="#44454E"/>
<path d="M30.625 1.875V13.125C30.625 13.4703 30.3453 13.75 30 13.75H10C9.65469 13.75 9.375 13.4703 9.375 13.125V1.875C9.375 0.841406 10.2164 0 11.25 0H28.75C29.7836 0 30.625 0.841406 30.625 1.875Z" fill="#EDEBFD"/>
<path d="M28.75 0H25.625C26.6586 0 27.5 0.841406 27.5 1.875V13.125C27.5 13.4703 27.2203 13.75 26.875 13.75H30C30.3453 13.75 30.625 13.4703 30.625 13.125V1.875C30.625 0.841406 29.7836 0 28.75 0Z" fill="#D2D2FC"/>
<path d="M40 15.625V29.375C40 31.0984 38.5984 32.5 36.875 32.5H3.125C1.40156 32.5 0 31.0984 0 29.375V15.625C0 13.9016 1.40156 12.5 3.125 12.5H36.875C38.5984 12.5 40 13.9016 40 15.625Z" fill="#595965"/>
<path d="M36.875 12.5H33.75C35.4734 12.5 36.875 13.9016 36.875 15.625V29.375C36.875 31.0984 35.4734 32.5 33.75 32.5H36.875C38.5984 32.5 40 31.0984 40 29.375V15.625C40 13.9016 38.5984 12.5 36.875 12.5Z" fill="#44454E"/>
<path d="M31.875 26.875V32.5H10.625V26.875C10.625 26.5297 10.9047 26.25 11.25 26.25H31.25C31.5953 26.25 31.875 26.5297 31.875 26.875Z" fill="#44454E"/>
<path d="M31.875 27.5H8.125C7.77984 27.5 7.5 27.2202 7.5 26.875C7.5 26.5298 7.77984 26.25 8.125 26.25H31.875C32.2202 26.25 32.5 26.5298 32.5 26.875C32.5 27.2202 32.2202 27.5 31.875 27.5Z" fill="#44454E"/>
<path d="M30.625 26.875V38.125C30.625 39.1586 29.7836 40 28.75 40H11.25C10.2164 40 9.375 39.1586 9.375 38.125V26.875C9.375 26.5297 9.65469 26.25 10 26.25H30C30.3453 26.25 30.625 26.5297 30.625 26.875Z" fill="#EDEBFD"/>
<path d="M30 26.25H26.875C27.2203 26.25 27.5 26.5297 27.5 26.875V38.125C27.5 39.1586 26.6586 40 25.625 40H28.75C29.7836 40 30.625 39.1586 30.625 38.125V26.875C30.625 26.5297 30.3453 26.25 30 26.25Z" fill="#D2D2FC"/>
<path d="M35.625 18.75C36.6605 18.75 37.5 17.9105 37.5 16.875C37.5 15.8395 36.6605 15 35.625 15C34.5895 15 33.75 15.8395 33.75 16.875C33.75 17.9105 34.5895 18.75 35.625 18.75Z" fill="#79CB9C"/>
<path d="M35 15.1078C36.6625 15.6978 36.6628 18.0525 35 18.6426C36.2179 19.0748 37.5 18.1649 37.5 16.8752C37.5 15.5822 36.2155 14.6764 35 15.1078Z" fill="#63AC7D"/>
<path d="M30.625 18.75C31.6605 18.75 32.5 17.9105 32.5 16.875C32.5 15.8395 31.6605 15 30.625 15C29.5895 15 28.75 15.8395 28.75 16.875C28.75 17.9105 29.5895 18.75 30.625 18.75Z" fill="#E48C9B"/>
<path d="M30 15.1078C31.6625 15.6978 31.6628 18.0525 30 18.6426C31.2179 19.0748 32.5 18.1649 32.5 16.8752C32.5 15.5822 31.2155 14.6764 30 15.1078Z" fill="#CC5B6F"/>
<path d="M13.75 30.625H26.875C27.2202 30.625 27.5 30.3452 27.5 30C27.5 29.6548 27.2202 29.375 26.875 29.375H13.75C13.4048 29.375 13.125 29.6548 13.125 30C13.125 30.3452 13.4048 30.625 13.75 30.625Z" fill="#595965"/>
<path d="M26.875 32.5H13.75C13.4048 32.5 13.125 32.7798 13.125 33.125C13.125 33.4702 13.4048 33.75 13.75 33.75H26.875C27.2202 33.75 27.5 33.4702 27.5 33.125C27.5 32.7798 27.2202 32.5 26.875 32.5Z" fill="#595965"/>
<path d="M26.875 35.625H13.75C13.4048 35.625 13.125 35.9048 13.125 36.25C13.125 36.5952 13.4048 36.875 13.75 36.875H26.875C27.2202 36.875 27.5 36.5952 27.5 36.25C27.5 35.9048 27.2202 35.625 26.875 35.625Z" fill="#595965"/>
</svg>
