<svg width="46" height="50" viewBox="0 0 46 50" fill="none" xmlns="http://www.w3.org/2000/svg">
<path d="M44.7141 6.99832C44.6244 6.35366 44.1605 5.82338 43.5335 5.64909L23.4377 0.0604143C23.1512 -0.0193243 22.8485 -0.0193243 22.5618 0.0604143L2.46598 5.64909C1.83896 5.82338 1.37513 6.35344 1.28537 6.99832C1.16881 7.83645 -1.49023 27.6395 5.33003 37.4909C12.1422 47.3306 22.1917 49.8521 22.6161 49.9547C22.7422 49.9852 22.8708 50.0003 22.9997 50.0003C23.1287 50.0003 23.2573 49.985 23.3834 49.9547C23.808 49.8521 33.8575 47.3306 40.6695 37.4909C47.4897 27.6397 44.8307 7.83667 44.7141 6.99832ZM35.959 18.5595L22.2516 32.2669C21.9326 32.5859 21.5143 32.7456 21.0963 32.7456C20.6782 32.7456 20.2599 32.5861 19.9409 32.2669L11.4658 23.7918C11.1592 23.4855 10.9871 23.0698 10.9871 22.6364C10.9871 22.2031 11.1594 21.7874 11.4658 21.4811L13.1485 19.7983C13.7867 19.1604 14.8213 19.1602 15.4592 19.7983L21.0963 25.4354L31.9655 14.5659C32.2719 14.2593 32.6875 14.0872 33.1209 14.0872C33.5542 14.0872 33.9699 14.2593 34.2762 14.5659L35.959 16.2486C36.5971 16.8868 36.5971 17.9214 35.959 18.5595Z" fill="#84C8FF"/>
</svg>
