<svg width="46" height="50" viewBox="0 0 46 50" fill="none" xmlns="http://www.w3.org/2000/svg">
<path d="M44.7141 6.99771C44.6244 6.35305 44.1605 5.82277 43.5335 5.64847L23.4377 0.0598039C23.1512 -0.0199346 22.8485 -0.0199346 22.5618 0.0598039L2.46598 5.64847C1.83896 5.82277 1.37513 6.35283 1.28537 6.99771C1.16881 7.83584 -1.49023 27.6389 5.33003 37.4903C12.1422 47.33 22.1917 49.8515 22.6161 49.9541C22.7422 49.9846 22.8708 49.9997 22.9997 49.9997C23.1287 49.9997 23.2573 49.9844 23.3834 49.9541C23.808 49.8515 33.8575 47.33 40.6695 37.4903C47.4897 27.6391 44.8307 7.83606 44.7141 6.99771ZM35.959 18.5589L22.2516 32.2663C21.9326 32.5853 21.5143 32.745 21.0963 32.745C20.6782 32.745 20.2599 32.5855 19.9409 32.2663L11.4658 23.7912C11.1592 23.4849 10.9871 23.0692 10.9871 22.6358C10.9871 22.2025 11.1594 21.7868 11.4658 21.4805L13.1485 19.7977C13.7867 19.1598 14.8213 19.1596 15.4592 19.7977L21.0963 25.4347L31.9655 14.5653C32.2719 14.2587 32.6875 14.0866 33.1209 14.0866C33.5542 14.0866 33.9699 14.2587 34.2762 14.5653L35.959 16.248C36.5971 16.8862 36.5971 17.9208 35.959 18.5589Z" fill="#84C8FF"/>
</svg>
