<svg width="157" height="189" viewBox="0 0 157 189" fill="none" xmlns="http://www.w3.org/2000/svg">
<path d="M77.3125 90.6475C89.7658 90.6475 100.548 86.181 109.36 77.3687C118.17 68.5577 122.638 57.777 122.638 45.3223C122.638 32.8719 118.171 22.0897 109.359 13.276C100.546 4.46648 89.7644 0 77.3125 0C64.8578 0 54.0771 4.46648 45.2661 13.2774C36.4552 22.0883 31.9873 32.8704 31.9873 45.3223C31.9873 57.777 36.4552 68.5592 45.2661 77.3701C54.0799 86.1796 64.8621 90.6475 77.3125 90.6475ZM53.0649 21.0747C59.8256 14.314 67.7564 11.0276 77.3125 11.0276C86.8671 11.0276 94.7994 14.314 101.562 21.0747C108.322 27.8369 111.61 35.7691 111.61 45.3223C111.61 54.8784 108.322 62.8092 101.562 69.5714C94.7994 76.3335 86.8671 79.6199 77.3125 79.6199C67.7593 79.6199 59.8285 76.3321 53.0649 69.5714C46.3027 62.8106 43.0149 54.8784 43.0149 45.3223C43.0149 35.7691 46.3027 27.8369 53.0649 21.0747Z" fill="white"/>
<path d="M156.62 144.702C156.365 141.035 155.851 137.035 155.095 132.811C154.331 128.556 153.348 124.533 152.17 120.856C150.953 117.056 149.3 113.303 147.254 109.706C145.134 105.974 142.642 102.723 139.845 100.048C136.92 97.2503 133.34 95.0005 129.199 93.3595C125.073 91.7271 120.5 90.9002 115.609 90.9002C113.688 90.9002 111.83 91.6884 108.242 94.0243C106.034 95.4643 103.451 97.1297 100.568 98.9717C98.1031 100.542 94.7637 102.014 90.6389 103.346C86.6146 104.648 82.5286 105.309 78.4943 105.309C74.4628 105.309 70.3768 104.648 66.3496 103.346C62.2292 102.015 58.8883 100.544 56.4275 98.9731C53.5719 97.1484 50.9876 95.4829 48.7465 94.0228C45.1615 91.6869 43.3037 90.8987 41.3827 90.8987C36.4899 90.8987 31.9186 91.7271 27.7938 93.361C23.6561 94.9991 20.074 97.2489 17.1466 100.05C14.3499 102.726 11.8575 105.975 9.73838 109.706C7.69537 113.303 6.04144 117.054 4.82397 120.858C3.64812 124.534 2.66467 128.556 1.90087 132.811C1.14282 137.029 0.630274 141.031 0.376155 144.706C0.126342 148.3 0 152.04 0 155.818C0 165.642 3.12266 173.594 9.28039 179.459C15.362 185.246 23.4077 188.181 33.1949 188.181H123.805C133.589 188.181 141.635 185.246 147.718 179.459C153.877 173.598 157 165.643 157 155.817C156.999 152.025 156.871 148.285 156.62 144.702ZM140.115 171.469C136.096 175.294 130.761 177.153 123.804 177.153H33.1949C26.2361 177.153 20.901 175.294 16.8839 171.47C12.9429 167.719 11.0276 162.598 11.0276 155.818C11.0276 152.292 11.1439 148.811 11.3765 145.468C11.6034 142.189 12.0671 138.587 12.7548 134.76C13.4339 130.979 14.2982 127.432 15.3261 124.22C16.3125 121.14 17.6577 118.091 19.326 115.154C20.9182 112.354 22.7502 109.952 24.7716 108.017C26.6625 106.206 29.0457 104.725 31.854 103.613C34.4512 102.585 37.3699 102.023 40.5385 101.938C40.9247 102.143 41.6124 102.535 42.7266 103.262C44.9935 104.739 47.6065 106.424 50.4952 108.269C53.7513 110.345 57.9465 112.22 62.9585 113.838C68.0825 115.495 73.3085 116.337 78.4957 116.337C83.6829 116.337 88.9103 115.495 94.0314 113.84C99.0478 112.219 103.241 110.345 106.502 108.266C109.458 106.377 111.998 104.74 114.265 103.262C115.379 102.537 116.067 102.143 116.453 101.938C119.623 102.023 122.542 102.585 125.14 103.613C127.947 104.725 130.33 106.208 132.221 108.017C134.243 109.951 136.075 112.352 137.667 115.155C139.337 118.091 140.683 121.142 141.668 124.219C142.698 127.435 143.563 130.981 144.241 134.758C144.927 138.593 145.392 142.196 145.619 145.47V145.473C145.853 148.802 145.971 152.282 145.972 155.818C145.971 162.599 144.056 167.719 140.115 171.469Z" fill="white"/>
</svg>
