
<svg width="80" height="80" viewBox="0 0 80 80" fill="none" xmlns="http://www.w3.org/2000/svg">
<path d="M49.0905 0H30.9086C29.462 0 28.0746 0.574674 27.0517 1.5976C26.0288 2.62053 25.4541 4.00791 25.4541 5.45455V12.7273C25.4541 13.2095 25.6457 13.6719 25.9866 14.0129C26.3276 14.3539 26.7901 14.5455 27.2723 14.5455H52.7268C53.209 14.5455 53.6715 14.3539 54.0125 14.0129C54.3535 13.6719 54.545 13.2095 54.545 12.7273V5.45455C54.545 4.00791 53.9703 2.62053 52.9474 1.5976C51.9245 0.574674 50.5371 0 49.0905 0ZM50.9086 10.9091H29.0905V5.45455C29.0905 4.97233 29.282 4.50987 29.623 4.1689C29.964 3.82792 30.4264 3.63636 30.9086 3.63636H49.0905C49.5727 3.63636 50.0351 3.82792 50.3761 4.1689C50.7171 4.50987 50.9086 4.97233 50.9086 5.45455V10.9091Z" fill="#4D5258"/>
<path d="M16.3634 69.0908H9.09064C8.60843 69.0908 8.14597 69.2824 7.80499 69.6234C7.46402 69.9643 7.27246 70.4268 7.27246 70.909V76.3635C7.27246 77.328 7.65558 78.2529 8.33753 78.9348C9.01948 79.6168 9.9444 79.9999 10.9088 79.9999H14.5452C15.5096 79.9999 16.4345 79.6168 17.1165 78.9348C17.7984 78.2529 18.1816 77.328 18.1816 76.3635V70.909C18.1816 70.4268 17.99 69.9643 17.649 69.6234C17.308 69.2824 16.8456 69.0908 16.3634 69.0908Z" fill="#4D5258"/>
<path d="M70.9083 69.0908H63.6356C63.1534 69.0908 62.6909 69.2824 62.3499 69.6234C62.0089 69.9643 61.8174 70.4268 61.8174 70.909V76.3635C61.8174 77.328 62.2005 78.2529 62.8824 78.9348C63.5644 79.6168 64.4893 79.9999 65.4537 79.9999H69.0901C70.0545 79.9999 70.9795 79.6168 71.6614 78.9348C72.3434 78.2529 72.7265 77.328 72.7265 76.3635V70.909C72.7265 70.4268 72.5349 69.9643 72.1939 69.6234C71.853 69.2824 71.3905 69.0908 70.9083 69.0908Z" fill="#4D5258"/>
<path d="M70.9091 10.9092H9.09091C4.07014 10.9092 0 14.9793 0 20.0001V63.6365C0 68.6572 4.07014 72.7274 9.09091 72.7274H70.9091C75.9299 72.7274 80 68.6572 80 63.6365V20.0001C80 14.9793 75.9299 10.9092 70.9091 10.9092Z" fill="#B35C00"/>
<path d="M43.6358 24.8727L41.8176 19.4182C41.7417 19.191 41.6217 18.981 41.4644 18.8004C41.3071 18.6198 41.1157 18.472 40.9011 18.3655C40.6866 18.2591 40.4531 18.1961 40.2141 18.1802C39.9751 18.1642 39.7353 18.1957 39.5085 18.2727L28.5994 21.9091C28.3723 21.985 28.1623 22.105 27.9817 22.2623C27.801 22.4196 27.6533 22.611 27.5468 22.8256C27.4404 23.0401 27.3774 23.2736 27.3614 23.5126C27.3455 23.7516 27.377 23.9914 27.454 24.2182L29.2722 29.6727C29.3888 30.0195 29.6074 30.323 29.8994 30.5436C30.1913 30.7642 30.543 30.8916 30.9085 30.9091C31.1056 30.9041 31.3012 30.8736 31.4903 30.8182L42.3994 27.1818C42.6348 27.1154 42.8543 27.0022 43.0449 26.849C43.2355 26.6958 43.3932 26.5057 43.5086 26.2902C43.624 26.0746 43.6948 25.8379 43.7167 25.5944C43.7385 25.3508 43.711 25.1054 43.6358 24.8727Z" fill="#BEE1F4"/>
<path d="M36.3643 63.6363C41.3851 63.6363 45.4553 59.5661 45.4553 54.5454C45.4553 49.5246 41.3851 45.4545 36.3643 45.4545C31.3436 45.4545 27.2734 49.5246 27.2734 54.5454C27.2734 59.5661 31.3436 63.6363 36.3643 63.6363Z" fill="#BEE1F4"/>
<path d="M75.3643 52.9273L72.7279 51.6V49.0909C72.7279 48.6087 72.5363 48.1462 72.1953 47.8053C71.8544 47.4643 71.3919 47.2727 70.9097 47.2727H63.6369C63.3607 47.2712 63.0878 47.3327 62.839 47.4524C62.5901 47.5721 62.3717 47.7469 62.2005 47.9636C62.0305 48.1822 61.9127 48.4366 61.8559 48.7076C61.7992 48.9786 61.8051 49.2589 61.8732 49.5273L63.6914 56.8C63.7889 57.1942 64.0155 57.5444 64.3351 57.7948C64.6548 58.0453 65.049 58.1815 65.4551 58.1818H74.5461C75.0283 58.1818 75.4907 57.9903 75.8317 57.6493C76.1727 57.3083 76.3643 56.8458 76.3643 56.3636V54.5455C76.3632 54.2097 76.2693 53.8808 76.0928 53.5952C75.9163 53.3095 75.6641 53.0784 75.3643 52.9273Z" fill="#A30000"/>
<path d="M14.546 27.2727H7.27326C6.26911 27.2727 5.45508 28.0867 5.45508 29.0909V36.3636C5.45508 37.3678 6.26911 38.1818 7.27326 38.1818H14.546C15.5501 38.1818 16.3642 37.3678 16.3642 36.3636V29.0909C16.3642 28.0867 15.5501 27.2727 14.546 27.2727Z" fill="#F0AB00"/>
<path d="M73.6546 29.3455L64.4546 23.891L57.1819 20.2546L51.8182 16.6182C51.576 16.4585 51.2989 16.3591 51.0104 16.3283C50.7218 16.2975 50.4301 16.3362 50.1595 16.4412C49.889 16.5462 49.6475 16.7145 49.4553 16.9319C49.2631 17.1493 49.1257 17.4096 49.0546 17.691L47.2364 24.9637C47.1656 25.2993 47.1912 25.6482 47.3102 25.9699C47.4293 26.2916 47.6369 26.5731 47.9092 26.7819L55.1819 32.2364L55.4546 32.4L66.3637 37.8546C66.6284 38.0498 66.9444 38.1635 67.2728 38.1819C67.5121 38.1832 67.7493 38.1374 67.9708 38.0469C68.1923 37.9564 68.3938 37.8231 68.5637 37.6546L74.0182 32.2C74.212 32.0036 74.3586 31.7657 74.4468 31.5042C74.535 31.2427 74.5626 30.9646 74.5273 30.691C74.4944 30.4149 74.3986 30.1501 74.2473 29.9168C74.096 29.6836 73.8933 29.4881 73.6546 29.3455Z" fill="#F0AB00"/>
<path d="M16.0006 54.5456L6.90972 56.3637C6.66089 56.4059 6.42358 56.4995 6.21287 56.6384C6.00217 56.7773 5.8227 56.9586 5.68588 57.1706C5.54906 57.3827 5.45789 57.6209 5.41817 57.8702C5.37845 58.1194 5.39105 58.3742 5.45517 58.6183L7.27335 65.891C7.32417 66.1333 7.42395 66.3627 7.56656 66.5651C7.70917 66.7675 7.89162 66.9386 8.10271 67.068C8.3138 67.1974 8.5491 67.2823 8.79416 67.3175C9.03923 67.3527 9.28891 67.3375 9.5279 67.2728L16.8006 65.4546C17.204 65.3551 17.5612 65.1204 17.8126 64.7896C18.064 64.4587 18.1945 64.0518 18.1824 63.6365V56.3637C18.1807 56.0952 18.1194 55.8303 18.0031 55.5883C17.8868 55.3462 17.7183 55.1329 17.5097 54.9637C17.3052 54.786 17.0636 54.6562 16.8025 54.5839C16.5414 54.5115 16.2674 54.4984 16.0006 54.5456Z" fill="#7DC3E8"/>
<path d="M56.3635 34.5455H39.9998C38.9957 34.5455 38.1816 35.3596 38.1816 36.3637V41.8183C38.1816 42.8224 38.9957 43.6364 39.9998 43.6364H56.3635C57.3676 43.6364 58.1816 42.8224 58.1816 41.8183V36.3637C58.1816 35.3596 57.3676 34.5455 56.3635 34.5455Z" fill="#7DC3E8"/>
<path d="M14.5449 10.9092H25.454V72.7274H14.5449V10.9092Z" fill="#773D00"/>
<path d="M54.5449 10.9092H65.454V72.7274H54.5449V10.9092Z" fill="#773D00"/>
</svg>
