<svg width="80" height="82" viewBox="0 0 80 82" fill="none" xmlns="http://www.w3.org/2000/svg">
<path d="M29.1051 32.9146L31.3335 27.397C31.8526 26.1436 30.3303 23.1181 31.3335 22.3064L30.8442 19.5472C30.8228 19.5285 30.7953 19.547 30.7668 19.547L27.6197 19.5472C27.5913 19.5472 17.7285 24.5528 17.7285 24.5528C19.0413 27.1366 26.203 32.2688 29.1051 32.9146Z" fill="#DD636E"/>
<path d="M27.5423 21.8845C27.5637 21.8659 27.5912 21.8558 27.6196 21.8558H30.7666C30.7951 21.8558 30.8227 21.8659 30.844 21.8845L31.3333 22.3067C31.3333 22.3067 34.5219 23.3775 36.3671 23.3775L36.9935 20.539C36.4186 20.539 35.8631 20.3325 35.4278 19.9572L33.7524 18.5123C33.476 18.274 33.1739 18.072 32.8534 17.9085C31.987 17.4666 31.4194 16.6004 31.4195 15.6277C31.4197 15.192 31.4197 14.8503 31.4197 14.8503C31.4197 12.5745 30.1101 10.5084 28.0835 9.58711C27.0591 9.12143 26.4426 8.09177 26.5125 6.96427C26.5945 5.6416 27.6949 4.54139 29.0174 4.45921C29.958 4.40383 30.8373 4.81333 31.4034 5.60904C31.7258 6.06212 31.8718 6.6127 31.879 7.16886C31.8948 8.40392 32.9163 9.39672 34.1622 9.36576C35.3813 9.33544 36.3511 8.24401 36.3312 7.02459C36.2997 5.10347 35.4838 3.25479 34.0815 1.93691C32.6308 0.57338 30.7339 -0.10966 28.7415 0.0146599C25.1592 0.236967 22.2901 3.10605 22.0676 6.68834C21.8822 9.6752 23.52 12.4043 26.2402 13.6411C26.6813 13.8417 26.9662 14.3164 26.9662 14.8505C26.9662 14.8505 26.9664 15.1922 26.9664 15.6279C26.9665 16.6004 26.3989 17.4668 25.5325 17.9087C25.2118 18.0721 24.9097 18.2742 24.6333 18.5124L22.9581 19.9573C22.5229 20.3327 21.9672 20.5392 21.3926 20.5392H19.3481C19.3481 20.5392 18.4529 22.6222 18.6192 23.3397C18.8 24.1193 20.4106 24.9925 20.4106 24.9925H21.3926C23.0351 24.9925 24.623 24.4024 25.8668 23.3296L27.5423 21.8845Z" fill="#D09080"/>
<path d="M21.6009 43.2924L27.0453 30.1485C22.6411 29.1685 19.3485 25.2381 19.3485 20.5387H14.7622C11.5856 20.5387 8.67437 22.4435 7.4358 25.4341L0.0387065 43.2924C-0.0683775 43.5508 0.0543462 43.8471 0.31288 43.9542L9.46354 47.7446V80.7994C9.46354 81.3019 9.87097 81.7095 10.3737 81.7095H31.0257V47.7446L21.8751 43.9542C21.6165 43.8471 21.4938 43.5509 21.6009 43.2924Z" fill="#E4989D"/>
<path d="M20.8947 25.8358L16.9501 35.3586C15.7803 38.1829 17.1214 41.4206 19.9456 42.5904L21.0338 43.0412C21.2271 43.1213 21.4141 43.2115 21.5943 43.3111L26.3189 36.3752L27.0463 30.1487C24.4698 29.5753 22.2737 27.992 20.8947 25.8358Z" fill="#E28086"/>
<path d="M23.0008 44.42C23.9148 45.4203 24.4507 46.7437 24.4507 48.1547V71.8466C24.4507 75.4776 21.5071 78.4212 17.8761 78.4212H9.46484V80.7993C9.46484 81.3018 9.87227 81.7094 10.375 81.7094H31.027L34.0552 47.7446L23.0008 44.42Z" fill="#E28086"/>
<path d="M9.46499 47.7447V31.2791C9.46499 30.598 8.91297 30.0461 8.23201 30.0461C7.55104 30.0461 6.99902 30.5982 6.99902 31.2791V46.7232L9.46499 47.7447Z" fill="#E28086"/>
<path d="M52.8881 20.5388H48.6215C48.5831 20.5388 38.8486 24.7911 38.8486 24.7911C41.0524 29.1285 45.5566 32.1004 50.7549 32.1004C55.9532 32.1004 60.4574 29.1285 62.6612 24.7911C62.6612 24.7911 52.9268 20.5388 52.8881 20.5388Z" fill="#F1CB86"/>
<path d="M42.9549 24.9921C44.5974 24.9921 46.1853 24.402 47.4292 23.3292L49.1044 21.8843C49.1257 21.8656 49.1532 21.8556 49.1816 21.8556H52.3287C52.3571 21.8556 52.3846 21.8656 52.4061 21.8843L54.0815 23.3292C55.3253 24.402 56.9132 24.9921 58.5557 24.9921H59.5375C59.5375 24.9921 61.4999 24.2773 61.6705 23.6996C61.9318 22.8145 60.6 20.5388 60.6 20.5388H58.5557C57.981 20.5388 57.4253 20.3323 56.99 19.9569L55.3146 18.512C55.0382 18.2738 54.7361 18.0717 54.4156 17.9083C53.5492 17.4664 52.9816 16.6002 52.9817 15.6275C52.9819 15.1918 52.9819 14.8501 52.9819 14.8501C52.9819 12.5742 51.6723 10.5082 49.6457 9.58687C48.6213 9.12119 48.0048 8.09152 48.0747 6.96403C48.1567 5.64136 49.2571 4.54115 50.5796 4.45896C51.5202 4.40358 52.3996 4.81309 52.9656 5.6088C53.288 6.06187 53.434 6.61245 53.4412 7.16862C53.457 8.40368 54.4785 9.39648 55.7244 9.36552C56.9435 9.3352 57.9133 8.24377 57.8934 7.02435C57.862 5.10322 57.046 3.25455 55.6437 1.93666C54.193 0.573136 52.2961 -0.109904 50.3037 0.0144158C46.7214 0.236723 43.8523 3.10581 43.6298 6.6881C43.4444 9.67496 45.0823 12.4041 47.8024 13.6409C48.2435 13.8415 48.5284 14.3161 48.5284 14.8503C48.5284 14.8503 48.5284 15.1919 48.5286 15.6276C48.5287 16.6002 47.9611 17.4666 47.0947 17.9085C46.7741 18.0719 46.4719 18.2739 46.1955 18.5122L44.5203 19.9571C44.0851 20.3325 43.5295 20.539 42.9548 20.539H40.9103C40.9103 20.539 40.0782 22.1979 40.2255 22.8749C40.4055 23.7025 41.9728 24.9923 41.9728 24.9923H42.9549V24.9921Z" fill="#D09080"/>
<path d="M72.6034 25.4342C71.3638 22.4418 68.4515 20.5388 65.277 20.5388H60.6004C60.6004 25.976 56.1927 30.3835 50.7555 30.3835C45.3183 30.3835 40.9108 25.9758 40.9108 20.5388H36.3247C33.1481 20.5388 30.2369 22.4437 28.9983 25.4342L21.6012 43.2923C21.4941 43.5507 21.6168 43.8471 21.8754 43.9542L31.026 47.7445V81.7093H69.6657C70.1682 81.7093 70.5758 81.3019 70.5758 80.7992V47.7445L79.7257 43.9545C79.8324 43.6967 79.8934 43.5494 80.0003 43.2915L72.6034 25.4342Z" fill="#F4D8A5"/>
<path d="M79.9997 43.2915L72.6029 25.4342C71.3634 22.4418 68.451 20.5388 65.2765 20.5388H65.1306C65.4851 21.03 65.7872 21.5677 66.0267 22.146L72.6969 38.2493C73.2033 39.4718 72.6174 40.8864 71.3948 41.3928L68.5849 42.5566C65.8089 43.7065 63.999 46.4153 63.999 49.4201V71.8466C63.999 75.4776 61.0555 78.4212 57.4244 78.4212H31.0254V81.7093H69.665C70.1676 81.7093 70.5751 81.3019 70.5751 80.7992V47.7445L79.725 43.9546C79.8318 43.6967 79.8927 43.5494 79.9997 43.2915Z" fill="#F1CB86"/>
<path d="M56.0547 37.6669V42.6918C56.0547 44.4181 56.9106 46.0322 58.3397 47.0007C60.103 48.1957 62.4165 48.1957 64.18 47.0007C65.6091 46.0322 66.465 44.4183 66.465 42.6918V37.6669C66.465 37.3103 66.176 37.0215 65.8196 37.0215H56.7002C56.3437 37.0215 56.0547 37.3103 56.0547 37.6669Z" fill="#F6E266"/>
<path d="M66.281 44.0627C65.4895 44.8233 64.8752 45.7514 64.4844 46.7778C65.3647 46.0831 65.9901 45.1282 66.281 44.0627Z" fill="#ECBE6B"/>
<path d="M31.0255 47.7444V31.2789C31.0255 30.5978 30.4735 30.0459 29.7926 30.0459C29.1116 30.0459 28.5596 30.5979 28.5596 31.2789V46.7229L31.0255 47.7444Z" fill="#F1CB86"/>
<path d="M71.8082 30.0459C71.1271 30.0459 70.5752 30.5979 70.5752 31.2789V47.7444L73.0413 46.7229V31.2789C73.0413 30.5978 72.4893 30.0459 71.8082 30.0459Z" fill="#F1CB86"/>
<path d="M73.0412 31.2789C73.0412 30.5978 72.4891 30.0459 71.8082 30.0459C71.1271 30.0459 70.5752 30.5979 70.5752 31.2789V33.1271L72.6969 38.2494C73.2033 39.4718 72.6175 40.8864 71.3948 41.3928L70.5752 41.7323V47.7443L73.0413 46.7228V31.2789H73.0412Z" fill="#ECBE6B"/>
</svg>
