<svg width="80" height="80" viewBox="0 0 80 80" fill="none" xmlns="http://www.w3.org/2000/svg">
<path d="M63.4482 24.8276H80V80.0001H63.4482V24.8276Z" fill="#DBAD65"/>
<path d="M67.5858 0C72.9185 0 77.241 4.32247 77.241 9.65517V24.8276H57.9307V9.65517C57.9307 4.32247 62.2531 0 67.5858 0Z" fill="#FFAF83"/>
<path d="M63.0117 12.4852L71.2876 9.72388L72.1604 12.3397L63.8846 15.101L63.0117 12.4852Z" fill="#FFC7AB"/>
<path d="M63.0137 19.3817L71.2889 16.6204L72.1617 19.2355L63.8858 21.9975L63.0137 19.3817Z" fill="#FFC7AB"/>
<path d="M35.8623 0H52.414V8.27586H35.8623V0Z" fill="#AABECE"/>
<path d="M40 0H42.7586V4.13793H40V0Z" fill="#394D5C"/>
<path d="M45.5176 0H48.2762V4.13793H45.5176V0Z" fill="#394D5C"/>
<path d="M55.1725 24.8276C54.1158 23.5446 53.1917 22.1586 52.4139 20.6897C51.0676 17.4414 49.6552 8.27588 49.6552 8.27588H38.6208C38.6208 8.27588 37.2084 17.4414 35.8621 20.6897C35.0843 22.1586 34.1602 23.5446 33.1035 24.8276H55.1725Z" fill="#87CEE9"/>
<path d="M22.0693 24.8276H63.4486V80.0001H22.0693V24.8276Z" fill="#FFD782"/>
<path d="M49.6553 28.9656H63.4484V31.7242H49.6553V28.9656Z" fill="#DBAD65"/>
<path d="M56.5518 34.4828H63.4483V37.2414H56.5518V34.4828Z" fill="#DBAD65"/>
<path d="M40 31.7242H42.7586V34.4829H40V31.7242Z" fill="#DBAD65"/>
<path d="M27.5862 49.6551H0L5.51724 41.3793H31.7241L27.5862 49.6551Z" fill="#A9D39F"/>
<path d="M35.8618 49.6551H27.5859L31.7239 41.3793L35.8618 49.6551Z" fill="#86B279"/>
<path d="M5.51758 35.8621H31.7245V41.3793H5.51758V35.8621Z" fill="#BFE8B5"/>
<path d="M0 49.6552H27.5862V80H0V49.6552Z" fill="#D7EBF2"/>
<path d="M27.597 68.9656C25.2936 68.9656 25.2936 71.7242 22.9903 71.7242C20.687 71.7242 20.6897 68.9656 18.385 68.9656C16.0803 68.9656 16.0857 71.7242 13.7931 71.7242C11.5005 71.7242 11.4938 68.9656 9.19585 68.9656C6.8979 68.9656 6.89655 71.7242 4.59186 71.7242C2.28718 71.7242 2.29661 68.9656 0 68.9656V80.0001H27.597V68.9656Z" fill="#87CEE9"/>
<path d="M27.5859 49.6552H35.8618V80H27.5859V49.6552Z" fill="#A9D39F"/>
<path d="M22.0693 57.9311C22.0693 54.8842 18.3638 52.4138 13.7934 52.4138C9.22313 52.4138 5.51758 54.8842 5.51758 57.9311C5.51758 60.9779 9.22313 63.4483 13.7934 63.4483C18.3638 63.4483 22.0693 60.9779 22.0693 57.9311Z" fill="#F98C96"/>
<path d="M52.4139 55.1724H49.6553C49.6553 51.3557 51.6731 44.1379 59.3104 44.1379V46.8966C52.5297 46.8966 52.4139 54.8343 52.4139 55.1724Z" fill="#995F5B"/>
<path d="M40 44.1379H42.7586C47.3289 44.1379 51.0345 47.8435 51.0345 52.4138H48.2759C43.7055 52.4138 40 48.7083 40 44.1379Z" fill="#55B56A"/>
<path d="M80 77.5176V80.0001H78.3445L71.7241 70.0687L65.1037 80.0001H63.4482V77.5176L70.3448 67.1727V24.8276H73.1034V67.1727L80 77.5176Z" fill="#BC863F"/>
<path d="M63.4485 66.2069C63.4485 73.8248 57.2733 80 49.6554 80C42.0375 80 35.8623 73.8248 35.8623 66.2069C35.8623 58.5891 42.0375 52.4138 49.6554 52.4138C57.2733 52.4138 63.4485 58.5891 63.4485 66.2069Z" fill="#E97424"/>
<path d="M51.0345 75.862C42.7297 75.862 40.1859 69.5959 40 66.2843L42.7586 66.124C42.8044 66.8386 43.4287 73.1034 51.0345 73.1034V75.862Z" fill="#EFA573"/>
<path d="M41.3789 60.6897H44.1375V63.4483H41.3789V60.6897Z" fill="#EFA573"/>
<path d="M45.5176 56.5518H48.2762V59.3104H45.5176V56.5518Z" fill="#EFA573"/>
</svg>
