<svg width="126" height="128" viewBox="0 0 126 128" fill="none" xmlns="http://www.w3.org/2000/svg">
<path d="M21.3996 -3.6C25.1996 -1.6 29.3996 -0.400002 33.3996 0.399998C37.5996 0.999998 41.3996 1.2 45.1996 0.799998C47.1996 0.799998 48.7996 0.199997 50.5996 -2.38419e-06C52.1996 -0.400002 53.7996 -0.800002 55.3996 -1.4C58.3996 -2.6 20.3996 -4.2 21.3996 -3.6ZM2.39956 -1.4L2.59956 -1.2L2.99956 -0.800002L3.59956 -0.200002L4.79956 0.799998L5.99956 1.8L7.39956 2.8C8.39956 3.4 9.19956 4 10.1996 4.6C11.1996 5.2 11.9996 5.6 12.9996 6.2C16.7996 8.2 20.9996 9.4 24.9996 10.2C29.1996 10.8 32.9996 11 36.7996 10.6C38.7996 10.6 40.3996 10 42.1996 9.8C43.7996 9.4 45.3996 9 46.9996 8.4C49.9996 7.2 52.5996 5.8 54.7996 4.4C55.9995 3.8 56.9995 3.2 57.7996 2.4C58.7996 1.6 59.5996 0.999998 60.1996 0.399998C61.5996 -0.800002 62.5996 -2 63.1996 -2.6C63.7996 -3.4 63.7996 -3.6 62.9996 -3C62.1996 -2.4 61.1996 -1.6 59.5996 -0.600002C58.7996 -0.200002 57.9996 0.199998 56.9996 0.799998C56.1996 1.4 54.9996 1.8 53.9996 2.4C51.5996 3.4 48.9996 4.2 46.1996 5C44.5996 5.4 43.1996 5.6 41.5996 5.8C39.9996 6 38.3996 6.2 36.7996 6.2C33.3996 6.2 29.9996 5.8 26.3996 5C22.7996 4.2 19.3996 2.6 15.9996 0.999998L13.5996 -0.400002C12.7996 -0.800002 12.1996 -1.4 11.3996 -2L10.1996 -2.8C10.1996 -2.8 -0.400444 -4 2.39956 -1.4ZM-2.20044 11.6L-0.800444 12.6C0.199556 13.2 0.999557 13.8 1.99956 14.4C2.99956 15 3.79956 15.4 4.79956 16C8.59956 18 12.7996 19.2 16.7996 20C20.9996 20.6 24.7996 20.8 28.5996 20.4C30.5996 20.4 32.1996 19.8 33.9996 19.6C35.5996 19.2 37.1996 18.8 38.7996 18.2C41.7996 17 44.3996 15.6 46.5996 14.2C47.7996 13.6 48.7996 13 49.5996 12.2C50.5996 11.4 51.3996 10.8 51.9996 10.2C53.3996 9 54.3996 7.8 54.9996 7.2C55.5996 6.4 55.9996 6 55.9996 6C55.9996 6 55.5996 6.2 54.7996 6.8C53.9995 7.4 52.9996 8.2 51.3996 9.2C50.5996 9.6 49.7996 10 48.7996 10.6C47.9996 11.2 46.7996 11.6 45.7996 12.2C43.3996 13.2 40.7996 14 37.9996 14.8C36.3996 15.2 34.9996 15.4 33.3996 15.6C31.7996 15.8 30.1996 16 28.5996 16C25.1996 16 21.7996 15.6 18.1996 14.8C14.5996 14 11.1996 12.4 7.79956 10.8L5.39956 9.4C4.59956 9 3.99956 8.4 3.19956 7.8L1.99956 7L0.799557 6L-0.400443 5L-1.00044 4.4L-1.20044 4.2L-1.40044 4C-4.60044 0.999998 -2.20044 11.6 -2.20044 11.6ZM72.1996 -1.8C70.9996 -1.2 69.9996 -0.600002 69.1996 0.199998C68.1996 0.999998 67.5996 1.6 66.7996 2.2C65.3996 3.4 64.3996 4.6 63.7996 5.2C63.1996 6 62.7996 6.4 62.7996 6.4C62.7996 6.4 63.1996 6.2 63.9996 5.6C64.7996 5 65.7996 4.2 67.3996 3.2C68.1996 2.8 68.9996 2.4 69.9996 1.8C70.7996 1.2 71.9996 0.799998 72.9996 0.199998C75.3996 -0.800002 77.9996 -1.6 80.7996 -2.4C82.3996 -2.8 83.7996 -3 85.3996 -3.2C86.9996 -3.4 88.5996 -3.6 90.1996 -3.6C93.5996 -3.6 96.9996 -3.2 100.6 -2.4C104.2 -1.6 107.6 -0.200002 111 1.6C114.4 3.4 117.4 5.8 120.2 8.4L120.4 8.6L120.8 9L121.4 9.6L122.6 10.6L123.8 11.6L125.2 12.6C126.2 13.2 127 13.8 128 14.4C129 15 129.8 15.4 130.8 16C134.6 18 137.2 12.4 133.8 10.8L131.4 9.4C130.6 9 130 8.4 129.2 7.8L128 7L126.8 6L125.6 5L125 4.4L124.8 4.2L124.6 4C121.421 1.00562 117.856 -1.55035 114 -3.6C110.2 -5.6 74.3996 -3.2 72.1996 -1.8ZM-3.60044 25.8C0.199556 27.8 4.39956 29 8.39956 29.8C12.5996 30.4 16.3996 30.6 20.1996 30.2C22.1996 30.2 23.7996 29.6 25.5996 29.4C27.1996 29 28.7996 28.6 30.3996 28C33.3996 26.8 35.9996 25.4 38.1996 24C39.3996 23.4 40.3996 22.8 41.1996 22C42.1996 21.2 42.9996 20.6 43.5996 20C44.9996 18.8 45.9996 17.6 46.5996 17C47.1996 16.2 47.5996 15.8 47.5996 15.8C47.5996 15.8 47.1996 16 46.3996 16.6C45.5996 17.2 44.5996 18 42.9996 19C42.1996 19.4 41.3996 19.8 40.3996 20.4C39.5996 21 38.3996 21.4 37.3996 22C34.9996 23 32.3996 23.8 29.5996 24.6C27.9996 25 26.5996 25.2 24.9996 25.4C23.3996 25.6 21.7996 25.8 20.1996 25.8C16.7996 25.8 13.3996 25.4 9.79956 24.6C6.19956 23.8 2.79956 22.2 -0.600444 20.6L-3.00044 19.2C-3.80044 18.8 -4.60044 25.2 -3.60044 25.8ZM84.6596 1.6C82.7623 1.68246 80.872 1.88285 78.9996 2.2C78.1996 2.2 77.1996 2.4 76.3996 2.6C74.7996 3 73.1996 3.4 71.5996 4C68.5996 5.2 65.9995 6.6 63.7996 8C62.5996 8.6 61.5996 9.2 60.7996 10C59.7996 10.8 59.1996 11.4 58.3996 12C56.9996 13.2 55.9996 14.4 55.3996 15C54.7996 15.8 54.3996 16.2 54.3996 16.2C54.3996 16.2 54.7996 16 55.5996 15.4C56.3996 14.8 57.3996 14 58.9996 13C59.7996 12.6 60.5996 12.2 61.5996 11.6C62.3996 11 63.5996 10.6 64.5996 10C66.9996 9 69.5996 8.2 72.3996 7.4C73.9996 7 75.3996 6.8 76.9996 6.6C78.5996 6.4 80.1996 6.2 81.7996 6.2C85.1996 6.2 88.5996 6.6 92.1996 7.4C99.6008 9.13151 106.382 12.8682 111.8 18.2L112 18.4L112.4 18.8L113 19.4L114.2 20.4L115.4 21.4L116.8 22.4C117.8 23 118.6 23.6 119.6 24.2C120.6 24.8 121.4 25.2 122.4 25.8C126.2 27.8 130.4 29 134.4 29.8C138.6 30.4 139.4 25.4 135.8 24.6C132.2 23.8 128.8 22.2 125.4 20.6L123 19.2C122.2 18.8 121.6 18.2 120.8 17.6L119.6 16.8L118.4 15.8L117.2 14.8L116.6 14.2L116.4 14L116.2 13.8C113.021 10.8056 109.456 8.24965 105.6 6.2C101.8 4.2 97.5996 3 93.5996 2.2C90.6423 1.74364 87.6513 1.5429 84.6596 1.6ZM-11.8004 35.8C-8.00044 37.8 -3.80044 39 0.199556 39.8C4.39956 40.4 8.19956 40.6 11.9996 40.2C13.9996 40.2 15.5996 39.6 17.3996 39.4C18.9996 39 20.5996 38.6 22.1996 38C25.1996 36.8 27.7996 35.4 29.9996 34C31.1996 33.4 32.1996 32.8 32.9996 32C33.9996 31.2 34.7996 30.6 35.3996 30C36.7996 28.8 37.7996 27.6 38.3996 27C38.9996 26.2 39.3996 25.8 39.3996 25.8C39.3996 25.8 38.9996 26 38.1996 26.6C37.3996 27.2 36.3996 28 34.7996 29C33.9996 29.4 33.1996 29.8 32.1996 30.4C31.3996 31 30.1996 31.4 29.1996 32C26.7996 33 24.1996 33.8 21.3996 34.6C19.7996 35 18.3996 35.2 16.7996 35.4C15.1996 35.6 13.5996 35.8 11.9996 35.8C8.59956 35.8 5.19956 35.4 1.59956 34.6C-2.00044 33.8 -5.40044 32.2 -8.80044 30.6C-8.80044 30.6 -12.8004 35.2 -11.8004 35.8ZM76.4596 11.6C74.5623 11.6825 72.672 11.8828 70.7996 12.2C69.9996 12.2 68.9996 12.4 68.1996 12.6C66.5996 13 64.9996 13.4 63.3996 14C60.3996 15.2 57.7996 16.6 55.5996 18C54.3996 18.6 53.3996 19.2 52.5996 20C51.5996 20.8 50.9996 21.4 50.1996 22C48.7996 23.2 47.7996 24.4 47.1996 25C46.5996 25.8 46.1996 26.2 46.1996 26.2C46.1996 26.2 46.5996 26 47.3996 25.4C48.1996 24.8 49.1996 24 50.7996 23C51.5996 22.6 52.3996 22.2 53.3996 21.6C54.1996 21 55.3996 20.6 56.3996 20C58.7996 19 61.3996 18.2 64.1996 17.4C65.7996 17 67.1996 16.8 68.7996 16.6C70.3996 16.4 71.9996 16.2 73.5996 16.2C76.9996 16.2 80.3996 16.6 83.9996 17.4C87.5996 18.2 90.9996 19.6 94.3996 21.4C97.7996 23.2 100.8 25.6 103.6 28.2L103.8 28.4L104.2 28.8L104.8 29.4L106 30.4L107.2 31.4L108.6 32.4C109.6 33 110.4 33.6 111.4 34.2C112.4 34.8 113.2 35.2 114.2 35.8C118 37.8 122.2 39 126.2 39.8C130.4 40.4 134.2 40.6 138 40.2C140 40.2 139.6 35.8 138 35.8C134.6 35.8 131.2 35.4 127.6 34.6C124 33.8 120.6 32.2 117.2 30.6L114.8 29.2C114 28.8 113.4 28.2 112.6 27.6L111.4 26.8L110.2 25.8L109 24.8L108.4 24.2L108.2 24L108 23.8C104.821 20.8056 101.256 18.2497 97.3996 16.2C93.5996 14.2 89.3996 13 85.3996 12.2C82.4423 11.7434 79.4513 11.5427 76.4596 11.6ZM71.3396 26C68.4796 25.92 65.5396 26.16 62.3996 26.6C58.3996 27.4 54.1996 28.6 50.3996 30.6C46.5996 32.6 42.9996 35.2 39.7996 38.2L39.5996 38.4L39.3996 38.6L38.7996 39.2L37.5996 40.2L36.3996 41.2L35.1996 42C34.3996 42.6 33.7996 43.2 32.9996 43.6L30.5996 45C27.1996 46.6 23.7996 48.2 20.1996 49C16.5996 49.8 13.1996 50.2 9.79956 50.2C8.19956 50.2 6.59956 50 4.99956 49.8C3.39956 49.6 1.99956 49.4 0.399556 49C-2.40044 48.2 -5.00044 47.4 -7.40044 46.4C-8.40044 45.8 -9.40044 47.8 -8.20044 48.4C-4.38994 50.9993 -0.110615 52.8333 4.39956 53.8C6.19956 54 7.79956 54.6 9.79956 54.6C13.5996 55 17.3996 54.8 21.5996 54.2C25.5996 53.4 29.7996 52.2 33.5996 50.2C34.5996 49.6 35.3996 49.2 36.3996 48.6C37.3996 48 38.1996 47.4 39.1996 46.8L40.5996 45.8L41.7996 44.8L42.9996 43.8L43.5996 43.2L43.9996 42.8L44.1996 42.6C49.617 37.2682 56.3983 33.5315 63.7996 31.8C67.3996 31 70.7996 30.6 74.1996 30.6C75.7996 30.6 77.3996 30.8 78.9996 31C80.5996 31.2 81.9996 31.4 83.5996 31.8C86.3996 32.6 88.9996 33.4 91.3996 34.4C92.3996 35 93.5996 35.4 94.3996 36C95.3996 36.6 96.1996 37 96.9996 37.4C98.5996 38.4 99.5996 39.2 100.4 39.8C101.2 40.4 101.6 40.6 101.6 40.6C101.6 40.6 101.2 40.2 100.6 39.4C99.9996 38.8 98.9996 37.6 97.5996 36.4C96.7996 35.8 96.1996 35.2 95.1996 34.4C94.3996 33.6 93.3996 33 92.1996 32.4C89.9996 31 87.3996 29.6 84.3996 28.4C82.7996 27.8 81.1996 27.4 79.5996 27C78.7996 26.8 77.7996 26.6 76.9996 26.6C75.1272 26.2828 73.2368 26.0825 71.3396 26ZM131 49.8C129.4 49.6 128 49.4 126.4 49C123.6 48.2 121 47.4 118.6 46.4C117.6 45.8 116.4 45.4 115.6 44.8C114.6 44.2 113.8 43.8 113 43.4C111.4 42.4 110.4 41.6 109.6 41C108.8 40.4 108.4 40.2 108.4 40.2C108.4 40.2 108.8 40.6 109.4 41.4C110 42 111 43.2 112.4 44.4C113 45 113.8 45.6 114.8 46.4C115.6 47.2 116.6 47.8 117.8 48.4C121.61 50.9993 125.889 52.8333 130.4 53.8C132.2 54 132.6 50 131 49.8ZM79.7396 35.8C76.8796 35.72 73.9396 35.94 70.7996 36.4C66.7996 37.2 62.5996 38.4 58.7996 40.4C54.9995 42.4 51.3996 45 48.1996 48L47.9996 48.2L47.7996 48.4L47.1996 49L45.9996 50L44.7996 51L43.5996 51.8C42.7996 52.4 42.1996 53 41.3996 53.4L38.9996 54.8C35.5996 56.4 32.1996 58 28.5996 58.8C24.9996 59.6 21.5996 60 18.1996 60C16.5996 60 14.9996 59.8 13.3996 59.6C11.7996 59.4 10.3996 59.2 8.79956 58.8C5.99956 58 3.39956 57.2 0.999557 56.2C-0.000443459 55.6 -1.20044 55.2 -2.00044 54.6C-3.00044 54 -3.80044 55.4 -2.80044 56.2C-2.00044 57 -1.00044 57.6 0.199556 58.2C4.01006 60.7993 8.28938 62.6333 12.7996 63.6C14.5996 63.8 16.1996 64.4 18.1996 64.4C21.9996 64.8 25.7996 64.6 29.9996 64C33.9996 63.2 38.1996 62 41.9996 60C42.9996 59.4 43.7996 59 44.7996 58.4C45.7996 57.8 46.5996 57.2 47.5996 56.6L48.9996 55.6L50.1996 54.6L51.3996 53.6L51.9996 53L52.3996 52.6L52.5996 52.4C55.3996 49.8 58.3996 47.4 61.7996 45.6C65.1996 43.8 68.5996 42.4 72.1996 41.6C75.7996 40.8 79.1996 40.4 82.5996 40.4C84.1996 40.4 85.7996 40.6 87.3996 40.8C88.9996 41 90.3996 41.2 91.9996 41.6C94.7996 42.4 97.3996 43.2 99.7996 44.2C100.8 44.8 102 45.2 102.8 45.8C103.8 46.4 104.6 46.8 105.4 47.2C107 48.2 108 49 108.8 49.6C109.6 50.2 110 50.4 110 50.4C110 50.4 109.6 50 109 49.2C108.4 48.6 107.4 47.4 106 46.2C105.2 45.6 104.6 45 103.6 44.2C102.8 43.4 101.8 42.8 100.6 42.2C98.3996 40.8 95.7996 39.4 92.7996 38.2C91.1996 37.6 89.5996 37.2 87.9996 36.8C87.1996 36.6 86.1996 36.4 85.3996 36.4C84.5996 36.2 83.5996 36 82.5996 36C81.6596 35.9 80.6996 35.84 79.7396 35.8ZM134.8 58.8C132 58 129.4 57.2 127 56.2C126 55.6 124.8 55.2 124 54.6C123 54 122.2 53.6 121.4 53.2C119.8 52.2 118.8 51.4 118 50.8C117.2 50.2 116.8 50 116.8 50C116.8 50 117.2 50.4 117.8 51.2C118.4 51.8 119.4 53 120.8 54.2C121.4 54.8 122.2 55.4 123.2 56.2C124 57 125 57.6 126.2 58.2C128.4 59.8 131 61 134 62.2C135.6 62.8 136.4 59.2 134.8 58.8ZM88.1396 45.6C85.2796 45.52 82.3396 45.74 79.1996 46.2C75.1996 47 70.9996 48.2 67.1996 50.2C63.3996 52.2 59.7996 54.8 56.5996 57.8L56.3996 58L56.1996 58.2L55.5996 58.8L54.3996 59.8L53.1996 60.8L51.9996 61.6C51.1996 62.2 50.5996 62.8 49.7996 63.2L47.3996 64.6C43.9996 66.2 40.5996 67.8 36.9996 68.6C33.3996 69.4 29.9996 69.8 26.5996 69.8C24.9996 69.8 23.3996 69.6 21.7996 69.4C20.1996 69.2 18.7996 69 17.1996 68.6C14.3996 67.8 11.7996 67 9.39956 66C8.39956 65.4 7.19956 65 6.39956 64.4C5.39956 63.8 4.59956 63.4 3.79956 63C2.19956 62 1.19956 61.2 0.399556 60.6C-0.400444 60 -0.800444 59.8 -0.800444 59.8C-0.800444 59.8 -0.400444 60.2 0.199556 61C0.799557 61.6 1.79956 62.8 3.19956 64C3.79956 64.6 4.59956 65.2 5.59956 66C6.39956 66.8 7.39956 67.4 8.59956 68C10.7996 69.4 13.3996 70.8 16.3996 72C17.9996 72.6 19.5996 73 21.1996 73.4C22.9996 73.6 24.5996 74.2 26.5996 74.2C30.3996 74.6 34.1996 74.4 38.3996 73.8C42.3996 73 46.5996 71.8 50.3996 69.8C51.3996 69.2 52.1996 68.8 53.1996 68.2C54.1996 67.6 54.9996 67 55.9996 66.4L57.3996 65.4L58.5996 64.4L59.7996 63.4L60.3996 62.8L60.7996 62.4L60.9996 62.2C66.417 56.8682 73.1983 53.1315 80.5996 51.4C84.1996 50.6 87.5996 50.2 90.9996 50.2C92.5996 50.2 94.1996 50.4 95.7996 50.6C97.3996 50.8 98.7996 51 100.4 51.4C103.2 52.2 105.8 53 108.2 54C109.2 54.6 110.4 55 111.2 55.6C112.2 56.2 113 56.6 113.8 57C115.4 58 116.4 58.8 117.2 59.4C118 60 118.4 60.2 118.4 60.2C118.4 60.2 118 59.8 117.4 59C116.8 58.4 115.8 57.2 114.4 56C113.6 55.4 113 54.8 112 54C111.2 53.2 110.2 52.6 109 52C106.8 50.6 104.2 49.2 101.2 48C99.5996 47.4 97.9996 47 96.3996 46.6C95.5996 46.4 94.5996 46.2 93.7996 46.2C92.9996 46 91.9996 45.8 90.9996 45.8C90.0596 45.7 89.0996 45.64 88.1396 45.6ZM129.8 63C128.2 62 127.2 61.2 126.4 60.6C125.6 60 125.2 59.8 125.2 59.8C125.2 59.8 125.6 60.2 126.2 61C126.8 61.6 127.8 62.8 129.2 64C129.8 64.6 130.6 63.4 129.8 63ZM-0.600444 69.2C0.199556 69.8 0.599557 70 0.599557 70C0.599557 70 0.199557 69.6 -0.400443 68.8C-1.00044 68.2 -1.40044 68.6 -0.600444 69.2ZM96.3396 55.4C93.4796 55.32 90.5396 55.54 87.3996 56C83.3996 56.8 79.1996 58 75.3996 60C71.5996 62 67.9996 64.6 64.7996 67.6L64.5996 67.8L64.3996 68L63.7996 68.6L62.5996 69.6L61.3996 70.6L60.1996 71.4C59.3996 72 58.7996 72.6 57.9996 73L55.5996 74.4C52.1996 76 48.7996 77.6 45.1996 78.4C41.5996 79.2 38.1996 79.6 34.7996 79.6C33.1996 79.6 31.5996 79.4 29.9996 79.2C28.3996 79 26.9996 78.8 25.3996 78.4C22.5996 77.6 19.9996 76.8 17.5996 75.8C16.5996 75.2 15.3996 74.8 14.5996 74.2C13.5996 73.6 12.7996 73.2 11.9996 72.8C10.3996 71.8 9.39956 71 8.59956 70.4C7.79956 69.8 7.39956 69.6 7.39956 69.6C7.39956 69.6 7.79955 70 8.39956 70.8C8.99956 71.4 9.99956 72.6 11.3996 73.8C11.9996 74.4 12.7996 75 13.7996 75.8C14.5996 76.6 15.5996 77.2 16.7996 77.8C18.9996 79.2 21.5996 80.6 24.5996 81.8C26.1996 82.4 27.7996 82.8 29.3996 83.2C31.1996 83.4 32.7996 84 34.7996 84C38.5996 84.4 42.3996 84.2 46.5996 83.6C50.5996 82.8 54.7996 81.6 58.5996 79.6C59.5996 79 60.3996 78.6 61.3996 78C62.3996 77.4 63.1996 76.8 64.1996 76.2L65.5996 75.2L66.7996 74.2L67.9996 73.2L68.5996 72.6L68.9996 72.2L69.1996 72C74.617 66.6682 81.3983 62.9315 88.7996 61.2C92.3996 60.4 95.7996 60 99.1996 60C100.8 60 102.4 60.2 104 60.4C105.6 60.6 107 60.8 108.6 61.2C111.4 62 114 62.8 116.4 63.8C117.4 64.4 118.6 64.8 119.4 65.4C120.4 66 121.2 66.4 122 66.8C123.6 67.8 124.6 68.6 125.4 69.2C126.2 69.8 126.6 70 126.6 70C126.6 70 126.2 69.6 125.6 68.8C125 68.2 124 67 122.6 65.8C121.8 65.2 121.2 64.6 120.2 63.8C119.4 63 118.4 62.4 117.2 61.8C115 60.4 112.4 59 109.4 57.8C107.8 57.2 106.2 56.8 104.6 56.4C103.8 56.2 102.8 56 102 56C100.127 55.6828 98.2368 55.4825 96.3396 55.4ZM-1.20044 73.6C-0.200443 74.2 0.999557 74.6 1.79956 75.2C2.79956 75.8 3.59956 76.2 4.39956 76.6C5.99956 77.6 6.99956 78.4 7.79956 79C8.59956 79.6 8.99956 79.8 8.99956 79.8C8.99956 79.8 8.59956 79.4 7.99956 78.6C7.39956 78 6.39956 76.8 4.99956 75.6C4.19956 75 3.59956 74.4 2.59956 73.6C1.79956 72.8 0.799557 72.2 -0.400443 71.6C-2.60044 70.2 -5.20044 68.8 -8.20044 67.6C-9.80044 67 -3.60044 72.6 -1.20044 73.6ZM104.74 65.2C101.88 65.12 98.9396 65.36 95.7996 65.8C91.7996 66.6 87.5996 67.8 83.7996 69.8C79.9996 71.8 76.3996 74.4 73.1996 77.4L72.9996 77.6L72.7996 77.8L72.1996 78.4L70.9996 79.4L69.7996 80.4L68.5996 81.2C67.7996 81.8 67.1996 82.4 66.3996 82.8L63.9996 84.2C60.5996 85.8 57.1996 87.4 53.5996 88.2C49.9996 89 46.5996 89.4 43.1996 89.4C41.5996 89.4 39.9996 89.2 38.3996 89C36.7996 88.8 35.3996 88.6 33.7996 88.2C30.9996 87.4 28.3996 86.6 25.9996 85.6C24.9996 85 23.7996 84.6 22.9996 84C21.9996 83.4 21.1996 83 20.3996 82.6C18.7996 81.6 17.7996 80.8 16.9996 80.2C16.1996 79.6 15.7996 79.4 15.7996 79.4C15.7996 79.4 16.1996 79.8 16.7996 80.6C17.3996 81.2 18.3996 82.4 19.7996 83.6C20.3996 84.2 21.1996 84.8 22.1996 85.6C22.9996 86.4 23.9996 87 25.1996 87.6C27.3996 89 29.9996 90.4 32.9996 91.6C34.5996 92.2 36.1996 92.6 37.7996 93C39.5996 93.2 41.1996 93.8 43.1996 93.8C46.9996 94.2 50.7996 94 54.9996 93.4C58.9996 92.6 63.1996 91.4 66.9996 89.4C67.9996 88.8 68.7996 88.4 69.7996 87.8C70.7996 87.2 71.5996 86.6 72.5996 86L73.9996 85L75.1996 84L76.3996 83L76.9996 82.4L77.3996 82L77.5996 81.8C80.3996 79.2 83.3996 76.8 86.7996 75C90.1996 73.2 93.5996 71.8 97.1996 71C100.8 70.2 104.2 69.8 107.6 69.8C109.2 69.8 110.8 70 112.4 70.2C114 70.4 115.4 70.6 117 71C119.8 71.8 122.4 72.6 124.8 73.6C125.8 74.2 127 74.6 127.8 75.2C128.8 75.8 129.6 74.4 128.6 73.6C127.8 72.8 126.8 72.2 125.6 71.6C123.4 70.2 120.8 68.8 117.8 67.6C116.2 67 114.6 66.6 113 66.2C112.2 66 111.2 65.8 110.4 65.8C109.6 65.6 108.6 65.4 107.6 65.4C106.66 65.3 105.7 65.24 104.74 65.2ZM-5.40044 80.2C-3.80044 80.4 -2.40044 80.6 -0.800444 81C1.99956 81.8 4.59956 82.6 6.99956 83.6C7.99956 84.2 9.19956 84.6 9.99956 85.2C10.9996 85.8 11.7996 86.2 12.5996 86.6C14.1996 87.6 15.1996 88.4 15.9996 89C16.7996 89.6 17.1996 89.8 17.1996 89.8C17.1996 89.8 16.7996 89.4 16.1996 88.6C15.5996 88 14.5996 86.8 13.1996 85.6C12.3996 85 11.7996 84.4 10.7996 83.6C9.99956 82.8 8.99956 82.2 7.79956 81.6C5.59956 80.2 2.99956 78.8 -0.000443459 77.6C-1.60044 77 -3.20044 76.6 -4.80044 76.2C-5.60044 76 -7.00044 80 -5.40044 80.2ZM112.94 75.2C110.08 75.12 107.14 75.36 104 75.8C99.9996 76.6 95.7996 77.8 91.9996 79.8C88.1996 81.8 84.5996 84.4 81.3996 87.4L81.1996 87.6L80.9996 87.8L80.3996 88.4L79.1996 89.4L77.9996 90.4L76.7996 91.2C75.9996 91.8 75.3996 92.4 74.5996 92.8L72.1996 94.2C68.7996 95.8 65.3996 97.4 61.7996 98.2C58.1996 99 54.7996 99.4 51.3996 99.4C49.7996 99.4 48.1996 99.2 46.5996 99C44.9996 98.8 43.5996 98.6 41.9996 98.2C39.1996 97.4 36.5996 96.6 34.1996 95.6C33.1996 95 31.9996 94.6 31.1996 94C30.1996 93.4 29.3996 93 28.5996 92.6C26.9996 91.6 25.9996 90.8 25.1996 90.2C24.3996 89.6 23.9996 89.4 23.9996 89.4C23.9996 89.4 24.3996 89.8 24.9996 90.6C25.5996 91.2 26.5996 92.4 27.9996 93.6C28.5996 94.2 29.3996 94.8 30.3996 95.6C31.1996 96.4 32.1996 97 33.3996 97.6C35.5996 99 38.1996 100.4 41.1996 101.6C42.7996 102.2 44.3996 102.6 45.9996 103C47.7996 103.2 49.3996 103.8 51.3996 103.8C55.1996 104.2 58.9996 104 63.1996 103.4C67.1996 102.6 71.3996 101.4 75.1996 99.4C76.1996 98.8 76.9996 98.4 77.9996 97.8C78.9996 97.2 79.7996 96.6 80.7996 96L82.1996 95L83.3996 94L84.5996 93L85.1996 92.4L85.5996 92L85.7996 91.8C88.5996 89.2 91.5996 86.8 94.9996 85C98.3996 83.2 101.8 81.8 105.4 81C109 80.2 112.4 79.8 115.8 79.8C117.4 79.8 119 80 120.6 80.2C122.2 80.4 123.6 80.6 125.2 81C128 81.8 130.6 82.6 133 83.6C134 84.2 135 82.2 133.8 81.6C131.6 80.2 129 78.8 126 77.6C124.4 77 122.8 76.6 121.2 76.2C120.4 76 119.4 75.8 118.6 75.8C117.8 75.6 116.8 75.4 115.8 75.4C114.86 75.3 113.9 75.24 112.94 75.2ZM-7.94044 89.6C-8.90044 89.64 -12.4004 94.2 -10.8004 94.2C-7.40044 94.2 -4.00044 94.6 -0.400443 95.4C3.19956 96.2 6.59956 97.6 9.99956 99.4C13.3996 101.2 16.3996 103.6 19.1996 106.2L19.3996 106.4L19.7996 106.8L20.3996 107.4L21.5996 108.4L22.7996 109.4L24.1996 110.4C25.1996 111 25.9996 111.6 26.9996 112.2C27.9996 112.8 28.7996 113.2 29.7996 113.8C33.5996 115.8 37.7996 117 41.7996 117.8C45.9996 118.4 49.7996 118.6 53.5996 118.2C55.5996 118.2 57.1996 117.6 58.9996 117.4C60.5996 117 62.1996 116.6 63.7996 116C66.7996 114.8 69.3996 113.4 71.5996 112C72.7996 111.4 73.7996 110.8 74.5996 110C75.5996 109.2 76.3996 108.6 76.9996 108C78.3996 106.8 79.3996 105.6 79.9996 105C80.5996 104.2 80.9996 103.8 80.9996 103.8C80.9996 103.8 80.5996 104 79.7996 104.6C78.9996 105.2 77.9996 106 76.3996 107C75.5996 107.4 74.7996 107.8 73.7996 108.4C72.9996 109 71.7996 109.4 70.7996 110C68.3996 111 65.7996 111.8 62.9996 112.6C61.3996 113 59.9996 113.2 58.3996 113.4C56.7996 113.6 55.1996 113.8 53.5996 113.8C50.1996 113.8 46.7996 113.4 43.1996 112.6C39.5996 111.8 36.1996 110.2 32.7996 108.6L30.3996 107.2C29.5996 106.8 28.9996 106.2 28.1996 105.6L26.9996 104.8L25.7996 103.8L24.5996 102.8L23.9996 102.2L23.7996 102L23.5996 101.8C20.4653 98.7518 16.8924 96.1901 12.9996 94.2C9.19956 92.2 4.99956 91 0.999557 90.2C-1.95768 89.7436 -4.94874 89.5429 -7.94044 89.6ZM115.2 89.8C114.2 89.8 113.2 90 112.4 90.2C111.6 90.2 110.6 90.4 109.8 90.6C108.2 91 106.6 91.4 105 92C102 93.2 99.3996 94.6 97.1996 96C95.9996 96.6 94.9996 97.2 94.1996 98C93.1996 98.8 92.5996 99.4 91.7996 100C90.3996 101.2 89.3996 102.4 88.7996 103C88.1996 103.8 87.7996 104.2 87.7996 104.2C87.7996 104.2 88.1996 104 88.9996 103.4C89.7996 102.8 90.7996 102 92.3996 101C93.1996 100.6 93.9996 100.2 94.9996 99.6C95.7996 99 96.9996 98.6 97.9996 98C100.4 97 103 96.2 105.8 95.4C107.4 95 108.8 94.8 110.4 94.6C112 94.4 113.6 94.2 115.2 94.2C118.6 94.2 122 94.6 125.6 95.4C129.2 96.2 132.6 97.6 136 99.4C139.4 101.2 142.8 96.2 139 94.2C135.2 92.2 131 91 127 90.2C124.352 89.7928 121.678 89.5922 119 89.6C117.1 89.64 116.14 89.7 115.2 89.8ZM-8.80044 105.2C-1.39919 106.932 5.38215 110.668 10.7996 116L10.9996 116.2L11.3996 116.6L11.9996 117.2L13.1996 118.2L14.3996 119.2L15.7996 120.2C16.7996 120.8 17.5996 121.4 18.5996 122C19.5996 122.6 20.3996 123 21.3996 123.6C25.1996 125.6 29.3996 126.8 33.3996 127.6C37.5996 128.2 41.3996 128.4 45.1996 128C47.1996 128 48.7996 127.4 50.5996 127.2C52.1996 126.8 53.7996 126.4 55.3996 125.8C58.3996 124.6 60.9996 123.2 63.1996 121.8C64.3996 121.2 65.3996 120.6 66.1996 119.8C67.1996 119 67.9996 118.4 68.5996 117.8C69.9996 116.6 70.9996 115.4 71.5996 114.8C72.1996 114 72.5996 113.6 72.5996 113.6C72.5996 113.6 72.1996 113.8 71.3996 114.4C70.5996 115 69.5996 115.8 67.9996 116.8C67.1996 117.2 66.3996 117.6 65.3996 118.2C64.5996 118.8 63.3996 119.2 62.3996 119.8C59.9996 120.8 57.3996 121.6 54.5996 122.4C52.9996 122.8 51.5996 123 49.9996 123.2C48.3996 123.4 46.7996 123.6 45.1996 123.6C41.7996 123.6 38.3996 123.2 34.7996 122.4C31.1996 121.6 27.7996 120 24.3996 118.4L21.9996 117C21.1996 116.6 20.5996 116 19.7996 115.4L18.5996 114.6L17.3996 113.6L16.1996 112.6L15.5996 112L15.3996 111.8L15.1996 111.6C12.0207 108.606 8.45577 106.05 4.59956 104C0.799556 102 -3.40044 100.8 -7.40044 100C-10.5404 99.56 -12.4004 104.4 -8.80044 105.2ZM109.66 99.4C107.762 99.4825 105.872 99.6828 104 100C103.2 100 102.2 100.2 101.4 100.4C99.7996 100.8 98.1996 101.2 96.5996 101.8C93.5996 103 90.9996 104.4 88.7996 105.8C87.5996 106.4 86.5996 107 85.7996 107.8C84.7996 108.6 84.1996 109.2 83.3996 109.8C81.9996 111 80.9996 112.2 80.3996 112.8C79.7996 113.6 79.3996 114 79.3996 114C79.3996 114 79.7996 113.8 80.5996 113.2C81.3996 112.6 82.3996 111.8 83.9996 110.8C84.7996 110.4 85.5996 110 86.5996 109.4C87.3996 108.8 88.5996 108.4 89.5996 107.8C91.9996 106.8 94.5996 106 97.3996 105.2C98.9996 104.8 100.4 104.6 102 104.4C103.6 104.2 105.2 104 106.8 104C110.2 104 113.6 104.4 117.2 105.2C120.8 106 124.2 107.4 127.6 109.2C131 111 134.4 106 130.6 104C126.8 102 122.6 100.8 118.6 100C115.642 99.5436 112.651 99.3429 109.66 99.4ZM-6.80044 119C-3.40044 120.8 -0.400444 123.2 2.39956 125.8L2.59956 126L2.99956 126.4L3.59956 127L4.79956 128L5.99956 129L7.39956 130C8.39956 130.6 9.19956 131.2 10.1996 131.8C11.1996 132.4 11.9996 132.8 12.9996 133.4C16.7996 135.4 52.5996 133 54.7996 131.6C55.9995 131 56.9995 130.4 57.7996 129.6C58.7996 128.8 59.5996 128.2 60.1996 127.6C61.5996 126.4 62.5996 125.2 63.1996 124.6C63.7996 123.8 64.1996 123.4 64.1996 123.4C64.1996 123.4 63.7996 123.6 62.9996 124.2C62.1996 124.8 61.1996 125.6 59.5996 126.6C58.7996 127 57.9996 127.4 56.9996 128C56.1996 128.6 54.9996 129 53.9996 129.6C51.5996 130.6 48.9996 131.4 46.1996 132.2C44.5996 132.6 43.1996 132.8 41.5996 133C39.9996 133.2 38.3996 133.4 36.7996 133.4C33.3996 133.4 29.9996 133 26.3996 132.2C22.7996 131.4 19.3996 129.8 15.9996 128.2L13.5996 126.8C12.7996 126.4 12.1996 125.8 11.3996 125.2L10.1996 124.4L8.99956 123.4L7.79956 122.4L7.19956 121.8L6.99956 121.6L6.79956 121.4C3.62068 118.406 0.0557747 115.85 -3.80044 113.8C-7.60044 111.8 -10.2004 117.2 -6.80044 119ZM101.26 109.2C100.3 109.24 99.3396 109.3 98.3996 109.4C97.3996 109.4 96.3996 109.6 95.5996 109.8C94.7996 109.8 93.7996 110 92.9996 110.2C91.3996 110.6 89.7996 111 88.1996 111.6C85.1996 112.8 82.5996 114.2 80.3996 115.6C79.1996 116.2 78.1996 116.8 77.3996 117.6C76.3996 118.4 75.7996 119 74.9996 119.6C73.5996 120.8 72.5996 122 71.9996 122.6C71.3996 123.4 70.9996 123.8 70.9996 123.8C70.9996 123.8 71.3996 123.6 72.1996 123C72.9996 122.4 73.9996 121.6 75.5996 120.6C76.3996 120.2 77.1996 119.8 78.1996 119.2C78.9996 118.6 80.1996 118.2 81.1996 117.6C83.5996 116.6 86.1996 115.8 88.9996 115C90.5996 114.6 91.9996 114.4 93.5996 114.2C95.1996 114 96.7996 113.8 98.3996 113.8C101.8 113.8 105.2 114.2 108.8 115C112.4 115.8 115.8 117.2 119.2 119C122.6 120.8 125.6 123.2 128.4 125.8L128.6 126L132.8 121.4C129.621 118.406 126.056 115.85 122.2 113.8C118.4 111.8 114.2 110.6 110.2 109.8C107.242 109.344 104.251 109.143 101.26 109.2ZM93.0596 119C92.0996 119.04 91.1396 119.1 90.1996 119.2C89.1996 119.2 88.1996 119.4 87.3996 119.6C86.5996 119.6 85.5996 119.8 84.7996 120C83.1996 120.4 81.5996 120.8 79.9996 121.4C76.9996 122.6 74.3996 124 72.1996 125.4C70.9996 126 69.9996 126.6 69.1996 127.4C68.1996 128.2 67.5996 128.8 66.7996 129.4C65.3996 130.6 65.7996 131.4 67.3996 130.4C68.1996 130 68.9996 129.6 69.9996 129C70.7996 128.4 71.9996 128 72.9996 127.4C75.3996 126.4 77.9996 125.6 80.7996 124.8C82.3996 124.4 83.7996 124.2 85.3996 124C86.9996 123.8 88.5996 123.6 90.1996 123.6C93.5996 123.6 96.9996 124 100.6 124.8C104.2 125.6 107.6 127 111 128.8C114.4 130.6 124.8 131.4 124.8 131.4L124.6 131.2C121.421 128.206 117.856 125.65 114 123.6C110.2 121.6 106 120.4 102 119.6C99.0423 119.144 96.0513 118.943 93.0596 119Z" fill="#84C8FF" fill-opacity="0.15"/>
</svg>
