<svg width="315" height="262" viewBox="0 0 315 262" fill="none" xmlns="http://www.w3.org/2000/svg"
 id ="smallship">
<path d="M109.553 19.5525C109.552 19.5526 109.549 19.5529 109.546 19.5533M109.553 19.5525C109.553 19.5524 109.554 19.5524 109.553 19.5524L109.546 19.5533M109.553 19.5525L109.553 19.5525L109.551 19.5527L109.546 19.5533M109.553 19.5525L109.546 19.5533M109.303 17.5681C109.304 17.5679 109.307 17.5676 109.31 17.5673M109.303 17.5681C109.303 17.5681 109.303 17.5682 109.303 17.5681L109.31 17.5673M109.303 17.5681L109.304 17.5681L109.305 17.5678L109.31 17.5673M109.303 17.5681L109.31 17.5673M103.68 145.607L104.126 146.502L103.68 145.607C80.1787 157.328 57.8237 168.439 29.7098 176.757V122.228C29.7098 118.211 31.6983 114.455 35.0194 112.197L56.5376 97.5646C57.348 97.0136 58.538 96.4822 59.8168 96.0886C61.0956 95.695 62.3784 95.4653 63.3583 95.4653H97.9048H98.9048V94.4653V75.1169H135.777V94.4653V95.4653H136.777H166.564C170.846 95.4653 174.317 98.9365 174.317 103.218V114.6C147.175 123.924 125.235 134.859 103.68 145.607ZM84.0176 21.0459L83.5499 20.3981L82.8148 20.7113C80.5146 21.6914 77.9867 22.2382 75.3283 22.2382C64.7691 22.2382 56.2094 13.6781 56.2094 3.11883C56.2094 -7.44036 64.7691 -16 75.3283 -16C84.1059 -16 91.4328 -10.0458 93.6727 -1.96344L93.8876 -1.18821L94.6908 -1.23199C94.8571 -1.24106 95.02 -1.26418 95.1334 -1.28028C95.1493 -1.28253 95.1642 -1.28464 95.178 -1.28656C95.3084 -1.30469 95.3831 -1.31235 95.4471 -1.31235C103.247 -1.31235 109.571 5.01136 109.571 12.8118C109.571 14.7115 109.184 16.5199 108.5 18.1799L107.932 19.5605H109.425C109.436 19.5605 109.447 19.5604 109.456 19.5601C114.07 19.5736 117.807 23.3181 117.807 27.9354C117.807 32.561 114.057 36.3108 109.431 36.3108C104.805 36.3108 101.056 32.5615 101.056 27.9354C101.056 27.8623 101.063 27.7785 101.08 27.6543C101.083 27.6313 101.086 27.6049 101.09 27.576C101.104 27.4718 101.123 27.3345 101.134 27.2047L101.265 25.6962L99.8262 26.1684C98.4106 26.6331 96.9611 26.9354 95.4476 26.9354C90.7374 26.9354 86.5875 24.6054 84.0176 21.0459ZM282.986 247.815L282.987 247.816C286.76 253.458 282.368 260.965 275.601 260.442L17.794 240.189C11.2077 239.672 5.69964 235.041 4.01939 228.645C2.46375 222.721 1 215.432 1 209.016C1 202.4 2.33226 198.738 4.78273 196.373C7.29482 193.949 11.1454 192.705 16.7083 191.378L16.4763 190.405L16.7084 191.378C53.692 182.553 80.7363 169.067 108.552 155.197C118.047 150.462 127.632 145.682 137.733 141.028C177.443 122.73 225.405 106.205 307.829 101.554C311.488 101.347 314.437 104.546 313.946 108.184C309.075 144.271 291.85 188.506 271.42 219.616C269.264 222.9 269.195 227.144 271.393 230.438L282.986 247.815ZM98.9048 63.5819V54.0233C98.9048 49.1659 102.842 45.2289 107.698 45.2289H126.983C131.839 45.2289 135.777 49.166 135.777 54.0233V63.5819H98.9048ZM260.656 177.624C260.656 174.652 258.25 172.247 255.279 172.247C252.307 172.247 249.902 174.653 249.902 177.624C249.902 183.44 246.318 188.396 241.242 190.511V162.361C244.553 160.48 246.815 156.947 246.815 152.849C246.815 146.786 241.899 141.871 235.836 141.871C229.773 141.871 224.858 146.786 224.858 152.849C224.858 156.97 227.145 160.523 230.488 162.396V190.511C225.412 188.396 221.828 183.44 221.828 177.624C221.828 174.652 219.422 172.247 216.451 172.247C213.479 172.247 211.074 174.652 211.074 177.624C211.074 191.293 222.194 202.414 235.864 202.414C249.535 202.414 260.656 191.294 260.656 177.624Z" stroke="white" stroke-width="2"/>
</svg>
