<svg width="85" height="78" viewBox="0 0 85 78" fill="none" xmlns="http://www.w3.org/2000/svg">
<path d="M83.9069 12.208H35.6614C35.0583 12.208 34.5693 11.719 34.5693 11.1159C34.5693 10.5128 35.0583 10.0238 35.6614 10.0238H83.9069C84.51 10.0238 84.9989 10.5128 84.9989 11.1159C84.9989 11.719 84.51 12.208 83.9069 12.208Z" fill="black"/>
<path d="M83.9073 16.5765H46.4192C45.8161 16.5765 45.3271 16.0875 45.3271 15.4844C45.3271 14.8813 45.8161 14.3923 46.4192 14.3923H83.9073C84.5104 14.3923 84.9994 14.8813 84.9994 15.4844C84.9994 16.0875 84.5104 16.5765 83.9073 16.5765Z" fill="black"/>
<path d="M83.9069 7.83979H35.6614C35.0583 7.83979 34.5693 7.35083 34.5693 6.74772C34.5693 6.1446 35.0583 5.65564 35.6614 5.65564H83.9069C84.51 5.65564 84.9989 6.1446 84.9989 6.74772C84.9989 7.35083 84.51 7.83979 83.9069 7.83979Z" fill="black"/>
<path d="M34.5693 6.01778C34.5693 2.69961 37.2688 0 40.587 0H78.9813C82.2995 0 84.9989 2.69961 84.9989 6.01778V16.2144C84.9989 19.5326 82.2995 22.2322 78.9813 22.2322H40.587C37.2688 22.2322 34.5693 19.5326 34.5693 16.2144V6.01778Z" fill="#808B95"/>
<path d="M84.9989 11.116C84.9989 11.7191 84.51 12.2081 83.9069 12.2081H35.6614C35.0583 12.2081 34.5693 11.7191 34.5693 11.116C34.5693 10.5129 35.0583 10.0239 35.6614 10.0239H83.9069C84.51 10.0239 84.9989 10.5129 84.9989 11.116ZM35.6614 7.83976H83.9069C84.51 7.83976 84.9989 7.3508 84.9989 6.74768C84.9989 6.14457 84.51 5.65561 83.9069 5.65561H75.5191L79.3105 1.86421C79.737 1.43772 79.737 0.746216 79.3105 0.319869C78.8842 -0.106623 78.1927 -0.106623 77.7662 0.319869L72.4303 5.65561H69.1366L72.928 1.86421C73.3545 1.43772 73.3545 0.746216 72.928 0.319869C72.5015 -0.106623 71.81 -0.106623 71.3837 0.319869L66.0479 5.65561H62.7542L66.5456 1.86421C66.9721 1.43772 66.9721 0.746216 66.5456 0.319869C66.1191 -0.106623 65.4276 -0.106623 65.0013 0.319869L59.6655 5.65561H56.3718L60.1632 1.86421C60.5897 1.43772 60.5897 0.746216 60.1632 0.319869C59.7367 -0.106623 59.0452 -0.106623 58.6189 0.319869L53.2832 5.65561H49.9894L53.7809 1.86421C54.2073 1.43772 54.2073 0.746216 53.7809 0.319869C53.3545 -0.106623 52.663 -0.106623 52.2365 0.319869L46.9006 5.65561H43.6069L47.398 1.86436C47.8245 1.43786 47.8245 0.746361 47.398 0.320015C46.9717 -0.106478 46.2802 -0.106478 45.8537 0.320015L40.5178 5.65575H35.6614C35.0583 5.65575 34.5693 6.14471 34.5693 6.74783C34.5693 7.35095 35.0581 7.83976 35.6614 7.83976ZM83.9069 14.3922H35.6614C35.0583 14.3922 34.5693 14.8812 34.5693 15.4843C34.5693 16.0874 35.0583 16.5764 35.6614 16.5764H40.5178L45.8537 21.9121C46.2802 22.3386 46.9717 22.3386 47.398 21.9121C47.8245 21.4856 47.8245 20.7941 47.398 20.3678L43.6066 16.5764H46.9003L52.2362 21.9121C52.6627 22.3386 53.3542 22.3386 53.7806 21.9121C54.2071 21.4856 54.2071 20.7941 53.7806 20.3678L49.9892 16.5764H53.2829L58.6186 21.9121C59.0451 22.3386 59.7366 22.3386 60.1629 21.9121C60.5894 21.4856 60.5894 20.7941 60.1629 20.3678L56.3715 16.5764H59.6652L65.001 21.9121C65.4275 22.3386 66.119 22.3386 66.5453 21.9121C66.9718 21.4856 66.9718 20.7941 66.5453 20.3678L62.7539 16.5764H66.0476L71.3834 21.9121C71.8099 22.3386 72.5014 22.3386 72.9277 21.9121C73.3542 21.4856 73.3542 20.7941 72.9277 20.3678L69.1363 16.5764H72.43L77.7659 21.9121C78.1924 22.3386 78.8839 22.3386 79.3102 21.9121C79.7367 21.4856 79.7367 20.7941 79.3102 20.3678L75.5188 16.5764H83.9069C84.51 16.5764 84.9989 16.0874 84.9989 15.4843C84.9989 14.8812 84.51 14.3922 83.9069 14.3922Z" fill="#5E6B75"/>
<path d="M78.9808 0H78.3091C78.8579 0.907151 79.174 1.97011 79.174 3.10557V13.3022C79.174 16.6204 76.4745 19.32 73.1564 19.32H35.4336C36.4885 21.064 38.4036 22.2322 40.5863 22.2322H78.9806C82.2988 22.2322 84.9983 19.5326 84.9983 16.2144V6.01778C84.9984 2.69961 82.299 0 78.9808 0Z" fill="#5E6B75"/>
<path d="M58.6196 21.9121C59.0461 22.3386 59.7376 22.3386 60.164 21.9121C60.5905 21.4856 60.5905 20.7941 60.164 20.3678L59.1162 19.3199H56.0273L58.6196 21.9121Z" fill="#4D5961"/>
<path d="M65.0025 21.9121C65.4289 22.3386 66.1204 22.3386 66.5468 21.9121C66.9733 21.4856 66.9733 20.7941 66.5468 20.3678L65.499 19.3199H62.4102L65.0025 21.9121Z" fill="#4D5961"/>
<path d="M71.3843 21.9121C71.8108 22.3386 72.5023 22.3386 72.9286 21.9121C73.3551 21.4856 73.3551 20.7941 72.9286 20.3678L71.8808 19.3199H68.792L71.3843 21.9121Z" fill="#4D5961"/>
<path d="M79.3132 0.319913C79.0448 0.0514074 78.6715 -0.0478987 78.3252 0.0215574C78.6993 0.645934 78.9636 1.34326 79.0908 2.08675L79.3132 1.8644C79.7397 1.43791 79.7397 0.746405 79.3132 0.319913Z" fill="#4D5961"/>
<path d="M76.9304 17.9871C76.3393 18.4639 75.6566 18.8315 74.9131 19.0586L77.7666 21.9121C78.1931 22.3386 78.8846 22.3386 79.311 21.9121C79.7374 21.4856 79.7374 20.7941 79.311 20.3678L76.9304 17.9871Z" fill="#4D5961"/>
<path d="M83.9091 10.0239H79.1768V12.2081H83.9091C84.5122 12.2081 85.0012 11.7191 85.0012 11.116C85.0012 10.5129 84.5122 10.0239 83.9091 10.0239Z" fill="#4D5961"/>
<path d="M83.9082 14.3922H79.0768C78.9311 15.1852 78.6295 15.9242 78.2051 16.5764H83.9082C84.5113 16.5764 85.0003 16.0874 85.0003 15.4843C85.0003 14.8812 84.5113 14.3922 83.9082 14.3922Z" fill="#4D5961"/>
<path d="M83.9091 5.65564H79.1768V7.83979H83.9091C84.5122 7.83979 85.0012 7.35083 85.0012 6.74772C85.0012 6.1446 84.5122 5.65564 83.9091 5.65564Z" fill="#4D5961"/>
<path d="M45.855 21.9121C46.2815 22.3386 46.973 22.3386 47.3993 21.9121C47.8258 21.4856 47.8258 20.7941 47.3993 20.3678L46.3515 19.3199H43.2627L45.855 21.9121Z" fill="#4D5961"/>
<path d="M52.2378 21.9121C52.6643 22.3386 53.3558 22.3386 53.7821 21.9121C54.2086 21.4856 54.2086 20.7941 53.7821 20.3678L52.7343 19.3199H49.6455L52.2378 21.9121Z" fill="#4D5961"/>
<path d="M83.9069 34.4404H35.6614C35.0583 34.4404 34.5693 33.9514 34.5693 33.3483C34.5693 32.7452 35.0583 32.2562 35.6614 32.2562H83.9069C84.51 32.2562 84.9989 32.7452 84.9989 33.3483C84.9989 33.9514 84.51 34.4404 83.9069 34.4404Z" fill="black"/>
<path d="M83.9073 38.8085H46.4192C45.8161 38.8085 45.3271 38.3196 45.3271 37.7165C45.3271 37.1133 45.8161 36.6244 46.4192 36.6244H83.9073C84.5104 36.6244 84.9994 37.1133 84.9994 37.7165C84.9994 38.3196 84.5104 38.8085 83.9073 38.8085Z" fill="black"/>
<path d="M83.9069 30.072H35.6614C35.0583 30.072 34.5693 29.583 34.5693 28.9799C34.5693 28.3768 35.0583 27.8878 35.6614 27.8878H83.9069C84.51 27.8878 84.9989 28.3768 84.9989 28.9799C84.9989 29.583 84.51 30.072 83.9069 30.072Z" fill="black"/>
<path d="M34.5693 28.2498C34.5693 24.9317 37.2688 22.2321 40.587 22.2321H78.9813C82.2995 22.2321 84.9989 24.9317 84.9989 28.2498V38.4465C84.9989 41.7646 82.2995 44.4643 78.9813 44.4643H40.587C37.2688 44.4643 34.5693 41.7646 34.5693 38.4465V28.2498Z" fill="#808B95"/>
<path d="M84.9989 33.3483C84.9989 33.9514 84.51 34.4404 83.9069 34.4404H35.6614C35.0583 34.4404 34.5693 33.9514 34.5693 33.3483C34.5693 32.7452 35.0583 32.2562 35.6614 32.2562H83.9069C84.51 32.2562 84.9989 32.7452 84.9989 33.3483ZM35.6614 30.0721H83.9069C84.51 30.0721 84.9989 29.5831 84.9989 28.98C84.9989 28.3769 84.51 27.8879 83.9069 27.8879H75.5191L79.3105 24.0965C79.737 23.67 79.737 22.9785 79.3105 22.5522C78.8842 22.1257 78.1927 22.1257 77.7662 22.5522L72.4303 27.8879H69.1366L72.928 24.0965C73.3545 23.67 73.3545 22.9785 72.928 22.5522C72.5015 22.1257 71.81 22.1257 71.3837 22.5522L66.0479 27.8879H62.7542L66.5456 24.0965C66.9721 23.67 66.9721 22.9785 66.5456 22.5522C66.1191 22.1257 65.4276 22.1257 65.0013 22.5522L59.6654 27.8879H56.3717L60.1631 24.0965C60.5896 23.67 60.5896 22.9785 60.1631 22.5522C59.7366 22.1257 59.0451 22.1257 58.6187 22.5522L53.2829 27.8879H49.9892L53.7806 24.0965C54.2071 23.67 54.2071 22.9785 53.7806 22.5522C53.3542 22.1257 52.6627 22.1257 52.2362 22.5522L46.9003 27.8879H43.6066L47.398 24.0965C47.8245 23.67 47.8245 22.9785 47.398 22.5522C46.9717 22.1257 46.2802 22.1257 45.8537 22.5522L40.5178 27.8879H35.6614C35.0583 27.8879 34.5693 28.3769 34.5693 28.98C34.5693 29.5831 35.0581 30.0721 35.6614 30.0721ZM83.9069 36.6245H35.6614C35.0583 36.6245 34.5693 37.1135 34.5693 37.7166C34.5693 38.3197 35.0583 38.8087 35.6614 38.8087H40.5178L45.8537 44.1444C46.2802 44.5709 46.9717 44.5709 47.398 44.1444C47.8245 43.7179 47.8245 43.0264 47.398 42.6001L43.6066 38.8087H46.9003L52.2362 44.1444C52.6627 44.5709 53.3542 44.5709 53.7806 44.1444C54.2071 43.7179 54.2071 43.0264 53.7806 42.6001L49.9892 38.8087H53.2829L58.6186 44.1444C59.0451 44.5709 59.7366 44.5709 60.1629 44.1444C60.5894 43.7179 60.5894 43.0264 60.1629 42.6001L56.3715 38.8087H59.6652L65.001 44.1444C65.4275 44.5709 66.119 44.5709 66.5453 44.1444C66.9718 43.7179 66.9718 43.0264 66.5453 42.6001L62.7541 38.8087H66.0478L71.3835 44.1444C71.81 44.5709 72.5015 44.5709 72.9279 44.1444C73.3544 43.7179 73.3544 43.0264 72.9279 42.6001L69.1366 38.8087H72.4303L77.7662 44.1444C78.1927 44.5709 78.8842 44.5709 79.3105 44.1444C79.737 43.7179 79.737 43.0264 79.3105 42.6001L75.5191 38.8087H83.9069C84.51 38.8087 84.9989 38.3197 84.9989 37.7166C84.9989 37.1135 84.51 36.6245 83.9069 36.6245Z" fill="#5E6B75"/>
<path d="M78.9808 22.2321H78.3091C78.8579 23.1392 79.174 24.2022 79.174 25.3376V35.5343C79.174 38.8524 76.4745 41.5521 73.1564 41.5521H35.4336C36.4885 43.296 38.4036 44.4643 40.5863 44.4643H78.9806C82.2988 44.4643 84.9983 41.7646 84.9983 38.4465V28.2498C84.9984 24.9315 82.299 22.2321 78.9808 22.2321Z" fill="#5E6B75"/>
<path d="M58.6187 44.1443C59.0452 44.5708 59.7367 44.5708 60.163 44.1443C60.5895 43.7178 60.5895 43.0263 60.163 42.5999L59.1152 41.5521H56.0264L58.6187 44.1443Z" fill="#4D5961"/>
<path d="M65.0025 44.1443C65.4289 44.5708 66.1204 44.5708 66.5468 44.1443C66.9733 43.7178 66.9733 43.0263 66.5468 42.5999L65.499 41.5521H62.4102L65.0025 44.1443Z" fill="#4D5961"/>
<path d="M71.3833 44.1443C71.8098 44.5708 72.5013 44.5708 72.9277 44.1443C73.3542 43.7178 73.3542 43.0263 72.9277 42.5999L71.8798 41.5521H68.791L71.3833 44.1443Z" fill="#4D5961"/>
<path d="M79.3102 22.5521C79.0419 22.2836 78.6685 22.1843 78.3223 22.2537C78.6963 22.8781 78.9606 23.5754 79.0879 24.3189L79.3102 24.0966C79.7367 23.6701 79.7367 22.9786 79.3102 22.5521Z" fill="#4D5961"/>
<path d="M76.9284 40.2192C76.3374 40.6961 75.6546 41.0636 74.9111 41.2908L77.7647 44.1443C78.1911 44.5708 78.8827 44.5708 79.309 44.1443C79.7355 43.7178 79.7355 43.0263 79.309 42.6L76.9284 40.2192Z" fill="#4D5961"/>
<path d="M83.9071 32.2562H79.1748V34.4404H83.9071C84.5103 34.4404 84.9992 33.9514 84.9992 33.3483C84.9992 32.7452 84.5103 32.2562 83.9071 32.2562Z" fill="#4D5961"/>
<path d="M83.9072 36.6244H79.0759C78.9301 37.4174 78.6286 38.1564 78.2041 38.8085H83.9072C84.5103 38.8085 84.9993 38.3196 84.9993 37.7165C84.9993 37.1133 84.5103 36.6244 83.9072 36.6244Z" fill="#4D5961"/>
<path d="M83.9071 27.8878H79.1748V30.072H83.9071C84.5103 30.072 84.9992 29.583 84.9992 28.9799C84.9992 28.3768 84.5103 27.8878 83.9071 27.8878Z" fill="#4D5961"/>
<path d="M45.853 44.1443C46.2795 44.5708 46.971 44.5708 47.3974 44.1443C47.8239 43.7178 47.8239 43.0263 47.3974 42.5999L46.3496 41.5521H43.2607L45.853 44.1443Z" fill="#4D5961"/>
<path d="M52.2359 44.1443C52.6623 44.5708 53.3538 44.5708 53.7802 44.1443C54.2067 43.7178 54.2067 43.0263 53.7802 42.5999L52.7324 41.5521H49.6436L52.2359 44.1443Z" fill="#4D5961"/>
<path d="M83.9069 56.6726H35.6614C35.0583 56.6726 34.5693 56.1836 34.5693 55.5805C34.5693 54.9774 35.0583 54.4884 35.6614 54.4884H83.9069C84.51 54.4884 84.9989 54.9774 84.9989 55.5805C84.9989 56.1836 84.51 56.6726 83.9069 56.6726Z" fill="black"/>
<path d="M83.9073 61.0407H46.4192C45.8161 61.0407 45.3271 60.5518 45.3271 59.9486C45.3271 59.3455 45.8161 58.8566 46.4192 58.8566H83.9073C84.5104 58.8566 84.9994 59.3455 84.9994 59.9486C84.9994 60.5518 84.5104 61.0407 83.9073 61.0407Z" fill="black"/>
<path d="M83.9069 52.3043H35.6614C35.0583 52.3043 34.5693 51.8153 34.5693 51.2122C34.5693 50.6091 35.0583 50.1201 35.6614 50.1201H83.9069C84.51 50.1201 84.9989 50.6091 84.9989 51.2122C84.9989 51.8153 84.51 52.3043 83.9069 52.3043Z" fill="black"/>
<path d="M34.5693 50.482C34.5693 47.1638 37.2688 44.4642 40.587 44.4642H78.9813C82.2995 44.4642 84.9989 47.1638 84.9989 50.482V60.6787C84.9989 63.9968 82.2995 66.6964 78.9813 66.6964H40.587C37.2688 66.6964 34.5693 63.9968 34.5693 60.6787V50.482Z" fill="#808B95"/>
<path d="M84.9989 55.5803C84.9989 56.1835 84.51 56.6724 83.9069 56.6724H35.6614C35.0583 56.6724 34.5693 56.1835 34.5693 55.5803C34.5693 54.9772 35.0583 54.4883 35.6614 54.4883H83.9069C84.51 54.4883 84.9989 54.9772 84.9989 55.5803ZM35.6614 52.3041H83.9069C84.51 52.3041 84.9989 51.8152 84.9989 51.212C84.9989 50.6089 84.51 50.12 83.9069 50.12H75.5191L79.3105 46.3286C79.737 45.9021 79.737 45.2106 79.3105 44.7842C78.8842 44.3577 78.1927 44.3577 77.7662 44.7842L72.4303 50.12H69.1366L72.928 46.3286C73.3545 45.9021 73.3545 45.2106 72.928 44.7842C72.5015 44.3577 71.81 44.3577 71.3837 44.7842L66.0479 50.12H62.7542L66.5456 46.3286C66.9721 45.9021 66.9721 45.2106 66.5456 44.7842C66.1191 44.3577 65.4276 44.3577 65.0013 44.7842L59.6655 50.12H56.3718L60.1632 46.3286C60.5897 45.9021 60.5897 45.2106 60.1632 44.7842C59.7367 44.3577 59.0452 44.3577 58.6189 44.7842L53.2832 50.12H49.9894L53.7809 46.3286C54.2073 45.9021 54.2073 45.2106 53.7809 44.7842C53.3545 44.3577 52.663 44.3577 52.2365 44.7842L46.9006 50.12H43.6069L47.3983 46.3286C47.8248 45.9021 47.8248 45.2106 47.3983 44.7842C46.972 44.3577 46.2805 44.3577 45.854 44.7842L40.5181 50.12H35.6617C35.0586 50.12 34.5696 50.6089 34.5696 51.212C34.5696 51.8152 35.0581 52.3041 35.6614 52.3041ZM83.9069 58.8566H35.6614C35.0583 58.8566 34.5693 59.3455 34.5693 59.9487C34.5693 60.5518 35.0583 61.0407 35.6614 61.0407H40.5178L45.8537 66.3765C46.2802 66.803 46.9717 66.803 47.398 66.3765C47.8245 65.95 47.8245 65.2585 47.398 64.8321L43.6066 61.0407H46.9003L52.2362 66.3765C52.6627 66.803 53.3542 66.803 53.7806 66.3765C54.2071 65.95 54.2071 65.2585 53.7806 64.8321L49.9892 61.0407H53.2829L58.6186 66.3765C59.0451 66.803 59.7366 66.803 60.1629 66.3765C60.5894 65.95 60.5894 65.2585 60.1629 64.8321L56.3715 61.0407H59.6652L65.001 66.3765C65.4275 66.803 66.119 66.803 66.5453 66.3765C66.9718 65.95 66.9718 65.2585 66.5453 64.8321L62.7539 61.0407H66.0476L71.3834 66.3765C71.8099 66.803 72.5014 66.803 72.9277 66.3765C73.3542 65.95 73.3542 65.2585 72.9277 64.8321L69.1363 61.0407H72.43L77.7659 66.3765C78.1924 66.803 78.8839 66.803 79.3102 66.3765C79.7367 65.95 79.7367 65.2585 79.3102 64.8321L75.5188 61.0407H83.9069C84.51 61.0407 84.9989 60.5518 84.9989 59.9487C84.9989 59.3455 84.51 58.8566 83.9069 58.8566Z" fill="#5E6B75"/>
<path d="M78.9808 44.4642H78.3091C78.8579 45.3714 79.174 46.4343 79.174 47.5698V57.7665C79.174 61.0846 76.4745 63.7842 73.1564 63.7842H35.4336C36.4885 65.5282 38.4036 66.6964 40.5863 66.6964H78.9806C82.2988 66.6964 84.9983 63.9968 84.9983 60.6787V50.482C84.9984 47.1638 82.299 44.4642 78.9808 44.4642Z" fill="#5E6B75"/>
<path d="M58.6187 66.3766C59.0452 66.8031 59.7367 66.8031 60.163 66.3766C60.5895 65.9501 60.5895 65.2586 60.163 64.8322L59.1152 63.7844H56.0264L58.6187 66.3766Z" fill="#4D5961"/>
<path d="M65.0025 66.3766C65.4289 66.8031 66.1204 66.8031 66.5468 66.3766C66.9733 65.9501 66.9733 65.2586 66.5468 64.8322L65.499 63.7844H62.4102L65.0025 66.3766Z" fill="#4D5961"/>
<path d="M71.3833 66.3766C71.8098 66.8031 72.5013 66.8031 72.9277 66.3766C73.3542 65.9501 73.3542 65.2586 72.9277 64.8322L71.8798 63.7844H68.791L71.3833 66.3766Z" fill="#4D5961"/>
<path d="M79.3102 44.7841C79.0419 44.5156 78.6685 44.4163 78.3223 44.4858C78.6963 45.1102 78.9606 45.8075 79.0879 46.551L79.3102 46.3286C79.7367 45.902 79.7367 45.2105 79.3102 44.7841Z" fill="#4D5961"/>
<path d="M76.9284 62.4514C76.3374 62.9283 75.6546 63.2958 74.9111 63.523L77.7647 66.3765C78.1911 66.803 78.8827 66.803 79.309 66.3765C79.7355 65.95 79.7355 65.2585 79.309 64.8321L76.9284 62.4514Z" fill="#4D5961"/>
<path d="M83.9071 54.4884H79.1748V56.6726H83.9071C84.5103 56.6726 84.9992 56.1836 84.9992 55.5805C84.9992 54.9774 84.5103 54.4884 83.9071 54.4884Z" fill="#4D5961"/>
<path d="M83.9072 58.8566H79.0759C78.9301 59.6496 78.6286 60.3885 78.2041 61.0407H83.9072C84.5103 61.0407 84.9993 60.5518 84.9993 59.9486C84.9993 59.3455 84.5103 58.8566 83.9072 58.8566Z" fill="#4D5961"/>
<path d="M83.9071 50.1201H79.1748V52.3043H83.9071C84.5103 52.3043 84.9992 51.8153 84.9992 51.2122C84.9992 50.6091 84.5103 50.1201 83.9071 50.1201Z" fill="#4D5961"/>
<path d="M45.853 66.3766C46.2795 66.8031 46.971 66.8031 47.3974 66.3766C47.8239 65.9501 47.8239 65.2586 47.3974 64.8322L46.3496 63.7844H43.2607L45.853 66.3766Z" fill="#4D5961"/>
<path d="M52.2359 66.3766C52.6623 66.8031 53.3538 66.8031 53.7802 66.3766C54.2067 65.9501 54.2067 65.2586 53.7802 64.8322L52.7324 63.7844H49.6436L52.2359 66.3766Z" fill="#4D5961"/>
<path d="M35.6614 58.3021C26.3865 58.3021 18.8408 50.7564 18.8408 41.4815C18.8408 32.2066 26.3865 24.6609 35.6614 24.6609C44.9363 24.6609 52.482 32.2066 52.482 41.4815C52.482 50.7564 44.9362 58.3021 35.6614 58.3021ZM35.6614 26.845C27.5908 26.845 21.025 33.4109 21.025 41.4815C21.025 49.5521 27.5908 56.1179 35.6614 56.1179C43.732 56.1179 50.2979 49.5521 50.2979 41.4815C50.2979 33.4109 43.7319 26.845 35.6614 26.845Z" fill="black"/>
<path d="M35.6616 44.5269C33.9825 44.5269 32.6162 43.1608 32.6162 41.4815C32.6162 39.8023 33.9823 38.436 35.6616 38.436C37.341 38.436 38.7071 39.8022 38.7071 41.4815C38.7071 43.1608 37.3408 44.5269 35.6616 44.5269ZM35.6616 40.6202C35.1868 40.6202 34.8004 41.0065 34.8004 41.4815C34.8004 41.9565 35.1867 42.3428 35.6616 42.3428C36.1366 42.3428 36.5229 41.9565 36.5229 41.4815C36.5229 41.0066 36.1365 40.6202 35.6616 40.6202Z" fill="black"/>
<path d="M31.9639 37.984C31.476 37.984 30.9873 37.8579 30.55 37.6052L25.7286 34.8216C25.4518 34.6617 25.2587 34.3886 25.2007 34.0742C25.1428 33.7598 25.2253 33.4357 25.4269 33.1876C27.4883 30.6484 30.3898 28.971 33.5972 28.4641C33.913 28.4145 34.2342 28.505 34.477 28.7125C34.7197 28.92 34.8596 29.2235 34.8596 29.5428V35.1169C34.8596 36.1301 34.317 37.0679 33.4436 37.5643L33.3842 37.5987C32.9476 37.8554 32.4562 37.984 31.9639 37.984ZM27.995 33.6082L31.6421 35.7138C31.8409 35.8285 32.0843 35.8291 32.2774 35.7157L32.3643 35.6654C32.5564 35.5562 32.6755 35.3462 32.6755 35.1169V30.8984C30.9177 31.3947 29.3106 32.325 27.995 33.6082Z" fill="black"/>
<path d="M39.3589 37.9839C38.8663 37.9839 38.3746 37.8552 37.9375 37.5981L37.8789 37.5643C37.0056 37.068 36.4629 36.1302 36.4629 35.117V29.5429C36.4629 29.2236 36.6027 28.9201 36.8456 28.7126C37.0884 28.5051 37.4096 28.4143 37.7253 28.4642C40.9328 28.9711 43.8346 30.6485 45.8958 33.1877C46.0973 33.4359 46.1799 33.7599 46.1219 34.0743C46.0638 34.3887 45.8709 34.6618 45.5941 34.8217L40.7727 37.6053C40.3352 37.8577 39.8466 37.9839 39.3589 37.9839ZM38.647 30.8984V35.1169C38.647 35.3461 38.7663 35.5563 38.9582 35.6654L39.0443 35.715C39.2382 35.829 39.4817 35.8286 39.6806 35.7137L43.3275 33.6082C42.0118 32.3251 40.4048 31.3946 38.647 30.8984Z" fill="black"/>
<path d="M24.3777 46.902C24.2551 46.902 24.1319 46.8813 24.0137 46.8395C23.7127 46.7331 23.4733 46.5002 23.3586 46.2022C22.7766 44.69 22.4814 43.1018 22.4814 41.4816C22.4814 39.8616 22.7766 38.2733 23.3586 36.7611C23.4733 36.463 23.7127 36.2302 24.0137 36.1238C24.3148 36.0173 24.6474 36.0479 24.9238 36.2076L29.7484 38.9932C30.6212 39.497 31.1621 40.4475 31.1602 41.4736L30.0682 41.4816H31.1602V41.4918C31.1623 42.5159 30.6212 43.4664 29.7484 43.9703L24.9238 46.7556C24.7559 46.8526 24.5673 46.902 24.3777 46.902ZM25.0044 38.7761C24.7793 39.658 24.6656 40.5636 24.6656 41.4816C24.6656 42.3997 24.7792 43.3053 25.0044 44.1872L28.6565 42.0788C28.8571 41.9629 28.9767 41.7443 28.9762 41.4939C28.9762 41.4933 28.9762 41.4824 28.9762 41.4816V41.4716C28.9767 41.2192 28.8573 41.0005 28.6565 40.8846L25.0044 38.7761Z" fill="black"/>
<path d="M46.9464 46.9019C46.7567 46.9019 46.5683 46.8525 46.4004 46.7555L41.5759 43.9702C40.7031 43.4663 40.1622 42.5158 40.1641 41.4897C40.1641 41.4868 40.1641 41.4776 40.1641 41.4745C40.1622 40.4473 40.7031 39.4967 41.5759 38.9929L46.4006 36.2074C46.6771 36.0477 47.0096 36.0171 47.3106 36.1235C47.6116 36.23 47.851 36.4628 47.9657 36.7609C48.5477 38.273 48.8429 39.8613 48.8429 41.4814C48.8429 43.1016 48.5477 44.6899 47.9657 46.2019C47.851 46.4998 47.6116 46.7328 47.3105 46.8391C47.1922 46.8812 47.069 46.9019 46.9464 46.9019ZM46.3199 38.776L42.6678 40.8844C42.4672 41.0003 42.3476 41.2189 42.3481 41.4693V41.498C42.3476 41.7439 42.4672 41.9626 42.6678 42.0785L46.3199 44.187C46.545 43.3052 46.6587 42.3995 46.6587 41.4814C46.6587 40.5636 46.545 39.6579 46.3199 38.776Z" fill="black"/>
<path d="M33.7676 54.5125C33.7109 54.5125 33.654 54.5082 33.5972 54.4991C30.3898 53.9924 27.4881 52.315 25.4269 49.7758C25.2253 49.5276 25.1428 49.2036 25.2007 48.8892C25.2588 48.5748 25.4518 48.3017 25.7286 48.1418L30.55 45.3582C31.4288 44.8509 32.5152 44.8536 33.3849 45.3653L33.4427 45.3987C34.317 45.8955 34.8595 46.8333 34.8595 47.8465V53.4206C34.8595 53.7399 34.7197 54.0434 34.4768 54.2509C34.2779 54.4208 34.0259 54.5125 33.7676 54.5125ZM27.9951 49.3552C29.3109 50.6383 30.9178 51.5686 32.6755 52.0648V47.8464C32.6755 47.6172 32.5562 47.4069 32.3643 47.2978C32.3353 47.2814 32.3058 47.2644 32.2764 47.2469C32.0845 47.134 31.841 47.1346 31.6422 47.2495L27.9951 49.3552ZM31.0961 46.3038H31.0975H31.0961Z" fill="black"/>
<path d="M37.555 54.5124C37.2968 54.5124 37.0447 54.4208 36.8456 54.2506C36.6028 54.0431 36.4629 53.7397 36.4629 53.4204V47.8462C36.4629 46.8331 37.0056 45.8954 37.8791 45.3988L37.9365 45.3656C38.8077 44.8531 39.8939 44.8505 40.7727 45.3578L45.5941 48.1414C45.8709 48.3013 46.064 48.5744 46.1219 48.8888C46.1799 49.2032 46.0973 49.5273 45.8958 49.7754C43.8346 52.3146 40.933 53.992 37.7255 54.4987C37.6687 54.5079 37.6116 54.5124 37.555 54.5124ZM39.3588 47.1629C39.2496 47.1629 39.1411 47.1911 39.045 47.2476C39.0167 47.2644 38.9872 47.2814 38.9575 47.2983C38.7663 47.4071 38.647 47.6171 38.647 47.8464V52.0649C40.4048 51.5686 42.0118 50.6383 43.3274 49.3552L39.6804 47.2497C39.5805 47.1917 39.4692 47.1629 39.3588 47.1629Z" fill="black"/>
<path d="M53.4807 59.3062C63.3263 49.4606 63.3263 33.4979 53.4807 23.6523C43.6352 13.8068 27.6724 13.8068 17.8269 23.6523C7.98138 33.4979 7.98138 49.4606 17.8269 59.3062C27.6724 69.1517 43.6352 69.1517 53.4807 59.3062Z" fill="#808B95"/>
<path d="M43.8959 17.6475C50.6202 22.1809 55.0514 29.8674 55.0514 38.5693C55.0514 52.4728 43.74 63.7842 29.8365 63.7842C26.9542 63.7842 24.1834 63.298 21.6016 62.4035C25.6208 65.1132 30.4595 66.6964 35.661 66.6964C49.5644 66.6964 60.8758 55.385 60.8758 41.4815C60.8757 30.4603 53.7682 21.068 43.8959 17.6475Z" fill="#5E6B75"/>
<path d="M35.6611 57.2101C44.3478 57.2101 51.3897 50.1682 51.3897 41.4816C51.3897 32.7949 44.3478 25.7531 35.6611 25.7531C26.9745 25.7531 19.9326 32.7949 19.9326 41.4816C19.9326 50.1682 26.9745 57.2101 35.6611 57.2101Z" fill="#F6F9F9"/>
<path d="M39.6106 26.2554C43.2364 29.1392 45.5655 33.5873 45.5655 38.5695C45.5655 47.2423 38.5096 54.298 29.8369 54.298C28.4734 54.298 27.1501 54.1234 25.8877 53.7956C28.5736 55.9319 31.9709 57.2102 35.6613 57.2102C44.3342 57.2102 51.3899 50.1544 51.3899 41.4817C51.3899 34.1722 46.3781 28.0117 39.6106 26.2554Z" fill="#E7ECF1"/>
<path d="M35.6604 43.4349C36.7392 43.4349 37.6138 42.5604 37.6138 41.4816C37.6138 40.4027 36.7392 39.5282 35.6604 39.5282C34.5816 39.5282 33.707 40.4027 33.707 41.4816C33.707 42.5604 34.5816 43.4349 35.6604 43.4349Z" fill="#707DD3"/>
<path d="M33.7674 35.1168V29.5427C30.7578 30.0183 28.1151 31.6085 26.2744 33.8758L31.0959 36.6594C31.633 36.9696 32.2964 36.9713 32.8311 36.6568C32.8553 36.6427 32.8794 36.6286 32.9038 36.6147C33.4408 36.3095 33.7674 35.7345 33.7674 35.1168Z" fill="#5E6B75"/>
<path d="M40.2272 36.6594L45.0486 33.8758C43.208 31.6085 40.5653 30.0183 37.5557 29.5427V35.1168C37.5557 35.7345 37.8823 36.3095 38.4193 36.6147C38.4436 36.6286 38.4679 36.6425 38.4919 36.6568C39.0266 36.9713 39.69 36.9696 40.2272 36.6594Z" fill="#5E6B75"/>
<path d="M30.0671 41.4816C30.0671 41.4783 30.0671 41.4749 30.0671 41.4714C30.0682 40.8409 29.7473 40.254 29.2013 39.9387L24.3766 37.1532C23.859 38.4981 23.5723 39.9565 23.5723 41.4815C23.5723 43.0064 23.859 44.4649 24.3766 45.8097L29.2011 43.0242C29.7472 42.709 30.0681 42.122 30.0669 41.4915C30.0671 41.4884 30.0671 41.485 30.0671 41.4816Z" fill="#5E6B75"/>
<path d="M46.9444 37.1532L42.1197 39.9387C41.5737 40.254 41.2527 40.8409 41.2539 41.4714V41.4816V41.4918C41.2527 42.1223 41.5737 42.7092 42.1197 43.0245L46.9442 45.81C47.4619 44.4652 47.7486 43.0067 47.7486 41.4818C47.7486 39.9568 47.462 38.4981 46.9444 37.1532Z" fill="#5E6B75"/>
<path d="M31.0959 46.3037L26.2744 49.0874C28.1151 51.3547 30.7579 52.9449 33.7674 53.4204V47.8463C33.7674 47.2287 33.4408 46.6536 32.9038 46.3484C32.8794 46.3346 32.8551 46.3206 32.8311 46.3064C32.2964 45.9918 31.633 45.9936 31.0959 46.3037Z" fill="#5E6B75"/>
<path d="M37.5557 47.8464V53.4205C40.5653 52.945 43.208 51.3548 45.0486 49.0876L40.2272 46.304C39.69 45.9938 39.0266 45.9921 38.4921 46.3066C38.4679 46.3207 38.4437 46.3349 38.4194 46.3487C37.8823 46.6537 37.5557 47.2288 37.5557 47.8464Z" fill="#5E6B75"/>
<path d="M35.6614 62.1563C35.0583 62.1563 34.5693 61.6674 34.5693 61.0642C34.5693 60.4611 35.0583 59.9722 35.6614 59.9722C40.6004 59.9722 45.2439 58.0488 48.7362 54.5565C52.2286 51.064 54.1519 46.4207 54.1519 41.4817C54.1519 36.5428 52.2286 31.8992 48.7362 28.4069C48.3097 27.9804 48.3097 27.2889 48.7362 26.8626C49.1627 26.4361 49.8542 26.4361 50.2805 26.8626C54.1855 30.7674 56.336 35.9594 56.336 41.4817C56.336 47.0041 54.1855 52.196 50.2805 56.101C46.3757 60.0058 41.1838 62.1563 35.6614 62.1563Z" fill="#5E6B75"/>
<path d="M50.2807 56.101C54.1857 52.196 56.3362 47.0041 56.3362 41.4817C56.3362 38.3493 55.6442 35.3234 54.3327 32.5784C54.8026 34.4993 55.0519 36.5059 55.0519 38.5695C55.0519 48.9572 48.7378 57.8979 39.7461 61.7554C43.7116 60.9651 47.357 59.0248 50.2807 56.101Z" fill="#4D5961"/>
<path d="M21.813 56.4207C21.5336 56.4207 21.254 56.3141 21.0408 56.1007C17.1359 52.1958 14.9854 47.0039 14.9854 41.4815C14.9854 35.9591 17.1359 30.7672 21.0408 26.8624C24.9457 22.9574 30.1375 20.8069 35.66 20.8069C36.2631 20.8069 36.752 21.2958 36.752 21.899C36.752 22.5021 36.2631 22.991 35.66 22.991C30.721 22.991 26.0775 24.9144 22.5852 28.4069C19.0927 31.8992 17.1695 36.5427 17.1695 41.4816C17.1695 46.4206 19.0927 51.0641 22.5852 54.5564C23.0117 54.9829 23.0117 55.6744 22.5852 56.1007C22.372 56.3139 22.0926 56.4207 21.813 56.4207Z" fill="#5E6B75"/>
</svg>

