<svg width="385" height="271" viewBox="0 0 385 271" fill="none" xmlns="http://www.w3.org/2000/svg">
<path d="M196.627 270.426C208.207 270.426 217.594 261.05 217.594 249.484C217.594 237.918 208.207 228.542 196.627 228.542C185.048 228.542 175.661 237.918 175.661 249.484C175.661 261.05 185.048 270.426 196.627 270.426Z" fill="#6C63FF"/>
<path d="M321.883 269.249C333.613 265.731 346.083 262.062 355.386 253.697C363.698 246.222 369.31 234.809 365.867 223.599C362.43 212.412 352.136 204.953 341.508 201.243C335.48 199.139 329.174 197.972 322.87 197.055C316.017 196.058 309.134 195.241 302.254 194.455C274.397 191.273 246.435 189.328 218.368 188.623C204.519 188.274 190.672 188.283 176.821 188.483C164.451 188.663 151.423 188.658 139.947 183.407C131.023 179.323 122.924 171.894 120.438 162.131C117.567 150.861 122.862 139.384 130.456 131.222C134.459 126.92 139.138 123.299 143.964 119.97C149.2 116.357 154.619 113.001 160.154 109.868C171.058 103.701 182.456 98.4516 194.233 94.1759C200.042 92.066 205.938 90.2457 211.885 88.5664C216.906 87.1484 221.943 85.7284 226.796 83.7964C236.178 80.0616 245.102 73.7352 247.487 63.3636C249.748 53.5338 245.936 42.8628 239.253 35.5605C231.522 27.1122 219.864 23.4087 208.687 22.8095C196.14 22.1368 183.882 25.2734 172.088 29.2541C159.51 33.4999 147.203 38.3818 134.358 41.8208C121.622 45.2277 108.638 47.6383 95.5266 49.0306C89.1079 49.7133 82.4952 50.4841 76.0384 49.9615C70.627 49.5235 65.2432 47.9339 61.2551 44.0979C57.8354 40.8087 55.7983 36.2883 56.4987 31.5179C56.6259 30.6515 57.9437 31.0198 57.8172 31.881C56.9647 37.6879 60.9166 43.0388 65.7865 45.7798C71.4147 48.9477 78.2635 48.952 84.5296 48.5897C98.1164 47.7701 111.611 45.8215 124.874 42.7643C137.907 39.7912 150.474 35.541 163.026 31.0008C174.948 26.6888 187.136 22.4802 199.873 21.5462C210.924 20.7358 222.549 22.3439 232.177 28.1125C240.638 33.1823 246.86 41.6371 248.843 51.3392C250.78 60.8198 248.097 70.3623 240.912 76.9782C233.473 83.8282 223.272 86.7568 213.766 89.4541C201.71 92.8751 189.911 96.874 178.491 102.066C166.916 107.314 155.814 113.548 145.309 120.699C135.169 127.62 125.163 136.329 121.956 148.676C120.462 154.427 120.738 160.527 123.237 165.96C125.46 170.79 129.12 174.853 133.384 177.987C143.558 185.464 156.38 187 168.669 187.152C182.471 187.324 196.274 186.859 210.081 187.085C238.218 187.546 266.298 189.257 294.32 192.217C301.342 192.959 308.355 193.78 315.359 194.679C321.659 195.487 327.98 196.29 334.173 197.726C345.186 200.28 355.903 205.189 362.748 214.516C365.786 218.558 367.668 223.349 368.193 228.376C368.673 233.623 367.387 238.879 365.012 243.546C359.756 253.876 349.91 260.447 339.454 264.763C333.854 267.076 328.045 268.827 322.247 270.566C321.402 270.82 321.041 269.502 321.883 269.249L321.883 269.249Z" fill="#F2F2F2"/>
<path d="M57.3815 42.5669C63.423 42.5669 68.3206 37.6751 68.3206 31.6406C68.3206 25.6062 63.423 20.7144 57.3815 20.7144C51.34 20.7144 46.4424 25.6062 46.4424 31.6406C46.4424 37.6751 51.34 42.5669 57.3815 42.5669Z" fill="#F2F2F2"/>
<path d="M133.272 63.2815C139.313 63.2815 144.211 58.3897 144.211 52.3552C144.211 46.3208 139.313 41.429 133.272 41.429C127.23 41.429 122.333 46.3208 122.333 52.3552C122.333 58.3897 127.23 63.2815 133.272 63.2815Z" fill="#F2F2F2"/>
<path d="M197.539 21.8526C203.581 21.8526 208.478 16.9607 208.478 10.9263C208.478 4.89187 203.581 0 197.539 0C191.498 0 186.6 4.89187 186.6 10.9263C186.6 16.9607 191.498 21.8526 197.539 21.8526Z" fill="#F2F2F2"/>
<path d="M237.649 68.2894C243.691 68.2894 248.588 63.3975 248.588 57.3631C248.588 51.3286 243.691 46.4368 237.649 46.4368C231.608 46.4368 226.71 51.3286 226.71 57.3631C226.71 63.3975 231.608 68.2894 237.649 68.2894Z" fill="#F2F2F2"/>
<path d="M183.409 122.01C189.451 122.01 194.348 117.118 194.348 111.084C194.348 105.05 189.451 100.158 183.409 100.158C177.368 100.158 172.47 105.05 172.47 111.084C172.47 117.118 177.368 122.01 183.409 122.01Z" fill="#F2F2F2"/>
<path d="M114.584 147.96C120.626 147.96 125.523 143.068 125.523 137.034C125.523 131 120.626 126.108 114.584 126.108C108.543 126.108 103.645 131 103.645 137.034C103.645 143.068 108.543 147.96 114.584 147.96Z" fill="#F2F2F2"/>
<path d="M187.511 188.479C193.553 188.479 198.45 183.587 198.45 177.552C198.45 171.518 193.553 166.626 187.511 166.626C181.47 166.626 176.572 171.518 176.572 177.552C176.572 183.587 181.47 188.479 187.511 188.479Z" fill="#F2F2F2"/>
<path d="M265.908 211.241C271.95 211.241 276.847 206.35 276.847 200.315C276.847 194.281 271.95 189.389 265.908 189.389C259.867 189.389 254.969 194.281 254.969 200.315C254.969 206.35 259.867 211.241 265.908 211.241Z" fill="#F2F2F2"/>
<path d="M357.524 206.234C363.565 206.234 368.463 201.342 368.463 195.307C368.463 189.273 363.565 184.381 357.524 184.381C351.482 184.381 346.584 189.273 346.584 195.307C346.584 201.342 351.482 206.234 357.524 206.234Z" fill="#F2F2F2"/>
<path d="M194.381 30.9593C161.613 31.1905 134.783 57.7879 134.318 90.5151C134.313 90.8172 134.311 92.9418 134.312 95.7206C134.312 99.795 135.932 103.702 138.817 106.584C141.701 109.465 145.613 111.083 149.692 111.084H149.692C151.714 111.083 153.716 110.685 155.584 109.911C157.452 109.138 159.149 108.004 160.578 106.575C162.007 105.146 163.14 103.45 163.913 101.584C164.685 99.717 165.082 97.7168 165.08 95.6971C165.079 93.8068 165.078 92.4985 165.078 92.4182C165.077 87.3602 166.394 82.3891 168.9 77.9938C171.405 73.5986 175.014 69.9306 179.369 67.3506C183.725 64.7707 188.678 63.3676 193.741 63.2796C198.804 63.1915 203.803 64.4214 208.246 66.8483C212.689 69.2752 216.422 72.8155 219.08 77.1209C221.737 81.4264 223.227 86.3487 223.402 91.4036C223.578 96.4585 222.432 101.472 220.08 105.951C217.727 110.429 214.247 114.219 209.983 116.947L209.988 116.954C209.988 116.954 188.097 131.03 181.423 150.341L181.429 150.342C180.255 154.298 179.66 158.403 179.663 162.529C179.663 164.225 179.763 179.064 179.956 191.109C180.023 195.265 181.724 199.227 184.691 202.142C187.657 205.057 191.652 206.69 195.813 206.689H195.813C197.904 206.689 199.974 206.276 201.905 205.474C203.835 204.671 205.588 203.496 207.062 202.014C208.536 200.533 209.702 198.775 210.493 196.842C211.284 194.909 211.685 192.838 211.672 190.75C211.605 179.719 211.569 166.875 211.569 165.943C211.569 154.086 223.021 142.272 232.428 134.567C243.26 125.696 251.055 113.606 254.186 99.968C254.879 97.1602 255.261 94.2849 255.325 91.3938C255.325 83.4205 253.746 75.526 250.678 68.1651C247.609 60.8043 243.113 54.1226 237.448 48.505C231.783 42.8874 225.062 38.445 217.67 35.4337C210.279 32.4224 202.364 30.9017 194.381 30.9593Z" fill="#6C63FF"/>
<path d="M384.457 271H0.542361C0.398698 271 0.261064 270.942 0.159626 270.841C0.0581872 270.739 0.0012207 270.601 0.0012207 270.458C0.0012207 270.314 0.0581872 270.177 0.159626 270.075C0.261064 269.973 0.398698 269.916 0.542361 269.916H384.457C384.601 269.916 384.739 269.973 384.841 270.075C384.943 270.176 385 270.314 385 270.458C385 270.602 384.943 270.74 384.841 270.841C384.739 270.943 384.601 271 384.457 271Z" fill="#3F3D56"/>
<path d="M286.444 124.285C293.996 124.285 300.118 118.17 300.118 110.627C300.118 103.084 293.996 96.9688 286.444 96.9688C278.893 96.9688 272.771 103.084 272.771 110.627C272.771 118.17 278.893 124.285 286.444 124.285Z" fill="#2F2E41"/>
<path d="M261.177 265.021H255.589L252.931 243.493H261.178L261.177 265.021Z" fill="#A0616A"/>
<path d="M251.598 263.426H262.375V270.204H244.813C244.812 269.314 244.988 268.432 245.329 267.61C245.67 266.788 246.17 266.041 246.8 265.411C247.43 264.782 248.178 264.283 249.001 263.942C249.824 263.602 250.707 263.426 251.598 263.426Z" fill="#2F2E41"/>
<path d="M304.478 265.021H298.89L296.231 243.493H304.479L304.478 265.021Z" fill="#A0616A"/>
<path d="M294.899 263.426H305.675V270.204H288.113C288.113 269.314 288.289 268.432 288.63 267.61C288.971 266.788 289.471 266.041 290.101 265.411C290.731 264.782 291.479 264.283 292.302 263.942C293.125 263.602 294.008 263.426 294.899 263.426Z" fill="#2F2E41"/>
<path d="M284.367 124.365C290.549 124.365 295.562 119.358 295.562 113.183C295.562 107.007 290.549 102.001 284.367 102.001C278.184 102.001 273.172 107.007 273.172 113.183C273.172 119.358 278.184 124.365 284.367 124.365Z" fill="#A0616A"/>
<path d="M291.039 160.437L296.048 148.942C297.265 146.245 297.613 143.238 297.046 140.334C296.479 137.431 295.023 134.776 292.88 132.734C292.44 132.3 291.973 131.894 291.481 131.519C289.01 129.587 285.964 128.535 282.826 128.528C280.716 128.536 278.632 128.999 276.718 129.884C276.554 129.957 276.394 130.035 276.23 130.112C275.916 130.262 275.606 130.426 275.305 130.594C273.343 131.72 271.673 133.29 270.43 135.178C269.187 137.067 268.405 139.221 268.149 141.466L265.938 159.968C265.382 161.42 245.546 213.866 252.483 253.907C252.557 254.334 252.766 254.727 253.079 255.028C253.392 255.328 253.794 255.521 254.224 255.578L261.257 256.534C261.771 256.604 262.292 256.477 262.716 256.179C263.139 255.881 263.434 255.433 263.541 254.927L275.341 198.743C275.415 198.394 275.604 198.079 275.877 197.85C276.151 197.62 276.493 197.489 276.85 197.477C277.207 197.465 277.558 197.573 277.846 197.783C278.134 197.994 278.344 198.295 278.441 198.638L295.114 257.722C295.233 258.151 295.489 258.53 295.844 258.799C296.199 259.069 296.632 259.215 297.078 259.215C297.211 259.214 297.344 259.202 297.475 259.179L306.067 257.526C306.566 257.433 307.013 257.157 307.319 256.751C307.625 256.346 307.768 255.842 307.721 255.336C306.459 241.273 299.749 170.831 291.039 160.437Z" fill="#2F2E41"/>
<path d="M240.861 122.488C240.783 123.153 240.852 123.827 241.064 124.462C241.275 125.097 241.623 125.678 242.083 126.164C242.544 126.651 243.105 127.03 243.728 127.276C244.351 127.522 245.021 127.629 245.69 127.589L251.947 142.609L256.681 135.6L250.013 122.411C249.871 121.294 249.323 120.267 248.473 119.526C247.623 118.784 246.531 118.38 245.403 118.39C244.275 118.399 243.189 118.821 242.352 119.577C241.515 120.332 240.985 121.368 240.861 122.488L240.861 122.488Z" fill="#A0616A"/>
<path d="M283.746 175.561C284.412 175.481 285.051 175.257 285.621 174.904C286.19 174.551 286.675 174.078 287.041 173.517C287.407 172.957 287.646 172.323 287.74 171.66C287.834 170.997 287.782 170.322 287.587 169.682L300.753 160.104L292.826 157.139L281.539 166.689C280.484 167.088 279.612 167.859 279.088 168.857C278.564 169.855 278.425 171.011 278.698 172.104C278.97 173.198 279.634 174.154 280.564 174.791C281.495 175.428 282.627 175.702 283.746 175.561Z" fill="#A0616A"/>
<path d="M262.284 152.623C261.779 152.622 261.275 152.573 260.78 152.475C259.583 152.247 258.46 151.728 257.51 150.965C256.56 150.202 255.813 149.216 255.335 148.097L246.568 137.419C246.382 137.194 246.247 136.931 246.172 136.649C246.097 136.367 246.082 136.072 246.13 135.784C246.178 135.496 246.287 135.221 246.45 134.979C246.613 134.736 246.826 134.532 247.074 134.378L253.311 130.521C253.542 130.379 253.798 130.284 254.065 130.241C254.333 130.198 254.606 130.208 254.869 130.271C255.133 130.334 255.381 130.449 255.6 130.608C255.819 130.768 256.004 130.969 256.144 131.2L262.323 141.368L274.156 132.633C275.099 132.139 276.187 132.001 277.223 132.243C278.259 132.485 279.173 133.091 279.798 133.951C280.424 134.81 280.719 135.866 280.629 136.924C280.54 137.983 280.072 138.975 279.311 139.717L267.501 150.478C266.113 151.852 264.238 152.623 262.284 152.623Z" fill="#2F2E41"/>
<path d="M294.257 168.681C294.241 168.681 294.225 168.681 294.209 168.68C293.921 168.673 293.638 168.606 293.378 168.483C293.118 168.36 292.887 168.184 292.7 167.965L287.155 161.504C286.966 161.284 286.826 161.026 286.744 160.748C286.662 160.47 286.64 160.178 286.68 159.891C286.72 159.603 286.82 159.328 286.974 159.082C287.128 158.837 287.333 158.627 287.574 158.466L297.958 151.552L288.551 140.255C288.004 139.344 287.803 138.267 287.985 137.22C288.168 136.173 288.721 135.227 289.544 134.554C290.368 133.881 291.406 133.526 292.469 133.555C293.533 133.583 294.55 133.993 295.336 134.709L306.769 145.869C307.669 146.69 308.356 147.717 308.771 148.861C309.186 150.006 309.317 151.234 309.152 152.44C308.987 153.646 308.532 154.794 307.825 155.786C307.118 156.778 306.181 157.583 305.094 158.134L295.75 168.037C295.558 168.241 295.326 168.402 295.07 168.513C294.813 168.624 294.537 168.681 294.257 168.681Z" fill="#2F2E41"/>
<path d="M281.52 144.871C281.431 144.871 281.342 144.865 281.254 144.854C280.868 144.807 280.503 144.65 280.203 144.403C279.904 144.155 279.681 143.827 279.563 143.457L275.396 130.696C275.291 130.373 275.307 130.024 275.441 129.712C275.575 129.401 275.817 129.148 276.122 129L276.257 128.937C276.38 128.878 276.502 128.821 276.625 128.766C278.569 127.866 280.684 127.396 282.826 127.389C285.606 127.395 288.325 128.21 290.648 129.737C290.959 129.944 291.177 130.265 291.254 130.631C291.33 130.996 291.26 131.378 291.059 131.692L283.242 143.924C283.058 144.214 282.804 144.454 282.503 144.619C282.202 144.785 281.864 144.871 281.52 144.871Z" fill="#E6E6E6"/>
<path d="M297.225 104.529C299.697 104.529 301.7 102.528 301.7 100.06C301.7 97.592 299.697 95.5911 297.225 95.5911C294.754 95.5911 292.751 97.592 292.751 100.06C292.751 102.528 294.754 104.529 297.225 104.529Z" fill="#2F2E41"/>
<path d="M281.886 95.1479C278.743 95.1479 275.729 96.395 273.507 98.6149C271.284 100.835 270.036 103.845 270.036 106.985V111.993H276.202L279.152 106.985L280.036 111.993H298.751L293.737 106.985C293.737 103.845 292.489 100.835 290.266 98.6149C288.044 96.395 285.029 95.1479 281.886 95.1479Z" fill="#2F2E41"/>
<path d="M299.525 96.9991C300.02 95.4537 301.044 94.132 302.418 93.2664C303.792 92.4009 305.427 92.0468 307.037 92.2664C309.888 92.7425 312.143 95.0319 313.486 97.5889C314.829 100.146 315.45 103.008 316.353 105.751C317.256 108.494 318.537 111.252 320.816 113.028C323.096 114.803 326.595 115.285 328.834 113.458C328.578 115.362 327.729 117.137 326.408 118.533C325.087 119.929 323.36 120.874 321.471 121.235C319.582 121.597 317.628 121.356 315.884 120.547C314.139 119.738 312.694 118.402 311.752 116.728C310.57 114.628 310.265 112.167 309.915 109.785C309.565 107.402 309.109 104.936 307.699 102.983C306.288 101.029 303.648 99.7536 301.407 100.643L299.525 96.9991Z" fill="#2F2E41"/>
<path d="M154.035 103.817C149.956 103.817 146.044 102.198 143.16 99.317C140.275 96.4359 138.655 92.5285 138.655 88.4541C138.654 85.6753 138.656 83.5507 138.661 83.2485C138.79 73.7306 141.19 64.3806 145.661 55.9744C138.315 66.0188 134.276 78.0951 134.103 90.5327C134.098 90.8349 134.096 92.9595 134.097 95.7383C134.097 99.8127 135.717 103.72 138.602 106.601C141.486 109.482 145.398 111.101 149.477 111.102C152.829 111.1 156.089 110.006 158.762 107.986C161.434 105.965 163.374 103.128 164.285 99.9064C161.469 102.429 157.818 103.822 154.035 103.817Z" fill="#3F3D56"/>
<path d="M195.424 63.3311C200.139 63.5561 204.73 64.9208 208.801 67.3082C212.873 69.6956 216.303 73.0343 218.798 77.0377C221.293 81.041 222.778 85.5893 223.126 90.2921C223.473 94.9949 222.673 99.7117 220.793 104.037C223.512 100.848 225.51 97.1109 226.652 93.0803C227.793 89.0497 228.051 84.8206 227.408 80.6813C226.765 76.5421 225.236 72.59 222.925 69.0945C220.614 65.599 217.576 62.6423 214.018 60.426C210.459 58.2096 206.464 56.7858 202.304 56.2514C198.145 55.7171 193.919 56.0849 189.915 57.3298C185.911 58.5746 182.222 60.6672 179.101 63.4649C175.98 66.2626 173.499 69.6996 171.829 73.5416C174.716 70.1487 178.345 67.4636 182.436 65.6933C186.527 63.923 190.971 63.1148 195.424 63.3311Z" fill="#3F3D56"/>
<path d="M200.156 199.422C195.995 199.423 192 197.79 189.033 194.875C186.067 191.961 184.366 187.998 184.299 183.842C184.106 171.797 184.006 156.958 184.006 155.262C184.003 151.136 184.598 147.031 185.771 143.075L185.766 143.074C186.459 141.088 187.296 139.156 188.27 137.292C185.279 141.273 182.899 145.676 181.208 150.358L181.213 150.36C180.04 154.315 179.445 158.42 179.448 162.546C179.448 164.242 179.548 179.082 179.741 191.126C179.808 195.282 181.509 199.245 184.475 202.16C187.442 205.074 191.437 206.707 195.598 206.706C199.029 206.706 202.367 205.594 205.112 203.538C207.857 201.482 209.861 198.592 210.822 195.303C207.907 197.958 204.102 199.428 200.156 199.422Z" fill="#3F3D56"/>
<path d="M57.6767 265.229L63.2643 265.228L65.9229 243.7L57.6753 243.7L57.6767 265.229Z" fill="#FFB8B8"/>
<path d="M74.042 270.411L56.4798 270.412L56.4795 263.634L67.2563 263.634C69.0559 263.634 70.7818 264.348 72.0544 265.619C73.3269 266.89 74.0419 268.613 74.042 270.411L74.042 270.411Z" fill="#2F2E41"/>
<path d="M37.622 265.229L43.2096 265.228L45.8682 243.7L37.6206 243.7L37.622 265.229Z" fill="#FFB8B8"/>
<path d="M53.9868 270.411L36.4247 270.412L36.4243 263.634L47.2011 263.634C49.0007 263.634 50.7266 264.348 51.9992 265.619C53.2718 266.89 53.9867 268.613 53.9868 270.411L53.9868 270.411Z" fill="#2F2E41"/>
<path d="M42.5048 258.608L37.0466 258.321C36.7652 258.306 36.4895 258.236 36.2355 258.114C35.9815 257.992 35.7542 257.821 35.5669 257.61C35.3796 257.4 35.2359 257.155 35.1442 256.889C35.0525 256.622 35.0146 256.341 35.0327 256.06L41.5564 183.916L71.5984 192.013L74.4928 191.225L65.4414 255.091C65.3643 255.571 65.1255 256.011 64.7643 256.338C64.4031 256.664 63.9413 256.858 63.455 256.887L57.5712 257.161C57.277 257.177 56.9826 257.132 56.7066 257.029C56.4306 256.926 56.1791 256.767 55.9678 256.562C55.7566 256.356 55.5902 256.11 55.4793 255.837C55.3684 255.564 55.3153 255.272 55.3234 254.977L56.3895 216.646C56.3945 216.469 56.3329 216.296 56.2167 216.162C56.1006 216.028 55.9383 215.942 55.762 215.921C55.5857 215.901 55.408 215.947 55.2641 216.051C55.1201 216.155 55.0203 216.308 54.9842 216.482L44.7029 256.915C44.6058 257.395 44.3452 257.826 43.9654 258.135C43.5856 258.445 43.1102 258.613 42.6203 258.611C42.582 258.611 42.5435 258.61 42.5048 258.608Z" fill="#2F2E41"/>
<path d="M58.6802 124.887C64.8629 124.887 69.875 119.881 69.875 113.706C69.875 107.53 64.8629 102.524 58.6802 102.524C52.4974 102.524 47.4854 107.53 47.4854 113.706C47.4854 119.881 52.4974 124.887 58.6802 124.887Z" fill="#FFB8B8"/>
<path d="M40.0416 146.557L41.2725 173.084L41.7175 182.735C41.7352 183.155 41.878 183.56 42.1276 183.899C42.3773 184.237 42.7223 184.494 43.1187 184.636L71.9871 195.081C72.2203 195.167 72.4673 195.211 72.7161 195.209C73.0005 195.21 73.2822 195.154 73.5444 195.044C73.8067 194.934 74.0441 194.773 74.2425 194.57C74.4409 194.366 74.5962 194.125 74.6992 193.86C74.8022 193.595 74.8507 193.313 74.8418 193.029L73.6583 145.332C73.5806 141.419 72.1384 137.655 69.5804 134.69C67.0223 131.725 63.5088 129.745 59.6454 129.09C59.3662 129.047 59.0821 129.005 58.798 128.967C56.4024 128.67 53.9707 128.901 51.6741 129.643C49.3774 130.386 47.2716 131.622 45.5047 133.265C43.6752 134.946 42.2376 137.007 41.2935 139.304C40.3495 141.601 39.9221 144.077 40.0416 146.557L40.0416 146.557Z" fill="#CCCCCC"/>
<path d="M85.7772 189.788C85.0944 189.576 84.4706 189.208 83.9555 188.713C83.4405 188.217 83.0485 187.609 82.8107 186.935C82.573 186.262 82.4962 185.542 82.5863 184.834C82.6765 184.126 82.9312 183.448 83.3301 182.856L73.5405 169.853L81.9884 169.331L89.9896 181.758C90.8462 182.42 91.4422 183.361 91.6732 184.418C91.9042 185.475 91.7554 186.579 91.2528 187.537C90.7503 188.494 89.9261 189.245 88.9248 189.657C87.9236 190.068 86.8092 190.115 85.7772 189.788H85.7772Z" fill="#FFB8B8"/>
<path d="M78.8943 180.503C78.635 180.398 78.3991 180.242 78.2003 180.045C78.0015 179.849 77.8437 179.614 77.7361 179.356L62.9874 144.258C62.698 143.571 62.547 142.834 62.543 142.088C62.5391 141.343 62.6823 140.604 62.9644 139.913C63.2465 139.223 63.6621 138.595 64.1873 138.066C64.7125 137.536 65.337 137.115 66.0252 136.826C66.7134 136.538 67.4518 136.387 68.1982 136.384C68.9446 136.381 69.6843 136.524 70.3751 136.807C71.0659 137.089 71.6942 137.505 72.2241 138.03C72.7541 138.554 73.1752 139.179 73.4636 139.866L88.2123 174.965C88.4303 175.485 88.4327 176.071 88.2191 176.593C88.0054 177.115 87.5931 177.531 87.0726 177.75L80.5249 180.495C80.2671 180.604 79.9903 180.661 79.7104 180.662C79.4305 180.663 79.1531 180.609 78.8943 180.503L78.8943 180.503Z" fill="#CCCCCC"/>
<path d="M55.081 179.265L69.2468 152.173C69.52 151.652 69.989 151.26 70.5508 151.084C71.1126 150.908 71.7214 150.962 72.2437 151.233L92.8054 161.959C93.327 162.232 93.719 162.701 93.8953 163.262C94.0716 163.823 94.0179 164.431 93.7459 164.953L79.58 192.045C79.3069 192.566 78.8379 192.957 78.2761 193.133C77.7143 193.31 77.1055 193.256 76.5832 192.984L56.0215 182.258C55.4999 181.985 55.1079 181.517 54.9316 180.956C54.7553 180.395 54.809 179.786 55.081 179.265Z" fill="#3F3D56"/>
<path d="M64.5812 166.887C64.3293 166.219 63.9246 165.618 63.3993 165.134C62.8739 164.65 62.2425 164.295 61.5554 164.098C60.8683 163.9 60.1446 163.866 59.442 163.998C58.7393 164.13 58.0773 164.424 57.5086 164.856L43.9357 155.863L43.9126 164.317L56.8052 171.561C57.5169 172.376 58.4931 172.915 59.5627 173.083C60.6323 173.251 61.727 173.037 62.6547 172.479C63.5824 171.922 64.2839 171.056 64.6361 170.033C64.9884 169.011 64.9689 167.897 64.5812 166.887Z" fill="#FFB8B8"/>
<path d="M47.42 168.788L36.3274 160.012C35.1274 159.609 34.0431 158.922 33.1676 158.009C32.2921 157.096 31.6515 155.984 31.3008 154.769C30.9501 153.554 30.8998 152.272 31.1543 151.034C31.4087 149.795 31.9602 148.637 32.7615 147.658L42.8333 134.474C43.5332 133.62 44.5176 133.046 45.6064 132.857C46.6952 132.667 47.8158 132.876 48.7633 133.444C49.7108 134.012 50.4219 134.902 50.7667 135.951C51.1115 137 51.0668 138.137 50.641 139.156L42.6719 152.177L54.3831 157.725C54.6554 157.854 54.8973 158.039 55.0926 158.268C55.2879 158.498 55.4323 158.766 55.5163 159.055C55.6002 159.344 55.6217 159.648 55.5795 159.946C55.5372 160.244 55.4321 160.53 55.2711 160.784L50.5437 168.257C50.3839 168.509 50.1728 168.725 49.9242 168.89C49.6755 169.056 49.3948 169.167 49.1003 169.218C49.0886 169.22 49.0768 169.222 49.0651 169.223C48.7756 169.267 48.4803 169.251 48.1974 169.176C47.9144 169.101 47.6499 168.969 47.42 168.788Z" fill="#CCCCCC"/>
<path d="M50.2211 121.193C50.1731 121.053 50.1578 120.903 50.1766 120.756C50.1953 120.609 50.2475 120.468 50.3292 120.344C50.4108 120.22 50.5198 120.117 50.6478 120.041C50.7757 119.966 50.9192 119.921 51.0672 119.91C51.3704 119.926 51.6672 120.004 51.9395 120.138C52.2118 120.272 52.454 120.46 52.6516 120.69C53.0568 121.157 53.5284 121.561 54.0515 121.891C54.593 122.164 55.3275 122.125 55.6362 121.605C55.9261 121.117 55.7274 120.463 55.5519 119.896C55.1053 118.453 54.8555 116.957 54.809 115.448C54.7585 113.764 54.9964 112.005 55.9302 110.692C57.1352 108.996 59.29 108.352 61.3293 108.399C63.3685 108.445 65.3747 109.074 67.3946 109.472C68.0919 109.609 68.9116 109.679 69.378 109.139C69.8739 108.565 69.6918 107.636 69.4809 106.861C68.9335 104.85 68.3528 102.771 67.081 101.147C65.7059 99.4589 63.7416 98.3543 61.5837 98.0553C59.512 97.7989 57.409 98.0374 55.4476 98.7511C52.252 99.7571 49.44 101.714 47.3878 104.359C45.2724 107.173 44.3582 110.708 44.8454 114.193C45.3213 117.228 46.9314 119.97 49.3513 121.866L50.2211 121.193Z" fill="#2F2E41"/>
<path d="M192.008 265.318C189.03 264.022 186.393 262.053 184.307 259.565C182.222 257.077 180.743 254.14 179.989 250.983C179.234 247.827 179.224 244.539 179.96 241.379C180.695 238.218 182.156 235.271 184.227 232.771C181.826 234.523 179.825 236.764 178.358 239.346C176.89 241.929 175.989 244.794 175.715 247.751C175.44 250.708 175.798 253.689 176.766 256.497C177.733 259.305 179.287 261.876 181.325 264.038C183.363 266.2 185.838 267.905 188.586 269.038C191.334 270.172 194.292 270.709 197.263 270.614C200.235 270.519 203.152 269.793 205.821 268.486C208.491 267.178 210.851 265.318 212.746 263.03C209.791 265.188 206.321 266.534 202.682 266.935C199.044 267.337 195.364 266.779 192.008 265.318Z" fill="#3F3D56"/>
</svg>
