<svg width="155" height="155" viewBox="0 0 155 155" fill="none" xmlns="http://www.w3.org/2000/svg">
<path d="M77.4967 0C34.7003 0 0 34.7003 0 77.4967C0 120.293 34.7003 155 77.4967 155C120.293 155 155 120.293 155 77.4967C155 34.7003 120.293 0 77.4967 0ZM93.6298 120.109C89.6408 121.684 86.4654 122.878 84.0838 123.705C81.7088 124.531 78.9467 124.945 75.804 124.945C70.9752 124.945 67.2159 123.764 64.539 121.408C61.8622 119.053 60.5304 116.068 60.5304 112.44C60.5304 111.029 60.6288 109.586 60.8256 108.116C61.029 106.647 61.3505 104.993 61.79 103.136L66.7829 85.5009C67.2224 83.8082 67.603 82.2008 67.9048 80.705C68.2066 79.196 68.3509 77.8116 68.3509 76.5519C68.3509 74.3081 67.8851 72.7335 66.96 71.8478C66.0218 70.9621 64.2569 70.5291 61.626 70.5291C60.3401 70.5291 59.0148 70.7194 57.6567 71.1196C56.3117 71.5329 55.1439 71.9069 54.186 72.2743L55.5048 66.8419C58.7721 65.51 61.9016 64.3685 64.8868 63.4237C67.872 62.4658 70.6931 61.9934 73.3503 61.9934C78.1462 61.9934 81.8465 63.1613 84.4512 65.4707C87.0427 67.7867 88.3484 70.7981 88.3484 74.4984C88.3484 75.266 88.2565 76.6176 88.0794 78.5464C87.9022 80.4819 87.5676 82.2468 87.0821 83.8673L82.1155 101.45C81.7088 102.861 81.3479 104.475 81.0199 106.279C80.6984 108.083 80.5409 109.461 80.5409 110.386C80.5409 112.722 81.0592 114.316 82.109 115.163C83.1456 116.009 84.963 116.435 87.5348 116.435C88.7486 116.435 90.1067 116.219 91.6419 115.799C93.164 115.379 94.2662 115.005 94.9617 114.684L93.6298 120.109ZM92.7507 48.7405C90.4347 50.8925 87.6463 51.9685 84.3856 51.9685C81.1314 51.9685 78.3234 50.8925 75.9877 48.7405C73.6652 46.5886 72.4908 43.9708 72.4908 40.9134C72.4908 37.8626 73.6717 35.2383 75.9877 33.0667C78.3234 30.8885 81.1314 29.8059 84.3856 29.8059C87.6463 29.8059 90.4413 30.8885 92.7507 33.0667C95.0667 35.2383 96.2279 37.8626 96.2279 40.9134C96.2279 43.9773 95.0667 46.5886 92.7507 48.7405Z" fill="white"/>
</svg>
