<svg width="188" height="115" viewBox="0 0 188 115" fill="none" xmlns="http://www.w3.org/2000/svg">
<path d="M94.376 1V161V1ZM163.656 81L25.094 1L163.656 81ZM163.658 161L25.094 81L163.658 161ZM163.658 81L25.094 161L163.658 81ZM163.658 1L25.094 81L163.658 1ZM163.658 1V161V1ZM25.094 1V161V1ZM94.374 121L117.468 81L94.374 121ZM140.562 121L163.656 161L140.562 121ZM94.376 121H140.564H94.376ZM163.658 81L140.564 121L163.658 81ZM117.47 81L94.376 121L117.47 161H163.658L186.754 121L163.658 81H117.47ZM94.376 121L117.47 81L94.376 121ZM140.564 121L163.658 161L140.564 121ZM94.376 121H140.564H94.376ZM163.658 81L140.564 121L163.658 81ZM117.47 81L94.376 121L117.47 161H163.658L186.754 121L163.658 81H117.47ZM94.376 41L117.47 1L94.376 41ZM140.564 41L163.658 81L140.564 41ZM94.378 41H140.564H94.378ZM163.658 1L140.564 41L163.658 1ZM117.47 1L94.376 41L117.47 81H163.658L186.754 41L163.658 1H117.47ZM94.376 121L71.282 81L94.376 121ZM48.188 121L25.094 161L48.188 121ZM94.374 121H48.19H94.374ZM25.094 81L48.188 121L25.094 81ZM71.282 81L94.376 121L71.282 161H25.094L2 121L25.094 81H71.282ZM94.376 41L71.282 1L94.376 41ZM48.188 41L25.094 81L48.188 41ZM94.374 41H48.19H94.374ZM25.094 1L48.188 41L25.094 1ZM71.282 1L94.376 41L71.282 81H25.094L2 41L25.094 1H71.282Z" fill="white" stroke="#47B0D3" stroke-opacity="0.15" stroke-width="2"/>
</svg>
