<svg width="199" height="202" viewBox="0 0 199 202" fill="none" xmlns="http://www.w3.org/2000/svg">
<path d="M148.502 143.488H50.504C47.347 143.483 44.3206 142.227 42.0884 139.995C39.8563 137.762 38.6008 134.736 38.5972 131.579V69.9733C38.6008 66.8165 39.8564 63.79 42.0886 61.5579C44.3207 59.3257 47.3472 58.0701 50.504 58.0665H148.502C151.659 58.0701 154.686 59.3257 156.918 61.5579C159.15 63.79 160.406 66.8165 160.409 69.9733V131.579C160.406 134.736 159.15 137.762 156.918 139.995C154.686 142.227 151.659 143.483 148.502 143.488ZM50.504 65.8229C49.403 65.8239 48.3473 66.2613 47.5683 67.0393C46.7892 67.8172 46.3503 68.8723 46.3478 69.9733V131.579C46.3488 132.681 46.7869 133.738 47.5661 134.517C48.3453 135.297 49.4018 135.735 50.504 135.737H148.502C149.604 135.735 150.661 135.297 151.44 134.517C152.219 133.738 152.658 132.681 152.659 131.579V69.9733C152.658 68.8713 152.219 67.8147 151.44 67.0355C150.661 66.2563 149.604 65.8181 148.502 65.817L50.504 65.8229Z" fill="white"/>
<path d="M99.5048 115.549C98.5606 115.55 97.6486 115.205 96.9413 114.58L42.9604 66.9312L48.0894 61.1183L99.5048 106.504L150.914 61.1222L156.043 66.9351L102.064 114.578C101.358 115.203 100.448 115.548 99.5048 115.549Z" fill="white"/>
<path d="M8.46087 201.559C7.29716 201.552 6.15047 201.279 5.10892 200.76C4.06737 200.24 3.15868 199.49 2.45269 198.564C1.74669 197.639 1.26217 196.565 1.03637 195.423C0.810565 194.281 0.849483 193.103 1.15014 191.979L12.4137 149.932C12.6724 148.897 12.5247 147.802 12.0009 146.873C4.66236 133.318 0.573227 118.244 0.0560341 102.839C-0.461159 87.4335 2.60773 72.119 9.02068 58.1026C15.4336 44.0863 25.0153 31.7515 37.0099 22.071C49.0046 12.3906 63.0843 5.62918 78.1386 2.32005C93.193 -0.98908 108.81 -0.755433 123.759 3.00256C138.708 6.76056 152.579 13.9401 164.278 23.9751C175.978 34.01 185.186 46.6259 191.177 60.8278C197.168 75.0297 199.777 90.4293 198.8 105.812C197.77 121.961 192.817 137.616 184.37 151.418C175.924 165.221 164.238 176.755 150.327 185.021C136.415 193.286 120.697 198.035 104.536 198.853C88.375 199.672 72.2579 196.537 57.5821 189.72C56.7029 189.294 55.7021 189.192 54.7551 189.431L10.4625 201.303C9.80926 201.475 9.13636 201.561 8.46087 201.559ZM99.4449 7.75359C98.7009 7.75359 97.9562 7.76328 97.2108 7.78266C49.2502 8.95493 9.13711 48.9111 7.79626 96.8465C7.32497 112.988 11.1242 128.968 18.8098 143.17C20.2864 145.843 20.6764 148.982 19.8988 151.936L8.70307 193.74L52.7457 181.934C55.4537 181.225 58.3247 181.491 60.8567 182.684C74.3875 188.969 89.2469 191.859 104.147 191.105C119.047 190.35 133.538 185.973 146.365 178.353C159.192 170.733 169.966 160.101 177.756 147.376C185.545 134.652 190.114 120.22 191.066 105.331C191.928 92.6116 190.105 79.8527 185.715 67.8831C181.326 55.9136 174.469 45.0008 165.588 35.8533C157.011 26.9733 146.735 19.9094 135.372 15.0821C124.009 10.2547 111.791 7.76241 99.4449 7.75359Z" fill="white"/>
</svg>
