<svg width="86" height="113" viewBox="0 0 86 113" fill="none" xmlns="http://www.w3.org/2000/svg">
<path d="M33.617 69.6393L34.617 69.6378C34.617 69.6376 34.617 69.6375 34.617 69.6373C34.6135 67.3271 34.2269 65.1563 33.4455 63.141C32.6688 61.1379 30.8097 57.9353 27.9469 53.5973L27.9467 53.5969C23.6952 47.1609 21.1342 42.0573 20.183 38.2475L20.1828 38.2467C19.2305 34.4453 19.2762 30.5746 20.3342 26.6261C22.159 19.8156 26.3185 14.7215 32.8986 11.3053C39.4438 7.90714 47.1791 7.35785 56.1882 9.77185C64.6919 12.0504 70.8135 16.1352 74.6736 21.9726L74.6743 21.9737C77.4571 26.1705 78.9404 31.1243 79.0869 36.8763L79.0869 36.8764C79.1692 40.1007 76.3129 42.6216 73.1149 42.1582L73.1142 42.1581C70.5903 41.7943 68.6944 39.6659 68.6368 37.1231C68.5373 32.5743 67.5526 28.7279 65.6333 25.6442L65.6332 25.6441C63.021 21.4486 59.1053 18.6633 53.968 17.2867C48.6396 15.859 43.6166 16.4272 38.965 19.0212C34.339 21.601 31.3394 25.2802 30.059 30.0584C29.3512 32.7003 29.3252 35.3242 30.0122 37.9173C30.698 40.5056 32.6245 44.1271 35.6818 48.7345L35.6823 48.7352C38.7308 53.3203 40.7381 56.6935 41.7546 58.8722C43.1374 61.8824 43.9522 64.6817 44.2123 67.2791L44.2132 67.2881L44.2132 67.2881C44.5938 70.769 44.209 74.7274 43.0186 79.1703C42.6647 80.4911 41.3556 81.2961 40.034 81.041L39.5942 81.9585L38.6282 81.6996L35.2691 80.7996C33.4183 80.3036 32.2715 78.4397 32.671 76.563C33.3038 73.5848 33.6202 71.2726 33.617 69.6393ZM33.617 69.6393C33.6137 67.4411 33.2463 65.3934 32.5131 63.5025C31.7799 61.6116 29.9781 58.4908 27.1123 54.148L33.617 69.6393ZM38.2904 99.3868C39.1203 96.2893 37.2822 93.1057 34.1847 92.2757C31.0872 91.4457 27.9035 93.2838 27.0735 96.3813C26.2436 99.4788 28.0817 102.663 31.1792 103.492C34.2767 104.322 37.4604 102.484 38.2904 99.3868Z" stroke="white" stroke-width="2"/>
</svg>
