<svg width="177" height="227" viewBox="0 0 177 227" fill="none" xmlns="http://www.w3.org/2000/svg">
<path d="M108.213 158.821C111.397 157.742 113.233 154.369 112.35 151.075C109.86 141.781 106.403 134.154 102.02 128.174L102.014 128.166C98.7739 123.66 94.3205 119.403 88.6499 115.385C84.5015 112.481 77.3472 108.48 67.1246 103.409L67.1238 103.409C56.8802 98.3167 49.8155 93.8816 46.0397 90.0845C42.2603 86.2839 39.6814 81.7186 38.2619 76.4207C35.6928 66.8327 37.1991 57.4252 42.6903 48.2332C48.1965 39.0161 56.3789 32.9625 67.1571 30.0745C77.5583 27.2875 87.1814 28.2151 95.9476 32.8944L95.9478 32.8945C102.37 36.3241 107.991 42.0437 112.807 49.9801C115.817 54.9317 121.978 56.9666 127.363 54.8128L127.364 54.8126C134.189 52.0886 136.956 43.8721 133.121 37.6043L133.121 37.6043C126.811 27.2913 118.879 19.7937 109.342 15.0484L109.341 15.0478C96.0894 8.43373 80.6036 7.46157 62.8038 12.231C43.9549 17.2816 30.3967 26.4053 22.0012 39.5519C13.5845 52.7315 11.3399 66.4815 15.2003 80.8885C17.4364 89.2338 21.4503 96.3851 27.225 102.352L27.2256 102.352C33.0055 108.334 43.015 114.9 57.3316 122.054L57.332 122.054C66.9624 126.872 73.5153 130.645 76.8816 133.352C80.2582 136.068 83.1154 139.457 85.4536 143.492C87.204 146.511 89.0562 151.065 91.0114 157.08L91.0116 157.081C92.0733 160.352 95.5267 162.221 98.847 161.331L107.803 158.931L108.213 158.821ZM124.802 192.224C122.931 185.239 115.751 181.094 108.766 182.965C101.781 184.837 97.6355 192.017 99.5072 199.002C101.379 205.987 108.558 210.132 115.544 208.26C122.529 206.389 126.674 199.209 124.802 192.224Z" stroke="white" stroke-width="2"/>
</svg>
