<svg width="93" height="148" viewBox="0 0 93 148" fill="none" xmlns="http://www.w3.org/2000/svg">
<path d="M51.8961 111.154C54.1686 111.001 55.9597 109.114 55.9597 106.803C55.9597 99.8815 54.9775 93.9529 53.0536 89.0031L53.0504 88.9946C51.6462 85.282 49.3542 81.508 46.1659 77.6641C43.8298 74.8809 39.6019 70.7657 33.4223 65.3213L33.4216 65.3207C27.2277 59.8537 23.0992 55.4152 21.1511 52.0191C19.2006 48.6186 18.2435 44.905 18.2435 40.8989C18.2436 33.6503 21.0877 27.3015 26.6831 21.8703C32.2995 16.4188 39.2073 13.7005 47.3317 13.7005C55.1694 13.7005 61.7768 16.1678 67.0719 21.1216L67.072 21.1217C70.9555 24.756 73.8274 29.843 75.7134 36.3117C76.8484 40.1957 80.6369 42.6832 84.6609 42.2035L84.6617 42.2034C89.7608 41.5994 93.112 36.5547 91.6579 31.6339L91.6579 31.6339C89.1979 23.3068 85.0933 16.6434 79.373 11.5909L79.372 11.5901C71.4291 4.55654 60.8826 0.999997 47.6301 0.999996C33.5941 0.999995 22.5073 4.81358 14.2589 12.3552C5.9816 19.9233 1.8828 29.0192 1.8828 39.7054C1.8828 45.8973 3.33442 51.5876 6.22274 56.7846L6.22312 56.7853C9.1126 61.9941 14.837 68.4179 23.4775 76.0764L23.4779 76.0767C29.2922 81.2351 33.1781 85.1086 35.0396 87.6525C36.9087 90.2069 38.2819 93.1356 39.1665 96.4167C39.831 98.8773 40.2728 102.423 40.5126 106.989L40.5126 106.989C40.6341 109.321 42.5707 111.154 44.9048 111.154L51.5987 111.154L51.8961 111.154ZM56.9543 137.825C56.9543 132.758 52.8466 128.65 47.7793 128.65C42.712 128.65 38.6043 132.758 38.6043 137.825C38.6043 142.892 42.712 147 47.7793 147C52.8466 147 56.9543 142.892 56.9543 137.825Z" stroke="white" stroke-width="2"/>
</svg>
