<svg width="50" height="50" viewBox="0 0 50 50" fill="none" xmlns="http://www.w3.org/2000/svg">
<path d="M25 50C38.8071 50 50 38.8071 50 25C50 11.1929 38.8071 0 25 0C11.1929 0 0 11.1929 0 25C0 38.8071 11.1929 50 25 50Z" fill="#47B0D3"/>
<path d="M3.3333 25C3.3333 11.7531 13.6368 0.914453 26.6666 0.056543C26.1156 0.0203125 25.5603 0 25 0C11.1929 0 0 11.1929 0 25C0 38.8071 11.1929 50 25 50C25.5603 50 26.1156 49.9797 26.6667 49.9435C13.6369 49.0855 3.3333 38.2469 3.3333 25Z" fill="#3298BA"/>
<path d="M37.1353 10.6498C36.8925 10.4848 36.581 10.4598 36.3151 10.5835L9.45112 23.0892C8.97915 23.309 8.68091 23.7896 8.69272 24.31C8.70415 24.8203 9.01303 25.2787 9.48032 25.4833L34.2472 36.2701C35.0742 36.646 36.0479 36.0543 36.101 35.1517L37.4989 11.3879C37.516 11.0951 37.378 10.8147 37.1353 10.6498Z" fill="#E5E5E5"/>
<path d="M16.7607 28.6544L18.4347 39.8437L37.028 10.5891L16.7607 28.6544Z" fill="#CCCCCC"/>
<path d="M36.3148 10.5835L9.45066 23.0892C8.98806 23.3045 8.6864 23.7846 8.69197 24.2947C8.69763 24.8058 9.01189 25.2785 9.47976 25.4833L16.7607 28.6543L37.0279 10.5891C36.8047 10.4815 36.543 10.4773 36.3148 10.5835Z" fill="white"/>
<path d="M20.6461 30.3466L18.4346 39.8437L37.0279 10.5891L20.6461 30.3466Z" fill="#E5E5E5"/>
<path d="M37.1353 10.6498C37.101 10.6265 37.0649 10.6066 37.0283 10.5891L20.6465 30.3466L34.2471 36.2701C35.074 36.646 36.0478 36.0543 36.1009 35.1516L37.4987 11.3879C37.5159 11.0951 37.3779 10.8146 37.1353 10.6498Z" fill="white"/>
</svg>
