
<svg width="50" height="50" viewBox="0 0 50 50" fill="none" xmlns="http://www.w3.org/2000/svg">
<path d="M25 50C38.8071 50 50 38.8071 50 25C50 11.1929 38.8071 0 25 0C11.1929 0 0 11.1929 0 25C0 38.8071 11.1929 50 25 50Z" fill="url(#paint0_linear_160_4663)"/>
<path d="M25.3074 9.78442C17.0021 9.78442 10.2348 16.4001 10.2348 24.6444C10.2348 27.3924 11.0551 30.0387 12.388 32.2779L9.61963 40.2168L18.0275 37.5704C20.1807 38.6901 22.6414 39.4025 25.3074 39.4025C33.6127 39.4025 40.3799 32.7868 40.3799 24.5426C40.3799 16.2983 33.6127 9.6826 25.3074 9.78442V9.78442ZM25.4099 37.0616C22.9372 37.0762 20.514 36.3688 18.4376 35.026L13.5159 36.5526L15.054 31.8708C13.4568 29.7616 12.5926 27.1883 12.5931 24.5426C12.5931 17.6214 18.3351 12.0236 25.3074 12.0236C32.2797 12.0236 38.0216 17.6214 38.1242 24.5426C38.1242 31.4637 32.3822 37.0616 25.4099 37.0616V37.0616Z" fill="white"/>
<path fill-rule="evenodd" clip-rule="evenodd" d="M19.7888 17.9025L20.7772 17.9598C20.8729 17.9658 20.9649 17.9984 21.0429 18.0541C21.1209 18.1097 21.1818 18.1861 21.2186 18.2746L22.658 21.6332C22.6946 21.7215 22.706 21.8182 22.6907 21.9126C22.6755 22.007 22.6342 22.0952 22.5716 22.1675L21.3146 23.6082C21.2653 23.6652 21.2344 23.7358 21.2258 23.8107C21.2173 23.8856 21.2315 23.9613 21.2666 24.028C22.9267 27.1957 25.9398 28.4552 26.8419 28.77C26.9163 28.7965 26.9973 28.7987 27.0731 28.7764C27.1489 28.7542 27.2157 28.7085 27.2641 28.646L28.5787 26.9476C28.6505 26.856 28.7511 26.7911 28.8642 26.7634C28.9773 26.7357 29.0964 26.7468 29.2025 26.795L32.5515 28.3216C32.6567 28.371 32.7423 28.4542 32.7945 28.558C32.8467 28.6619 32.8625 28.7802 32.8393 28.8941L32.6858 29.6288C32.5986 30.041 32.4308 30.4319 32.1921 30.7791C31.9533 31.1262 31.6482 31.4227 31.2944 31.6515C30.3828 32.224 29.2121 32.5103 27.7151 32.0904C23.0802 30.7833 20.4605 27.7301 19.0499 25.8218C17.6393 23.9136 17.0923 22.0053 17.4474 20.45C17.6873 19.41 18.455 18.599 18.9348 18.1887C19.1726 17.988 19.4781 17.8857 19.7888 17.9025V17.9025Z" fill="white"/>
<path style="mix-blend-mode:multiply" d="M47.9891 15.1628C48.1766 16.4003 48.2707 17.6502 48.2708 18.9018C48.2708 32.9214 36.6154 44.2867 22.2378 44.2867C14.0947 44.2867 6.82592 40.64 2.05225 34.9311C5.89443 43.7969 14.7222 50 25.0001 50C38.8072 50 50.0001 38.8071 50.0001 25C50.0042 21.6185 49.32 18.2715 47.9891 15.1628V15.1628Z" fill="url(#paint1_radial_160_4663)"/>
<path d="M1.61634 21.1807C3.99472 27.2729 14.2037 28.9786 24.4187 24.9906C34.6336 21.0026 41.5893 12.5598 38.6079 6.73884C36.8465 3.29974 31.0899 0.206437 24.2983 0.0111084H24.2612C13.3296 0.328454 4.15941 7.66441 1.09489 17.669C1.016 18.8634 1.1938 20.0608 1.61634 21.1807V21.1807Z" fill="url(#paint2_radial_160_4663)"/>
<defs>
<linearGradient id="paint0_linear_160_4663" x1="0" y1="25" x2="49.9999" y2="25" gradientUnits="userSpaceOnUse">
<stop stop-color="#62D470"/>
<stop offset="0.2827" stop-color="#57CD67"/>
<stop offset="0.7852" stop-color="#38BC4F"/>
<stop offset="1" stop-color="#29B343"/>
</linearGradient>
<radialGradient id="paint1_radial_160_4663" cx="0" cy="0" r="1" gradientUnits="userSpaceOnUse" gradientTransform="translate(26.0437 32.5741) rotate(-40.0917) scale(29.2997 22.2281)">
<stop/>
<stop offset="1" stop-color="white" stop-opacity="0"/>
</radialGradient>
<radialGradient id="paint2_radial_160_4663" cx="0" cy="0" r="1" gradientUnits="userSpaceOnUse" gradientTransform="translate(20.192 13.5782) scale(23.7607)">
<stop stop-color="white"/>
<stop offset="0.0736" stop-color="white" stop-opacity="0.824"/>
<stop offset="0.1652" stop-color="white" stop-opacity="0.633"/>
<stop offset="0.262" stop-color="white" stop-opacity="0.463"/>
<stop offset="0.362" stop-color="white" stop-opacity="0.32"/>
<stop offset="0.4663" stop-color="white" stop-opacity="0.203"/>
<stop offset="0.5761" stop-color="white" stop-opacity="0.113"/>
<stop offset="0.6941" stop-color="white" stop-opacity="0.05"/>
<stop offset="0.8259" stop-color="white" stop-opacity="0.012"/>
<stop offset="1" stop-color="white" stop-opacity="0"/>
</radialGradient>
</defs>
</svg>
