<svg width="324" height="324" viewBox="0 0 324 324" fill="none" xmlns="http://www.w3.org/2000/svg">
<g clip-path="url(#clip0_305_103)">
<path d="M276.551 47.4491C245.953 16.8511 205.272 0 162 0C118.728 0 78.0466 16.8511 47.4491 47.4491C16.8517 78.0472 0 118.728 0 162C0 205.272 16.8511 245.953 47.4491 276.551C78.0472 307.15 118.729 324.001 162.001 324.001C205.272 324.001 245.954 307.15 276.552 276.551C307.15 245.953 324.001 205.272 324.001 162C324.001 118.728 307.149 78.0466 276.551 47.4491ZM263.127 263.127C236.115 290.14 200.201 305.015 162 305.015C123.799 305.015 87.8852 290.139 60.8728 263.127C33.861 236.115 18.985 200.201 18.985 162C18.985 123.799 33.861 87.8852 60.8728 60.8728C87.8852 33.861 123.799 18.985 162 18.985C200.201 18.985 236.115 33.861 263.127 60.8728C290.139 87.8852 305.015 123.799 305.015 162C305.015 200.201 290.139 236.115 263.127 263.127Z" fill="black"/>
<path d="M162.005 179.697C117.053 179.697 80.4824 211.686 80.4824 251.007C80.4824 253.932 81.8316 256.695 84.1396 258.494C86.4469 260.292 89.4553 260.926 92.2923 260.212C137.899 248.729 186.112 248.729 231.719 260.212C232.484 260.405 233.262 260.499 234.036 260.499C236.129 260.499 238.187 259.807 239.872 258.494C242.179 256.695 243.529 253.932 243.529 251.007C243.528 211.686 206.957 179.697 162.005 179.697ZM162.005 232.617C141.614 232.617 121.224 234.651 101.208 238.72C107.832 215.776 132.577 198.682 162.005 198.682C178.978 198.682 194.872 204.299 206.757 214.499C214.721 221.334 220.201 229.675 222.806 238.72C202.792 234.652 182.397 232.617 162.005 232.617Z" fill="black"/>
<path d="M105.914 84.754C114.229 79.1364 119.859 70.6172 121.765 60.7659C122.762 55.6191 119.397 50.6387 114.251 49.6426C109.106 48.6453 104.123 52.01 103.127 57.1581C102.183 62.0303 99.3987 66.2443 95.2859 69.0231C91.1725 71.8025 86.2231 72.8125 81.3515 71.8689C76.206 70.8729 71.2243 74.237 70.2276 79.3838C69.2309 84.5313 72.5957 89.5111 77.7425 90.5078C80.1485 90.9735 82.5634 91.2039 84.9612 91.2039C92.3812 91.2032 99.6309 88.9997 105.914 84.754Z" fill="black"/>
<path d="M246.327 71.8682C241.454 72.8117 236.506 71.8011 232.393 69.0223C228.28 66.2436 225.496 62.0296 224.552 57.1574C223.555 52.0099 218.574 48.6445 213.428 49.6419C208.281 50.6379 204.916 55.6183 205.913 60.7652C207.821 70.6165 213.45 79.1356 221.764 84.7533C228.048 88.999 235.297 91.2025 242.716 91.2025C245.113 91.2025 247.529 90.9728 249.935 90.5064C255.082 89.5097 258.446 84.5299 257.45 79.3824C256.454 74.2369 251.472 70.8708 246.327 71.8682Z" fill="black"/>
<path d="M183.91 148.001L225.452 171.985C226.947 172.848 228.579 173.259 230.189 173.259C233.47 173.258 236.661 171.556 238.419 168.511C241.04 163.97 239.484 158.164 234.944 155.544L207.642 139.781L234.944 124.018C239.484 121.397 241.04 115.592 238.419 111.051C235.797 106.511 229.993 104.955 225.452 107.577L183.91 131.56C180.973 133.256 179.164 136.389 179.164 139.781C179.164 143.172 180.973 146.305 183.91 148.001Z" fill="black"/>
<path d="M85.5917 111.051C82.9705 115.591 84.526 121.397 89.0659 124.017L116.368 139.78L89.0659 155.543C84.526 158.164 82.9705 163.97 85.5917 168.51C87.3497 171.555 90.5404 173.258 93.821 173.258C95.4309 173.258 97.0636 172.848 98.5584 171.984L140.099 148.001C143.036 146.305 144.846 143.171 144.846 139.78C144.846 136.389 143.036 133.255 140.099 131.56L98.5584 107.576C94.0178 104.954 88.2129 106.511 85.5917 111.051Z" fill="black"/>
</g>
<defs>
<clipPath id="clip0_305_103">
<rect width="324" height="324" fill="white"/>
</clipPath>
</defs>
</svg>
