<svg width="324" height="324" viewBox="0 0 324 324" fill="none" xmlns="http://www.w3.org/2000/svg">
<path d="M276.551 47.4489C245.954 16.8512 205.272 0 162 0C118.728 0 78.046 16.8512 47.4489 47.4489C16.8505 78.046 0 118.728 0 162C0 205.272 16.8505 245.954 47.4489 276.551C78.046 307.149 118.728 324 162 324C205.272 324 245.954 307.149 276.551 276.551C307.149 245.954 324 205.272 324 162C324 118.728 307.149 78.046 276.551 47.4489ZM162 304.714C83.3072 304.714 19.2856 240.693 19.2856 162C19.2856 83.3072 83.3072 19.2856 162 19.2856C240.693 19.2856 304.714 83.3072 304.714 162C304.714 240.693 240.693 304.714 162 304.714Z" fill="black"/>
<path d="M126.957 119.219C111.166 103.428 85.4724 103.429 69.6818 119.219C65.916 122.985 65.916 129.091 69.6818 132.857C73.4483 136.622 79.5543 136.622 83.3196 132.857C91.5917 124.585 105.05 124.586 113.321 132.857C115.204 134.74 117.672 135.681 120.139 135.681C122.606 135.681 125.075 134.74 126.957 132.857C130.723 129.091 130.723 122.985 126.957 119.219Z" fill="black"/>
<path d="M254.316 119.219C238.526 103.429 212.832 103.428 197.041 119.219C193.275 122.985 193.275 129.091 197.041 132.857C200.808 136.622 206.914 136.622 210.679 132.857C218.95 124.585 232.408 124.584 240.681 132.857C242.564 134.74 245.031 135.681 247.498 135.681C249.966 135.681 252.434 134.74 254.316 132.857C258.082 129.091 258.082 122.985 254.316 119.219Z" fill="black"/>
<path d="M247.5 169.072H76.5002C71.1745 169.072 66.8574 173.389 66.8574 178.715C66.8574 231.176 109.539 273.857 162 273.857C214.462 273.857 257.143 231.176 257.143 178.715C257.143 173.389 252.826 169.072 247.5 169.072ZM162 254.572C123.438 254.572 91.5036 225.65 86.753 188.357H237.248C232.497 225.65 200.562 254.572 162 254.572Z" fill="black"/>
</svg>
